<svg width="1200" height="1200" viewBox="0 0 1200 1200" fill="none" xmlns="http://www.w3.org/2000/svg">
<rect width="1200" height="1200" fill="#03412C"/>
<path d="M715.461 363.869C715.461 363.869 715.501 363.894 715.516 363.899M718.332 365.618L718.634 363.899V363.869H715.461M715.461 363.869C714.229 363.186 712.721 362.402 710.886 361.537L709.795 363.869L709.785 363.899L679.538 428.669M715.461 363.869C715.481 363.884 715.501 363.894 715.516 363.899M679.538 428.669L662.309 465.574L652.243 487.126L661.318 465.137L676.577 428.146L691.268 392.542L675.687 427.99L659.679 464.413L645.582 496.489C645.903 497.761 646.275 498.881 646.652 499.836C651.67 497.901 659.941 492.926 665.451 480.391L670.363 469.218L687.563 430.081L709.317 380.591C711.092 376.55 713.621 373.75 715.853 371.283C716.502 370.564 717.125 369.875 717.703 369.182C718.412 368.342 719.061 367.498 719.639 366.573C719.307 366.302 718.875 365.985 718.332 365.618C717.613 365.131 716.688 364.558 715.516 363.899M715.516 363.899H718.634M676.577 428.146L679.538 428.669M717.703 369.182L714.873 385.29C714.873 385.295 714.868 385.3 714.868 385.3C712.002 391.834 703.546 411.068 694.642 431.328C688.231 445.908 681.59 461.026 676.627 472.309C674.762 476.561 673.128 480.27 671.841 483.2C667.371 493.383 661.218 499.389 655.747 502.942C653.148 524.68 647.386 584.991 658.01 623.103C661.876 636.984 664.571 649.499 666.054 661.265C666.089 661.536 666.125 661.808 666.155 662.074C666.999 669.015 667.422 675.689 667.412 682.238C667.402 687.666 667.1 692.999 666.492 698.316C664.506 715.912 659.232 733.307 650.529 753.104C643.882 768.232 632.857 785.044 618.442 799.423L618.236 799.89L618.06 799.81C590.152 827.443 549.644 845.883 503.475 825.603C502.062 824.985 500.679 824.342 499.327 823.678C494.289 821.221 489.664 818.481 485.43 815.506C470.005 804.67 459.729 790.663 453.384 775.283C446.637 758.954 444.319 741.077 444.973 723.788L445.003 723.245C445.837 703.116 450.674 683.826 457.215 668.768C457.28 668.608 457.351 668.452 457.421 668.291C458.366 666.135 459.322 664.034 460.287 661.973C469.095 643.116 478.653 628.184 490.745 615.318C505.219 599.923 523.324 587.494 548.15 574.854C583.374 556.921 623.952 511.858 638.216 495.238C637.13 488.809 637.402 480.215 641.876 470.037C643.168 467.102 644.797 463.393 646.668 459.141C650.8 449.738 656.099 437.68 661.454 425.482C672.661 399.996 684.119 373.916 685.737 370.232C686.673 368.106 687.085 366.015 687.346 363.904C687.346 363.894 687.346 363.879 687.351 363.869C687.849 359.808 687.799 355.647 689.88 350.902C691.901 346.309 703.143 350.46 710.826 353.832C713.621 355.064 716.808 356.567 719.639 358.205C722.731 359.994 725.391 361.944 726.638 363.869C726.648 363.879 726.658 363.899 726.658 363.899C727.397 365.045 727.628 366.181 727.15 367.272C723.978 374.494 718.452 377.158 715.707 383.395C715.536 383.787 715.255 384.425 714.873 385.29M694.642 431.328L687.563 430.081M631.896 518.161C632.625 517.472 633.641 516.754 634.958 516.382C635.612 516.196 636.336 516.095 637.075 516.145C637.457 516.181 637.859 516.266 638.251 516.341L639.151 516.633C639.634 516.864 639.845 517.005 640.202 517.201C640.504 517.417 640.795 517.648 641.077 517.884C641.615 518.397 642.032 518.995 642.344 519.603C642.957 520.83 643.113 522.066 643.088 523.066C643.038 525.097 642.384 526.273 642.384 526.273C642.384 526.273 642.278 524.951 641.816 523.217C641.569 522.363 641.213 521.413 640.644 520.593C640.373 520.171 640.001 519.84 639.639 519.498L639.025 519.061C638.824 518.96 638.487 518.799 638.412 518.744L637.532 518.422L636.874 518.297C636.376 518.266 635.878 518.216 635.38 518.307C634.39 518.442 633.445 518.814 632.64 519.206C631.047 520.026 629.986 520.825 629.986 520.825C629.986 520.825 630.423 519.558 631.896 518.161ZM578.9 573.21C600.212 557.524 620.69 536.983 634.118 522.513C635.24 521.307 636.567 521.759 636.949 521.925C637.326 522.091 638.558 522.765 638.427 524.403C636.848 544.08 635.566 573.049 638.422 599.35C638.593 600.933 637.96 602.371 636.688 603.305C636.225 603.647 635.717 603.889 635.189 604.029C634.641 604.18 634.078 604.22 633.525 604.155C633.143 604.105 632.771 604.004 632.414 603.848C632.007 603.667 631.615 603.416 631.258 603.099C627.869 600.099 624.34 597.38 620.68 594.967C616.572 592.258 612.303 589.926 607.909 587.996C603.455 586.041 598.784 584.458 593.937 583.262C589.744 582.217 585.415 581.468 580.986 581.015C580.508 580.97 580.061 580.855 579.654 580.674C579.312 580.528 579 580.332 578.719 580.101H578.714C578.276 579.734 577.919 579.286 577.653 578.779C577.391 578.286 577.225 577.738 577.16 577.161C576.984 575.592 577.618 574.15 578.9 573.21ZM586.376 797.639L578.085 793.995L582.409 784.154L590.7 787.798L586.376 797.639ZM589.654 803.776C589.066 804.168 588.467 804.539 587.874 804.916L588.583 803.308L589.654 803.776ZM464.198 760.417C463.831 759.175 463.474 757.929 463.158 756.677L466.275 749.586L474.565 753.23L470.237 763.07L464.198 760.417ZM468.507 767.011L467.421 769.489C466.923 768.302 466.446 767.111 466.008 765.91L468.507 767.011ZM460.604 742.394C460.161 738.388 459.95 734.367 459.915 730.351L468.392 734.076L464.068 743.916L460.604 742.394ZM462.333 747.857L461.624 749.465C461.504 748.772 461.373 748.083 461.262 747.384L462.333 747.857ZM537.215 710.278L528.93 706.639L533.253 696.798L541.544 700.437L537.215 710.278ZM545.486 702.171L553.771 705.81L549.448 715.651L541.157 712.012L545.486 702.171ZM535.486 714.218L531.162 724.059L522.871 720.42L527.195 710.579L535.486 714.218ZM539.427 715.952L547.718 719.591L543.389 729.432L535.099 725.793L539.427 715.952ZM551.66 721.325L559.945 724.964L555.621 734.804L547.331 731.166L551.66 721.325ZM553.389 717.384L557.713 707.544L566.004 711.182L561.68 721.023L553.389 717.384ZM559.448 703.603L563.771 693.763L572.062 697.401L567.738 707.242L559.448 703.603ZM569.945 712.911L578.236 716.555L573.912 726.396L565.622 722.757L569.945 712.911ZM571.675 708.976L576.004 699.13L584.294 702.774L579.965 712.615L571.675 708.976ZM577.733 695.195L582.057 685.354L590.348 688.993L586.024 698.834L577.733 695.195ZM583.792 681.414L588.115 671.573L596.406 675.212L592.082 685.053L583.792 681.414ZM579.85 679.68L571.559 676.041L575.888 666.2L584.174 669.839L579.85 679.68ZM574.772 682.153L578.12 683.62L573.791 693.461L565.501 689.822L569.302 681.188L569.83 679.981L574.772 682.153ZM564.933 680.419L561.564 688.088L553.274 684.449L555.757 678.8L557.597 674.609L565.888 678.247L564.933 680.419ZM559.83 692.029L555.506 701.869L547.215 698.231L551.539 688.39L559.83 692.029ZM543.274 696.497L534.983 692.858L539.312 683.017L547.597 686.656L543.274 696.497ZM531.041 691.129L522.756 687.485L527.079 677.644L535.37 681.288L531.041 691.129ZM529.312 695.064L524.988 704.91L516.697 701.266L521.021 691.425L529.312 695.064ZM523.253 708.845L518.93 718.691L510.639 715.047L514.963 705.207L523.253 708.845ZM517.2 722.627L512.871 732.472L504.581 728.829L508.909 718.988L517.2 722.627ZM521.137 724.36L529.427 727.999L525.104 737.84L516.813 734.201L521.137 724.36ZM533.369 729.733L541.66 733.372L537.336 743.213L529.045 739.574L533.369 729.733ZM539.543 748.882L547.834 752.526L543.505 762.367L535.219 758.728L539.543 748.882ZM541.273 744.947L545.601 735.106L553.892 738.745L549.563 748.586L541.273 744.947ZM557.829 740.474L566.119 744.118L561.795 753.958L553.505 750.315L557.829 740.474ZM559.563 736.538L563.887 726.693L572.178 730.336L567.854 740.177L559.563 736.538ZM576.119 732.065L584.41 735.709L580.081 745.55L571.796 741.906L576.119 732.065ZM577.849 728.125L582.178 718.284L590.468 721.928L586.139 731.769L577.849 728.125ZM583.907 714.344L588.231 704.503L596.522 708.147L592.198 717.988L583.907 714.344ZM589.965 700.568L594.289 690.722L602.58 694.366L598.256 704.206L589.965 700.568ZM596.024 686.786L596.386 685.962L600.348 676.941L608.638 680.584L605.561 687.581L604.309 690.425L596.024 686.786ZM602.077 673.005L606.406 663.159L614.697 666.803L610.368 676.644L602.077 673.005ZM598.135 671.271L589.85 667.633L594.174 657.787L602.464 661.431L598.135 671.271ZM585.908 665.899L577.618 662.26L581.941 652.419L590.232 656.058L585.908 665.899ZM573.676 660.526L565.385 656.887L569.714 647.046L578 650.685L573.676 660.526ZM571.946 664.466L567.618 674.307L559.327 670.668L563.656 660.828L571.946 664.466ZM555.39 668.939L547.1 665.296L551.423 655.455L559.714 659.094L555.39 668.939ZM553.656 672.875L551.393 678.031L549.332 682.721L541.041 679.077L542.213 676.413L545.365 669.236L553.656 672.875ZM537.849 675.644L537.1 677.348L530.121 674.282L528.809 673.704L533.138 663.863L541.428 667.507L537.849 675.644ZM524.867 671.975L516.582 668.331L520.905 658.49L529.196 662.134L524.867 671.975ZM523.138 675.915L518.814 685.756L510.523 682.112L514.847 672.272L523.138 675.915ZM517.079 689.697L512.756 699.537L504.465 695.894L508.789 686.053L517.079 689.697ZM511.026 703.478L506.697 713.318L498.407 709.675L502.735 699.834L511.026 703.478ZM504.968 717.259L500.639 727.1L492.353 723.456L496.677 713.615L504.968 717.259ZM498.909 731.035L494.586 740.881L486.295 737.237L490.619 727.396L498.909 731.035ZM502.851 732.769L511.142 736.408L506.813 746.254L498.527 742.61L502.851 732.769ZM515.083 738.142L523.369 741.78L519.045 751.626L510.755 747.982L515.083 738.142ZM527.311 743.514L535.601 747.153L531.278 756.994L522.987 753.355L527.311 743.514ZM533.485 762.668L541.775 766.307L537.452 776.148L529.161 772.509L533.485 762.668ZM545.717 768.036L554.008 771.68L549.679 781.521L541.393 777.882L545.717 768.036ZM547.447 764.101L551.775 754.255L560.066 757.899L555.737 767.739L547.447 764.101ZM564.003 759.628L572.293 763.271L567.969 773.112L559.679 769.473L564.003 759.628ZM565.737 755.687L570.061 745.846L578.352 749.49L574.028 759.331L565.737 755.687ZM582.293 751.219L590.584 754.863L586.255 764.704L577.969 761.06L582.293 751.219ZM584.023 747.279L588.352 737.438L596.642 741.082L592.313 750.923L584.023 747.279ZM590.081 733.498L594.405 723.657L602.696 727.301L598.372 737.142L590.081 733.498ZM596.139 719.717L600.463 709.876L608.754 713.52L604.43 723.36L596.139 719.717ZM602.198 705.935L606.522 696.095L614.812 699.738L610.483 709.579L602.198 705.935ZM608.251 692.154L609.925 688.35L612.58 682.313L620.866 685.957L619.106 689.963L616.542 695.798L608.251 692.154ZM614.309 678.373L618.633 668.532L626.924 672.176L622.6 682.017L614.309 678.373ZM620.368 664.592L624.692 654.751L632.982 658.395L628.658 668.236L620.368 664.592ZM616.426 662.863L608.135 659.219L612.459 649.378L620.75 653.022L616.426 662.863ZM604.194 657.49L595.903 653.851L600.232 644.006L608.523 647.649L604.194 657.49ZM591.967 652.118L583.676 648.479L588 638.638L596.29 642.277L591.967 652.118ZM579.734 646.745L571.444 643.106L575.767 633.265L584.058 636.904L579.734 646.745ZM567.502 641.372L559.211 637.733L563.54 627.892L571.826 631.531L567.502 641.372ZM565.772 645.312L561.444 655.158L553.158 651.514L557.482 641.674L565.772 645.312ZM549.216 649.785L540.926 646.142L545.249 636.301L553.54 639.94L549.216 649.785ZM547.482 653.726L543.158 663.567L534.867 659.923L539.191 650.082L547.482 653.726ZM530.926 658.194L522.635 654.55L526.964 644.709L535.254 648.353L530.926 658.194ZM518.698 652.821L510.408 649.177L514.732 639.337L523.022 642.98L518.698 652.821ZM516.964 656.761L512.64 666.602L504.349 662.959L508.673 653.118L516.964 656.761ZM510.905 670.543L510.765 670.869L506.582 680.383L498.291 676.74L501.579 669.251L502.615 666.899L510.905 670.543ZM504.852 684.324L500.523 694.165L492.233 690.521L496.562 680.68L504.852 684.324ZM498.794 698.105L494.47 707.946L486.179 704.302L490.503 694.461L498.794 698.105ZM492.735 711.886L488.412 721.727L480.121 718.083L484.445 708.242L492.735 711.886ZM486.677 725.667L482.353 735.508L474.063 731.864L478.392 722.023L486.677 725.667ZM480.624 739.448L476.295 749.289L468.004 745.645L472.333 735.805L480.624 739.448ZM484.56 741.177L492.851 744.821L488.527 754.662L480.237 751.018L484.56 741.177ZM496.793 746.55L505.083 750.194L500.76 760.035L492.469 756.391L496.793 746.55ZM509.025 751.923L517.316 755.562L512.987 765.402L504.696 761.764L509.025 751.923ZM521.257 757.296L529.543 760.934L525.219 770.775L516.929 767.136L521.257 757.296ZM527.426 776.449L535.717 780.088L531.393 789.929L523.103 786.29L527.426 776.449ZM539.659 781.817L547.949 785.461L543.625 795.302L535.335 791.663L539.659 781.817ZM551.891 787.19L560.182 790.834L555.853 800.675L547.567 797.031L551.891 787.19ZM553.62 783.25L557.949 773.409L566.235 777.053L561.911 786.893L553.62 783.25ZM570.177 778.781L578.467 782.425L574.143 792.266L565.853 788.622L570.177 778.781ZM571.911 774.841L576.235 765L584.526 768.644L580.202 778.485L571.911 774.841ZM588.467 770.373L596.758 774.012L592.429 783.858L584.138 780.214L588.467 770.373ZM590.197 766.433L594.526 756.592L602.811 760.231L598.487 770.077L590.197 766.433ZM596.255 752.652L600.579 742.811L608.87 746.45L604.546 756.295L596.255 752.652ZM602.313 738.87L606.637 729.03L614.928 732.668L610.604 742.514L602.313 738.87ZM608.372 725.089L612.696 715.248L620.986 718.892L616.657 728.733L608.372 725.089ZM614.425 711.308L618.754 701.467L627.039 705.111L622.716 714.952L614.425 711.308ZM620.483 697.527L623.47 690.732L624.807 687.686L633.098 691.33L632.65 692.35L628.774 701.171L620.483 697.527ZM626.542 683.746L630.866 673.905L639.156 677.544L634.832 687.39L626.542 683.746ZM632.6 669.965L636.924 660.124L645.215 663.768L640.886 673.608L632.6 669.965ZM634.712 654.455L626.426 650.811L630.75 640.97L639.041 644.614L634.712 654.455ZM622.484 649.082L614.194 645.443L618.518 635.597L626.808 639.241L622.484 649.082ZM610.252 643.709L601.962 640.07L606.285 630.23L614.576 633.868L610.252 643.709ZM598.02 638.336L589.729 634.698L594.058 624.857L602.349 628.496L598.02 638.336ZM585.793 632.964L577.502 629.325L581.826 619.484L590.116 623.123L585.793 632.964ZM579.619 613.815L571.328 610.171L578.12 594.711C581.207 594.993 584.304 595.435 587.406 596.088L579.619 613.815ZM577.884 617.75L573.56 627.596L565.27 623.952L569.593 614.111L577.884 617.75ZM561.328 622.223L553.037 618.579L557.366 608.739L565.657 612.382L561.328 622.223ZM559.598 626.163L555.27 636.004L546.984 632.361L551.308 622.52L559.598 626.163ZM543.042 630.632L534.752 626.988L539.075 617.147L547.366 620.791L543.042 630.632ZM541.308 634.572L536.984 644.413L528.693 640.769L533.022 630.928L541.308 634.572ZM524.752 639.04L516.461 635.401L520.79 625.555L529.08 629.199L524.752 639.04ZM512.524 633.667L499.563 627.978C502.112 625.118 504.772 622.379 507.577 619.755L516.848 623.826L512.524 633.667ZM510.79 637.608L506.466 647.448L489.91 640.176C492.067 637.105 494.294 634.18 496.617 631.385L510.79 637.608ZM504.731 651.389L500.408 661.23L481.79 653.052C483.625 649.816 485.506 646.74 487.441 643.795L504.731 651.389ZM498.678 665.17L497.22 668.482L494.349 675.011L474.852 666.446C475.134 665.853 475.415 665.27 475.702 664.687C477.019 661.973 478.351 659.35 479.704 656.837L498.678 665.17ZM492.62 678.951L488.296 688.792L468.834 680.243C469.598 678.217 470.387 676.232 471.217 674.347C471.815 672.98 472.424 671.668 473.027 670.347L492.62 678.951ZM486.561 692.732L482.238 702.573L464.294 694.692C465.209 691.094 466.25 687.631 467.381 684.309L486.561 692.732ZM480.503 706.513L476.179 716.354L461.313 709.82C461.84 706.121 462.499 702.488 463.283 698.949L480.503 706.513ZM474.45 720.295L470.121 730.135L459.96 725.672C460.061 721.837 460.322 718.028 460.739 714.273L474.45 720.295ZM478.507 754.958L486.798 758.602L482.469 768.443L474.178 764.799L478.507 754.958ZM490.734 760.331L499.025 763.97L494.701 773.816L486.411 770.172L490.734 760.331ZM502.967 765.704L511.257 769.343L506.934 779.184L498.643 775.545L502.967 765.704ZM515.199 771.077L523.49 774.716L519.161 784.556L510.87 780.918L515.199 771.077ZM521.373 790.231L529.664 793.869L523.57 807.731L520.076 815.677C517.255 814.838 514.405 813.802 511.534 812.616L513.932 807.158L521.373 790.231ZM528.246 807.791L533.6 795.598L541.891 799.242L538.236 807.555L533.455 818.441C530.438 818.079 527.381 817.532 524.294 816.783L528.246 807.791ZM543.062 807.274L545.833 800.971L554.123 804.615L553.399 806.263L547.884 818.813C544.631 819.044 541.328 819.059 537.974 818.858L543.062 807.274ZM558.065 806.344L566.356 809.988L563.721 815.974C560.167 816.989 556.532 817.788 552.811 818.301L558.065 806.344ZM564.495 804.469L559.794 802.403L564.123 792.563L572.409 796.206L569.221 803.459L568.085 806.047L564.495 804.469ZM570.297 811.717L572.796 812.817C571.609 813.305 570.413 813.757 569.206 814.194L570.297 811.717ZM572.027 807.776L574.51 802.127L576.351 797.935L581.263 800.092L584.641 801.579L581.524 808.666C580.388 809.279 579.231 809.862 578.07 810.43L572.027 807.776ZM591.755 796.081L594.641 789.527L600.192 791.97L603.113 793.251C600.136 795.935 597.024 798.503 593.776 800.891L590.312 799.368L591.755 796.081ZM596.371 785.587L600.7 775.746L614.405 781.767C613.565 782.732 612.706 783.687 611.831 784.632C610.126 786.476 608.357 788.286 606.537 790.05L604.827 789.301L596.371 785.587ZM602.429 771.805L606.753 761.965L623.978 769.529C621.901 772.499 619.669 775.444 617.296 778.334L602.429 771.805ZM608.487 758.024L612.811 748.184L631.992 756.607C630.307 759.688 628.462 762.799 626.431 765.905L608.487 758.024ZM614.541 744.243L618.87 734.402L638.462 743.007C637.894 744.344 637.336 745.681 636.738 747.048C635.908 748.932 634.978 750.857 634.003 752.792L614.541 744.243ZM620.599 730.462L624.928 720.621L643.897 728.954C642.756 732.231 641.484 735.588 640.101 739.026L620.599 730.462ZM626.657 716.681L630.981 706.84L648.271 714.434C647.412 717.852 646.416 721.315 645.275 724.858L626.657 716.681ZM632.716 702.9L637.014 693.119L637.04 693.059L637.296 693.169L651.213 699.286C650.725 702.885 650.076 706.508 649.267 710.172L632.716 702.9ZM638.769 689.119L643.098 679.278L652.369 683.349C652.329 687.194 652.107 691.003 651.73 694.813L638.769 689.119ZM644.827 675.337L649.156 665.497L651.509 666.532C651.952 670.643 652.223 674.664 652.324 678.629L644.827 675.337ZM646.944 659.827L638.653 656.183L642.982 646.343L646.326 647.815C647.356 650.278 648.266 652.706 649.03 655.078L646.944 659.827ZM640.77 640.673L632.479 637.03L635.979 629.074C638.136 632.129 640.056 635.245 641.781 638.382L640.77 640.673ZM628.538 635.301L620.252 631.662L626.416 617.634C628.779 620.032 630.986 622.53 633.017 625.113L628.538 635.301ZM616.31 629.928L608.02 626.289L615.813 608.563C618.387 610.407 620.81 612.387 623.103 614.468L616.31 629.928ZM604.078 624.555L595.788 620.916L604.214 601.742C606.994 603.059 609.674 604.492 612.193 606.09L604.078 624.555ZM591.846 619.182L583.555 615.544L591.675 597.078C594.556 597.852 597.427 598.858 600.277 600.008L591.846 619.182ZM572.776 575.743C573.037 574.924 573.48 574.271 573.877 573.753C574.707 572.733 575.516 572.336 575.516 572.336C575.516 572.336 575.3 573.13 574.983 574.321C574.867 574.899 574.691 575.537 574.631 576.201C574.551 576.527 574.611 576.864 574.556 577.191C574.596 577.507 574.551 577.844 574.651 578.146C574.661 578.266 574.681 578.387 574.707 578.502C574.752 578.693 574.812 578.874 574.882 579.05C574.948 579.291 575.079 579.508 575.189 579.729C575.219 579.784 575.244 579.839 575.27 579.9C575.606 580.432 575.979 580.945 576.376 581.367C576.733 581.83 577.135 582.136 577.376 582.423C577.628 582.694 577.773 582.87 577.773 582.87C577.773 582.87 577.557 582.86 577.18 582.81C576.818 582.729 576.245 582.699 575.657 582.387C575.033 582.151 574.36 581.699 573.741 581.056C573.495 580.684 573.113 580.362 572.957 579.895C572.907 579.784 572.856 579.668 572.811 579.553C572.67 579.216 572.56 578.864 572.509 578.497C572.499 578.447 572.494 578.402 572.494 578.352C572.364 577.422 572.489 576.507 572.776 575.743ZM563.575 594.611C566.848 594.364 570.182 594.299 573.55 594.42L567.386 608.442L559.096 604.798L563.575 594.611ZM547.874 597.139C551.343 596.284 554.943 595.591 558.653 595.113L555.154 603.069L546.863 599.425L547.874 597.139ZM553.424 607.01L549.096 616.85L540.81 613.207L545.134 603.366L553.424 607.01ZM530.664 603.089C532.932 602.049 535.335 601.074 537.844 600.164L541.192 601.637L536.868 611.478L528.578 607.834L530.664 603.089ZM535.134 615.418L530.81 625.259L522.519 621.615L526.848 611.774L535.134 615.418ZM518.578 619.886L511.081 616.594C514.073 613.986 517.22 611.468 520.549 609.01L522.906 610.045L518.578 619.886ZM471.282 785.255C470.443 783.973 468.99 782.234 467.542 779.762C466.189 777.233 464.249 774.268 462.745 770.544C460.996 766.925 459.508 762.623 458.135 757.869C457.572 755.461 456.803 752.983 456.345 750.355C455.938 747.716 455.289 745.017 455.038 742.188C454.772 739.363 454.324 736.468 454.279 733.483C454.219 731.99 454.163 730.487 454.103 728.964C454.073 727.441 454.163 725.908 454.183 724.355C454.259 718.153 455.008 711.786 455.923 705.342C457.074 698.944 458.356 692.446 460.347 686.123C462.313 679.826 464.746 673.583 467.532 667.768C468.185 666.371 468.849 664.979 469.518 663.597C471.649 659.194 473.852 654.897 476.199 650.821C479.241 645.438 482.539 640.437 485.893 635.864C489.292 631.32 492.756 627.229 496.119 623.6C499.538 620.032 502.811 616.896 505.898 614.342C507.406 613.021 508.874 611.855 510.242 610.789C511.589 609.704 512.856 608.744 514.023 607.909C516.315 606.18 518.211 604.954 519.488 604.105C520.523 603.411 521.167 602.984 521.373 602.848C521.172 603.009 520.564 603.481 519.588 604.245C518.372 605.18 516.607 606.572 514.41 608.407C513.294 609.296 512.087 610.322 510.81 611.478C509.513 612.603 508.125 613.845 506.702 615.232C503.796 617.941 500.74 621.218 497.461 624.822C494.274 628.511 490.996 632.652 487.808 637.231C484.666 641.844 481.624 646.885 478.643 652.188C476.501 656.013 474.49 660.018 472.544 664.135C471.775 665.743 471.026 667.371 470.277 669.01C467.557 674.85 465.31 680.861 463.429 687.068C461.413 693.225 460.091 699.578 458.889 705.835C457.924 712.132 457.119 718.375 456.979 724.446C456.938 725.964 456.833 727.467 456.848 728.959C456.868 730.447 456.888 731.925 456.913 733.387C456.858 736.312 457.2 739.157 457.366 741.936C457.517 744.721 458.07 747.379 458.381 749.983C458.743 752.581 459.417 755.029 459.885 757.416C460.357 759.804 461.207 761.985 461.77 764.136C462.308 766.297 463.163 768.222 463.847 770.082C465.129 773.851 466.863 776.836 468.07 779.43C469.392 781.958 470.674 783.828 471.428 785.159C472.122 786.31 472.534 786.989 472.625 787.14C472.514 786.989 472.052 786.341 471.282 785.255ZM469.814 774.731L472.449 768.74L480.739 772.383L475.486 784.34C473.344 781.254 471.473 778.038 469.814 774.731ZM485.108 795.639C482.69 793.307 480.463 790.859 478.437 788.311L484.681 774.112L492.967 777.751L485.108 795.639ZM495.993 804.072L495.888 804.308C495.672 804.163 495.46 804.022 495.249 803.876C492.851 802.233 490.594 800.499 488.472 798.684L496.908 779.485L505.199 783.124L495.993 804.072ZM500.252 805.082L509.141 784.858L517.431 788.497L509.452 806.655L507.592 810.887C504.777 809.57 502.082 808.173 499.558 806.66L500.252 805.082ZM654.385 627.229C654.556 627.837 654.757 628.526 654.978 629.29C654.983 629.295 654.983 629.3 654.983 629.305C655.516 631.079 656.165 633.26 656.808 635.849C656.874 636.115 656.939 636.381 657.004 636.653C658.09 640.729 659.232 645.725 660.403 651.494C661.469 657.274 662.625 663.833 663.118 671.08C663.329 673.056 663.425 675.086 663.495 677.162C663.555 678.881 663.596 680.63 663.661 682.404C663.586 686.319 663.571 690.38 663.178 694.537C663.093 695.577 663.002 696.627 662.892 697.683C662.148 705.041 660.795 712.675 658.734 720.37C656.391 729.15 653.198 738.046 649.579 746.832C647.799 751.194 645.828 755.687 643.601 759.969C641.333 764.256 638.895 768.473 636.24 772.549C630.835 780.636 624.787 788.301 618.095 795.146C611.434 802.022 604.239 808.188 596.662 813.29C589.116 818.426 581.207 822.522 573.324 825.357C565.451 828.212 557.648 829.885 550.388 830.564C543.118 831.283 536.391 830.956 530.554 830.061C527.612 829.76 524.933 829.021 522.429 828.564C519.955 827.925 517.703 827.287 515.672 826.709C513.676 826.005 511.896 825.377 510.347 824.834C508.804 824.276 507.557 823.658 506.511 823.231C504.696 822.447 503.625 821.985 503.384 821.879C503.63 821.969 504.726 822.382 506.577 823.07C507.637 823.442 508.925 824 510.488 824.477C512.047 824.95 513.842 825.498 515.848 826.111C517.889 826.608 520.146 827.156 522.615 827.699C525.119 828.061 527.783 828.689 530.699 828.875C536.491 829.534 543.098 829.589 550.197 828.765C557.296 827.935 564.872 826.126 572.494 823.161C580.136 820.225 587.718 816.009 595.084 810.983C602.449 805.942 609.453 799.85 615.928 793.065C622.434 786.305 628.312 778.741 633.54 770.78C636.16 766.8 638.588 762.698 640.835 758.522C643.063 754.31 644.963 750.068 646.803 745.666C650.463 736.961 653.651 728.286 656.029 719.636C658.08 712.027 659.594 704.518 660.494 697.261C660.619 696.276 660.73 695.3 660.83 694.325C660.996 692.928 661.117 691.536 661.208 690.159C661.394 687.52 661.474 684.927 661.585 682.389C661.529 678.529 661.6 674.785 661.308 671.206C660.946 664.034 660.046 657.49 659.217 651.7C658.271 645.926 657.321 640.905 656.391 636.798C656.13 635.532 655.873 634.351 655.627 633.26C655.189 631.32 654.782 629.662 654.455 628.305C654.37 627.938 654.289 627.596 654.214 627.274C653.757 625.354 653.485 624.213 653.425 623.962C653.5 624.213 653.832 625.334 654.385 627.229ZM652.469 652.123C652.831 653.676 653.203 655.007 653.379 656.143C653.762 658.254 653.943 659.516 653.963 659.666C653.907 659.526 653.46 658.32 652.776 656.309C652.449 655.224 651.891 653.957 651.328 652.489C650.78 651.017 650.001 649.414 649.252 647.639C648.508 645.86 647.492 644.026 646.577 642.025C645.491 640.1 644.475 638.015 643.214 635.969C642.595 634.944 642.007 633.873 641.333 632.843C640.659 631.808 639.976 630.767 639.287 629.712C638.628 628.641 637.834 627.651 637.11 626.606C636.371 625.565 635.627 624.53 634.807 623.555L632.444 620.545C631.61 619.59 630.775 618.64 629.945 617.695C628.266 615.83 626.562 614.036 624.847 612.367C623.083 610.754 621.439 609.105 619.714 607.743C618.055 606.296 616.401 605.029 614.847 603.889C613.329 602.692 611.846 601.758 610.549 600.868C609.9 600.426 609.287 600.014 608.724 599.637C608.125 599.295 607.577 598.978 607.085 598.697C605.119 597.551 604.013 596.857 604.013 596.857C604.013 596.857 605.24 597.299 607.356 598.134C607.889 598.345 608.472 598.581 609.111 598.837C609.729 599.139 610.403 599.466 611.117 599.818C612.55 600.521 614.224 601.275 615.868 602.351C616.713 602.863 617.593 603.396 618.503 603.949C619.402 604.517 620.267 605.2 621.192 605.849C623.068 607.13 624.893 608.673 626.768 610.282C627.738 611.061 628.588 611.985 629.528 612.85C630.438 613.734 631.403 614.599 632.243 615.589C633.113 616.554 633.988 617.529 634.868 618.504L637.356 621.575C638.196 622.595 638.945 623.681 639.689 624.761C640.423 625.852 641.228 626.887 641.896 628.003C643.299 630.184 644.571 632.396 645.702 634.592C646.929 636.733 647.804 638.97 648.764 641.005C649.574 643.116 650.413 645.076 650.981 646.966C651.59 648.841 652.138 650.554 652.469 652.123Z" stroke="white" stroke-width="2" stroke-miterlimit="10"/>
<path d="M886 231L862.59 363.822L799.517 721.754L799.251 721.709C799.03 723.598 798.788 725.483 798.527 727.373L794.743 748.849C791.622 763.424 787.39 777.814 782.083 791.806C767.755 829.567 746.174 863.442 719.151 891.271C702.028 908.907 682.714 924.111 661.676 936.334C624.446 957.966 583.084 969.4 542.059 969.4C515.036 969.4 488.565 964.555 463.386 955.001C438.378 945.511 415.501 931.685 395.373 913.898C387.186 906.67 379.522 898.825 372.425 890.442C366.023 882.882 360.087 874.886 354.644 866.498C343.166 848.806 333.888 829.386 327.133 808.724C314.926 771.391 311.132 730.258 316.157 689.753C316.172 689.663 316.182 689.572 316.192 689.482C318.343 672.288 322.057 655.2 327.279 638.483L459.833 661.859C458.888 664.05 457.988 666.277 457.134 668.534C457.114 668.594 457.089 668.649 457.069 668.709C450.53 683.767 445.696 703.057 444.861 723.186L444.831 723.729C444.178 741.018 446.495 758.896 453.239 775.226C459.582 790.605 469.854 804.612 485.273 815.449C489.505 818.424 494.129 821.163 499.164 823.621C500.516 824.284 501.898 824.928 503.311 825.546C549.462 845.826 589.954 827.385 617.852 799.752L618.028 799.833L618.234 799.365C632.643 784.986 643.664 768.174 650.308 753.046C659.008 733.248 664.28 715.853 666.265 698.257C666.873 692.94 667.175 687.607 667.185 682.179C667.195 675.63 666.773 668.956 665.928 662.015C665.898 661.748 665.863 661.477 665.828 661.206C664.345 649.44 661.651 636.925 657.786 623.043C647.167 584.931 652.927 524.619 655.525 502.882C660.993 499.328 667.144 493.322 671.612 483.139C672.899 480.209 674.532 476.5 676.397 472.248C681.357 460.965 687.996 445.846 694.404 431.266C703.305 411.006 711.758 391.772 714.623 385.238C714.623 385.238 714.628 385.233 714.628 385.228C715.01 384.363 715.291 383.725 715.462 383.333C718.206 377.096 723.729 374.432 726.9 367.21C727.378 366.119 727.147 364.983 726.408 363.837H727.79V363.807H726.388C725.141 361.882 722.483 359.932 719.392 358.143C716.562 356.504 713.376 355.002 710.582 353.77C702.902 350.398 691.665 346.246 689.645 350.84C687.564 355.585 687.614 359.746 687.117 363.807C687.112 363.817 687.112 363.832 687.112 363.842C686.85 365.953 686.438 368.044 685.503 370.17C683.885 373.854 672.431 399.934 661.229 425.421L560.373 407.649L568.102 363.852V363.807L588.326 249.219L591.537 231.025L751.129 231.01H751.225L886 231Z" fill="white" stroke="white" stroke-width="2" stroke-miterlimit="10"/>
</svg>
