<svg width="2004" height="704" viewBox="0 0 2004 704" fill="none" xmlns="http://www.w3.org/2000/svg">
<path d="M623.477 173.05C623.477 173.05 623.497 173.06 623.507 173.06C624.067 173.37 624.497 173.64 624.847 173.88L624.987 173.06L623.477 173.05ZM605.027 203.56L597.787 221.12L593.477 231.56L598.257 221.33L606.437 203.81L605.027 203.56ZM628.797 173.06C628.797 173.06 628.797 173.06 628.797 173.05C628.207 172.14 626.947 171.21 625.477 170.36C624.137 169.58 622.617 168.87 621.297 168.28C617.647 166.68 612.317 164.71 611.357 166.89C610.367 169.14 610.397 171.12 610.157 173.05C610.157 173.05 610.157 173.06 610.157 173.07C610.037 174.07 609.837 175.06 609.397 176.07C608.627 177.82 603.187 190.2 597.877 202.3C595.337 208.09 592.817 213.81 590.857 218.28C589.967 220.3 589.197 222.06 588.587 223.45C586.467 228.28 586.337 232.36 586.847 235.41C580.077 243.3 560.817 264.69 544.107 273.21C532.327 279.21 523.737 285.11 516.867 292.42C511.127 298.53 506.597 305.62 502.417 314.57C501.957 315.55 501.507 316.55 501.057 317.57C501.027 317.65 500.987 317.72 500.957 317.8C497.857 324.95 495.557 334.11 495.157 343.66V343.92C494.837 352.13 495.937 360.61 499.137 368.37C502.147 375.67 507.027 382.32 514.347 387.47C516.357 388.88 518.547 390.18 520.937 391.35C521.577 391.66 522.237 391.97 522.907 392.26C544.817 401.89 564.037 393.13 577.287 380.02L577.367 380.06L577.467 379.84C584.307 373.01 589.537 365.03 592.697 357.85C596.827 348.45 599.327 340.19 600.277 331.84C600.567 329.32 600.707 326.78 600.717 324.21C600.717 321.1 600.517 317.93 600.117 314.64C600.107 314.51 600.087 314.38 600.067 314.26C599.367 308.67 598.087 302.73 596.247 296.14C591.207 278.05 593.937 249.42 595.177 239.1C597.777 237.41 600.697 234.56 602.817 229.73C603.427 228.34 604.207 226.58 605.087 224.56C607.437 219.2 610.597 212.03 613.637 205.1C617.867 195.48 621.877 186.35 623.237 183.25C623.417 182.84 623.547 182.54 623.637 182.35C624.937 179.39 627.557 178.12 629.067 174.7C629.297 174.18 629.187 173.64 628.837 173.1L628.797 173.06ZM583.817 246.3C584.167 245.97 584.647 245.63 585.267 245.46C585.577 245.37 585.917 245.32 586.267 245.35C586.447 245.37 586.637 245.41 586.827 245.44L587.257 245.58C587.487 245.69 587.587 245.76 587.757 245.85C587.897 245.95 588.037 246.06 588.177 246.17C588.437 246.41 588.627 246.7 588.777 246.99C589.067 247.57 589.147 248.16 589.127 248.63C589.107 249.59 588.797 250.15 588.797 250.15C588.797 250.15 588.747 249.52 588.527 248.7C588.407 248.29 588.237 247.84 587.967 247.45C587.837 247.25 587.657 247.09 587.487 246.93L587.197 246.72C587.097 246.67 586.937 246.6 586.907 246.57L586.487 246.42L586.177 246.36C585.937 246.35 585.707 246.32 585.467 246.36C584.997 246.42 584.547 246.6 584.167 246.79C583.407 247.18 582.907 247.56 582.907 247.56C582.907 247.56 583.117 246.96 583.817 246.3ZM558.667 272.43C568.777 264.98 578.497 255.23 584.877 248.36C585.407 247.79 586.037 248 586.217 248.08C586.397 248.16 586.977 248.48 586.917 249.26C586.167 258.6 585.557 272.35 586.917 284.84C586.997 285.59 586.697 286.27 586.097 286.72C585.877 286.88 585.637 287 585.387 287.06C585.127 287.13 584.857 287.15 584.597 287.12C584.417 287.1 584.237 287.05 584.067 286.97C583.877 286.88 583.687 286.76 583.517 286.61C581.907 285.19 580.237 283.89 578.497 282.75C576.547 281.46 574.517 280.36 572.437 279.44C570.327 278.51 568.107 277.76 565.807 277.19C563.817 276.69 561.767 276.34 559.657 276.12C559.427 276.1 559.217 276.04 559.027 275.96C558.867 275.89 558.717 275.8 558.587 275.69C558.377 275.52 558.207 275.3 558.087 275.06C557.967 274.83 557.887 274.57 557.857 274.29C557.777 273.55 558.077 272.86 558.687 272.41L558.667 272.43ZM562.217 378.98L558.287 377.25L560.337 372.58L564.267 374.31L562.217 378.98ZM563.777 381.89C563.497 382.08 563.217 382.25 562.937 382.43L563.277 381.67L563.787 381.89H563.777ZM504.237 361.31C504.067 360.72 503.897 360.13 503.747 359.53L505.227 356.16L509.157 357.89L507.107 362.56L504.237 361.3V361.31ZM506.277 364.44L505.757 365.62C505.517 365.06 505.297 364.49 505.087 363.92L506.277 364.44ZM502.527 352.75C502.317 350.85 502.217 348.94 502.197 347.03L506.217 348.8L504.167 353.47L502.527 352.75ZM503.347 355.34L503.007 356.1C502.947 355.77 502.887 355.44 502.837 355.11L503.347 355.33V355.34ZM538.887 337.5L534.957 335.77L537.007 331.1L540.937 332.83L538.887 337.5ZM542.817 333.65L546.747 335.38L544.697 340.05L540.767 338.32L542.817 333.65ZM538.067 339.37L536.017 344.04L532.087 342.31L534.137 337.64L538.067 339.37ZM539.937 340.2L543.867 341.93L541.817 346.6L537.887 344.87L539.937 340.2ZM545.747 342.75L549.677 344.48L547.627 349.15L543.697 347.42L545.747 342.75ZM546.567 340.88L548.617 336.21L552.547 337.94L550.497 342.61L546.567 340.88ZM549.437 334.33L551.487 329.66L555.417 331.39L553.367 336.06L549.437 334.33ZM554.417 338.75L558.347 340.48L556.297 345.15L552.367 343.42L554.417 338.75ZM555.247 336.88L557.297 332.21L561.227 333.94L559.177 338.61L555.247 336.88ZM558.117 330.34L560.167 325.67L564.097 327.4L562.047 332.07L558.117 330.34ZM560.997 323.8L563.047 319.13L566.977 320.86L564.927 325.53L560.997 323.8ZM559.117 322.98L555.187 321.25L557.237 316.58L561.167 318.31L559.117 322.98ZM556.707 324.15L558.297 324.85L556.247 329.52L552.317 327.79L554.117 323.69L554.367 323.12L556.717 324.15H556.707ZM552.047 323.33L550.447 326.97L546.517 325.24L547.697 322.56L548.567 320.57L552.497 322.3L552.047 323.33ZM549.617 328.84L547.567 333.51L543.637 331.78L545.687 327.11L549.617 328.84ZM541.767 330.96L537.837 329.23L539.887 324.56L543.817 326.29L541.767 330.96ZM535.957 328.41L532.027 326.68L534.077 322.01L538.007 323.74L535.957 328.41ZM535.137 330.28L533.087 334.95L529.157 333.22L531.207 328.55L535.137 330.28ZM532.267 336.82L530.217 341.49L526.287 339.76L528.337 335.09L532.267 336.82ZM529.387 343.37L527.337 348.04L523.407 346.31L525.457 341.64L529.387 343.37ZM531.257 344.19L535.187 345.92L533.137 350.59L529.207 348.86L531.257 344.19ZM537.067 346.74L540.997 348.47L538.947 353.14L535.017 351.41L537.067 346.74ZM539.997 355.83L543.927 357.56L541.877 362.23L537.947 360.5L539.997 355.83ZM540.817 353.96L542.867 349.29L546.797 351.02L544.747 355.69L540.817 353.96ZM548.667 351.84L552.597 353.57L550.547 358.24L546.617 356.51L548.667 351.84ZM549.497 349.97L551.547 345.3L555.477 347.03L553.427 351.7L549.497 349.97ZM557.347 347.85L561.277 349.58L559.227 354.25L555.297 352.52L557.347 347.85ZM558.177 345.98L560.227 341.31L564.157 343.04L562.107 347.71L558.177 345.98ZM561.047 339.43L563.097 334.76L567.027 336.49L564.977 341.16L561.047 339.43ZM563.927 332.89L565.977 328.22L569.907 329.95L567.857 334.62L563.927 332.89ZM566.797 326.35L566.967 325.96L568.847 321.68L572.777 323.41L571.317 326.73L570.727 328.08L566.797 326.35ZM569.667 319.81L571.717 315.14L575.647 316.87L573.597 321.54L569.667 319.81ZM567.797 318.98L563.867 317.25L565.917 312.58L569.847 314.31L567.797 318.98ZM561.997 316.43L558.067 314.7L560.117 310.03L564.047 311.76L561.997 316.43ZM556.187 313.88L552.257 312.15L554.307 307.48L558.237 309.21L556.187 313.88ZM555.367 315.75L553.317 320.42L549.387 318.69L551.437 314.02L555.367 315.75ZM547.517 317.88L543.587 316.15L545.637 311.48L549.567 313.21L547.517 317.88ZM546.687 319.75L545.617 322.2L544.637 324.43L540.707 322.7L541.267 321.44L542.767 318.03L546.697 319.76L546.687 319.75ZM539.187 321.06L538.827 321.87L535.517 320.41L534.897 320.14L536.947 315.47L540.877 317.2L539.177 321.06H539.187ZM533.027 319.32L529.097 317.59L531.147 312.92L535.077 314.65L533.027 319.32ZM532.207 321.19L530.157 325.86L526.227 324.13L528.277 319.46L532.207 321.19ZM529.337 327.73L527.287 332.4L523.357 330.67L525.407 326L529.337 327.73ZM526.457 334.27L524.407 338.94L520.477 337.21L522.527 332.54L526.457 334.27ZM523.587 340.82L521.537 345.49L517.607 343.76L519.657 339.09L523.587 340.82ZM520.707 347.36L518.657 352.03L514.727 350.3L516.777 345.63L520.707 347.36ZM522.577 348.18L526.507 349.91L524.457 354.58L520.527 352.85L522.577 348.18ZM528.387 350.73L532.317 352.46L530.267 357.13L526.337 355.4L528.387 350.73ZM534.187 353.28L538.117 355.01L536.067 359.68L532.137 357.95L534.187 353.28ZM537.117 362.37L541.047 364.1L538.997 368.77L535.067 367.04L537.117 362.37ZM542.927 364.92L546.857 366.65L544.807 371.32L540.877 369.59L542.927 364.92ZM543.747 363.05L545.797 358.38L549.727 360.11L547.677 364.78L543.747 363.05ZM551.597 360.93L555.527 362.66L553.477 367.33L549.547 365.6L551.597 360.93ZM552.427 359.06L554.477 354.39L558.407 356.12L556.357 360.79L552.427 359.06ZM560.277 356.94L564.207 358.67L562.157 363.34L558.227 361.61L560.277 356.94ZM561.107 355.07L563.157 350.4L567.087 352.13L565.037 356.8L561.107 355.07ZM563.977 348.53L566.027 343.86L569.957 345.59L567.907 350.26L563.977 348.53ZM566.857 341.98L568.907 337.31L572.837 339.04L570.787 343.71L566.857 341.98ZM569.727 335.44L571.777 330.77L575.707 332.5L573.657 337.17L569.727 335.44ZM572.597 328.9L573.387 327.09L574.647 324.22L578.577 325.95L577.737 327.85L576.517 330.62L572.587 328.89L572.597 328.9ZM575.477 322.36L577.527 317.69L581.457 319.42L579.407 324.09L575.477 322.36ZM578.347 315.81L580.397 311.14L584.327 312.87L582.277 317.54L578.347 315.81ZM576.477 314.99L572.547 313.26L574.597 308.59L578.527 310.32L576.477 314.99ZM570.677 312.44L566.747 310.71L568.797 306.04L572.727 307.77L570.677 312.44ZM564.877 309.89L560.947 308.16L562.997 303.49L566.927 305.22L564.877 309.89ZM559.067 307.34L555.137 305.61L557.187 300.94L561.117 302.67L559.067 307.34ZM553.257 304.79L549.327 303.06L551.377 298.39L555.307 300.12L553.257 304.79ZM552.437 306.66L550.387 311.33L546.457 309.6L548.507 304.93L552.437 306.66ZM544.587 308.78L540.657 307.05L542.707 302.38L546.637 304.11L544.587 308.78ZM543.757 310.66L541.707 315.33L537.777 313.6L539.827 308.93L543.757 310.66ZM535.907 312.78L531.977 311.05L534.027 306.38L537.957 308.11L535.907 312.78ZM530.097 310.23L526.167 308.5L528.217 303.83L532.147 305.56L530.097 310.23ZM529.277 312.1L527.227 316.77L523.297 315.04L525.347 310.37L529.277 312.1ZM526.407 318.64L526.337 318.8L524.347 323.32L520.417 321.59L521.977 318.03L522.467 316.91L526.397 318.64H526.407ZM523.527 325.18L521.477 329.85L517.547 328.12L519.597 323.45L523.527 325.18ZM520.657 331.72L518.607 336.39L514.677 334.66L516.727 329.99L520.657 331.72ZM517.777 338.27L515.727 342.94L511.797 341.21L513.847 336.54L517.777 338.27ZM514.907 344.81L512.857 349.48L508.927 347.75L510.977 343.08L514.907 344.81ZM512.027 351.35L509.977 356.02L506.047 354.29L508.097 349.62L512.027 351.35ZM513.897 352.17L517.827 353.9L515.777 358.57L511.847 356.84L513.897 352.17ZM519.707 354.72L523.637 356.45L521.587 361.12L517.657 359.39L519.707 354.72ZM525.507 357.27L529.437 359L527.387 363.67L523.457 361.94L525.507 357.27ZM531.317 359.82L535.247 361.55L533.197 366.22L529.267 364.49L531.317 359.82ZM534.247 368.92L538.177 370.65L536.127 375.32L532.197 373.59L534.247 368.92ZM540.047 371.46L543.977 373.19L541.927 377.86L537.997 376.13L540.047 371.46ZM545.857 374.02L549.787 375.75L547.737 380.42L543.807 378.69L545.857 374.02ZM546.677 372.14L548.727 367.47L552.657 369.2L550.607 373.87L546.677 372.14ZM554.527 370.02L558.457 371.75L556.407 376.42L552.477 374.69L554.527 370.02ZM555.357 368.15L557.407 363.48L561.337 365.21L559.287 369.88L555.357 368.15ZM563.207 366.03L567.137 367.76L565.087 372.43L561.157 370.7L563.207 366.03ZM564.037 364.16L566.087 359.49L570.017 361.22L567.967 365.89L564.037 364.16ZM566.907 357.62L568.957 352.95L572.887 354.68L570.837 359.35L566.907 357.62ZM569.787 351.08L571.837 346.41L575.767 348.14L573.717 352.81L569.787 351.08ZM572.657 344.53L574.707 339.86L578.637 341.59L576.587 346.26L572.657 344.53ZM575.527 337.99L577.577 333.32L581.507 335.05L579.457 339.72L575.527 337.99ZM578.407 331.45L579.827 328.22L580.457 326.77L584.387 328.5L584.177 328.98L582.337 333.17L578.407 331.44V331.45ZM581.277 324.91L583.327 320.24L587.257 321.97L585.207 326.64L581.277 324.91ZM584.157 318.36L586.207 313.69L590.137 315.42L588.087 320.09L584.157 318.36ZM585.157 311L581.227 309.27L583.277 304.6L587.207 306.33L585.157 311ZM579.357 308.45L575.427 306.72L577.477 302.05L581.407 303.78L579.357 308.45ZM573.547 305.9L569.617 304.17L571.667 299.5L575.597 301.23L573.547 305.9ZM567.747 303.35L563.817 301.62L565.867 296.95L569.797 298.68L567.747 303.35ZM561.947 300.8L558.017 299.07L560.067 294.4L563.997 296.13L561.947 300.8ZM559.017 291.71L555.087 289.98L558.307 282.64C559.777 282.77 561.237 282.98 562.717 283.29L559.017 291.71ZM558.187 293.58L556.137 298.25L552.207 296.52L554.257 291.85L558.187 293.58ZM550.327 295.7L546.397 293.97L548.447 289.3L552.377 291.03L550.327 295.7ZM549.507 297.57L547.457 302.24L543.527 300.51L545.577 295.84L549.507 297.57ZM541.657 299.69L537.727 297.96L539.777 293.29L543.707 295.02L541.657 299.69ZM540.827 301.56L538.777 306.23L534.847 304.5L536.897 299.83L540.827 301.56ZM532.977 303.68L529.047 301.95L531.097 297.28L535.027 299.01L532.977 303.68ZM527.167 301.13L521.017 298.43C522.227 297.07 523.487 295.77 524.817 294.53L529.217 296.46L527.167 301.13ZM526.347 303L524.297 307.67L516.437 304.22C517.457 302.76 518.517 301.37 519.617 300.05L526.347 303ZM523.477 309.55L521.427 314.22L512.587 310.34C513.457 308.8 514.347 307.34 515.267 305.95L523.477 309.56V309.55ZM520.597 316.09L519.907 317.66L518.547 320.76L509.297 316.69C509.427 316.41 509.567 316.13 509.697 315.85C510.327 314.56 510.957 313.32 511.597 312.12L520.597 316.08V316.09ZM517.727 322.63L515.677 327.3L506.437 323.24C506.797 322.28 507.177 321.34 507.567 320.44C507.847 319.79 508.137 319.17 508.427 318.54L517.727 322.62V322.63ZM514.847 329.17L512.797 333.84L504.277 330.1C504.707 328.39 505.207 326.75 505.737 325.17L514.837 329.17H514.847ZM511.977 335.72L509.927 340.39L502.867 337.29C503.117 335.53 503.427 333.81 503.807 332.13L511.977 335.72ZM509.097 342.26L507.047 346.93L502.227 344.81C502.277 342.99 502.397 341.18 502.597 339.4L509.107 342.26H509.097ZM511.027 358.71L514.957 360.44L512.907 365.11L508.977 363.38L511.027 358.71ZM516.827 361.26L520.757 362.99L518.707 367.66L514.777 365.93L516.827 361.26ZM522.637 363.82L526.567 365.55L524.517 370.22L520.587 368.49L522.637 363.82ZM528.437 366.37L532.367 368.1L530.317 372.77L526.387 371.04L528.437 366.37ZM531.367 375.46L535.297 377.19L532.407 383.77L530.747 387.54C529.407 387.14 528.057 386.65 526.697 386.09L527.837 383.5L531.367 375.46ZM534.627 383.8L537.167 378.01L541.097 379.74L539.367 383.69L537.097 388.86C535.667 388.69 534.217 388.43 532.747 388.07L534.627 383.8ZM541.667 383.55L542.977 380.56L546.907 382.29L546.567 383.07L543.947 389.03C542.407 389.14 540.837 389.15 539.247 389.05L541.657 383.55H541.667ZM548.787 383.11L552.717 384.84L551.467 387.68C549.777 388.16 548.057 388.54 546.287 388.78L548.777 383.1L548.787 383.11ZM551.837 382.22L549.607 381.24L551.657 376.57L555.587 378.3L554.077 381.74L553.537 382.97L551.837 382.22ZM554.587 385.66L555.777 386.18C555.217 386.41 554.647 386.63 554.077 386.83L554.597 385.65L554.587 385.66ZM555.407 383.79L556.587 381.11L557.457 379.12L559.787 380.14L561.387 380.85L559.907 384.21C559.367 384.5 558.817 384.78 558.267 385.05L555.397 383.79H555.407ZM564.767 378.24L566.137 375.13L568.767 376.29L570.157 376.9C568.747 378.17 567.267 379.39 565.727 380.53L564.087 379.81L564.767 378.25V378.24ZM566.967 373.25L569.017 368.58L575.517 371.44C575.117 371.9 574.707 372.35 574.297 372.8C573.487 373.68 572.647 374.53 571.787 375.37L570.977 375.01L566.967 373.25ZM569.837 366.71L571.887 362.04L580.057 365.63C579.067 367.04 578.017 368.44 576.887 369.81L569.827 366.71H569.837ZM572.717 360.17L574.767 355.5L583.867 359.5C583.067 360.96 582.197 362.44 581.227 363.91L572.707 360.17H572.717ZM575.587 353.63L577.637 348.96L586.937 353.04C586.667 353.67 586.407 354.31 586.117 354.96C585.727 355.85 585.277 356.77 584.817 357.69L575.577 353.63H575.587ZM578.457 347.08L580.507 342.41L589.507 346.37C588.967 347.93 588.357 349.52 587.707 351.15L578.447 347.08H578.457ZM581.337 340.54L583.387 335.87L591.597 339.48C591.187 341.1 590.717 342.75 590.177 344.43L581.337 340.55V340.54ZM584.207 334L586.247 329.36V329.33L586.377 329.38L592.977 332.28C592.747 333.99 592.437 335.71 592.057 337.45L584.207 334ZM587.087 327.46L589.137 322.79L593.537 324.72C593.517 326.55 593.417 328.35 593.237 330.16L587.087 327.46ZM589.957 320.92L592.007 316.25L593.127 316.74C593.337 318.69 593.467 320.6 593.517 322.48L589.957 320.92ZM590.967 313.55L587.037 311.82L589.087 307.15L590.677 307.85C591.167 309.02 591.597 310.17 591.957 311.3L590.967 313.55ZM588.037 304.46L584.107 302.73L585.767 298.95C586.787 300.4 587.707 301.88 588.517 303.37L588.037 304.46ZM582.227 301.91L578.297 300.18L581.227 293.52C582.347 294.66 583.397 295.84 584.357 297.07L582.227 301.91ZM576.427 299.36L572.497 297.63L576.197 289.21C577.417 290.09 578.567 291.03 579.657 292.01L576.437 299.35L576.427 299.36ZM570.617 296.81L566.687 295.08L570.687 285.98C572.007 286.61 573.277 287.29 574.477 288.04L570.627 296.81H570.617ZM564.817 294.26L560.887 292.53L564.737 283.76C566.107 284.13 567.467 284.6 568.817 285.15L564.817 294.25V294.26ZM555.767 273.63C555.887 273.24 556.097 272.93 556.287 272.69C556.677 272.21 557.067 272.02 557.067 272.02C557.067 272.02 556.967 272.4 556.817 272.96C556.767 273.23 556.677 273.54 556.647 273.85C556.607 274.01 556.647 274.16 556.607 274.32C556.627 274.47 556.607 274.63 556.657 274.77C556.657 274.83 556.667 274.88 556.687 274.94C556.707 275.03 556.737 275.12 556.767 275.2C556.797 275.31 556.857 275.42 556.917 275.52C556.927 275.55 556.947 275.57 556.957 275.6C557.117 275.85 557.297 276.1 557.477 276.3C557.647 276.52 557.837 276.67 557.947 276.8C558.067 276.93 558.137 277.01 558.137 277.01C558.137 277.01 558.037 277.01 557.857 276.98C557.687 276.94 557.417 276.93 557.137 276.78C556.837 276.67 556.517 276.45 556.227 276.15C556.107 275.97 555.927 275.82 555.857 275.6C555.837 275.55 555.807 275.49 555.787 275.44C555.717 275.28 555.667 275.11 555.647 274.94C555.647 274.92 555.647 274.89 555.647 274.87C555.587 274.43 555.647 273.99 555.777 273.63H555.767ZM551.397 282.59C552.947 282.47 554.537 282.44 556.127 282.5L553.197 289.16L549.267 287.43L551.397 282.59ZM543.947 283.79C545.597 283.38 547.297 283.06 549.067 282.83L547.407 286.61L543.477 284.88L543.957 283.79H543.947ZM546.577 288.48L544.527 293.15L540.597 291.42L542.647 286.75L546.577 288.48ZM535.777 286.62C536.857 286.13 537.997 285.66 539.187 285.23L540.777 285.93L538.727 290.6L534.797 288.87L535.787 286.62H535.777ZM537.897 292.47L535.847 297.14L531.917 295.41L533.967 290.74L537.897 292.47ZM530.047 294.59L526.487 293.03C527.907 291.79 529.397 290.6 530.977 289.43L532.097 289.92L530.047 294.59ZM507.597 373.1C507.197 372.49 506.507 371.67 505.817 370.49C505.177 369.29 504.257 367.88 503.537 366.11C502.707 364.39 501.997 362.35 501.347 360.09C501.077 358.95 500.717 357.77 500.497 356.52C500.307 355.27 499.997 353.99 499.877 352.64C499.747 351.3 499.537 349.92 499.517 348.51C499.487 347.8 499.467 347.09 499.437 346.36C499.427 345.64 499.467 344.91 499.477 344.17C499.517 341.23 499.867 338.2 500.307 335.14C500.857 332.1 501.457 329.02 502.407 326.02C503.337 323.03 504.497 320.07 505.817 317.31C506.127 316.65 506.447 315.99 506.757 315.33C507.767 313.24 508.817 311.2 509.927 309.26C511.367 306.7 512.937 304.33 514.527 302.16C516.137 300 517.787 298.06 519.377 296.34C520.997 294.65 522.557 293.16 524.017 291.94C524.737 291.31 525.427 290.76 526.077 290.25C526.717 289.73 527.317 289.28 527.867 288.88C528.957 288.06 529.857 287.48 530.457 287.07C530.947 286.74 531.257 286.54 531.347 286.47C531.247 286.55 530.967 286.77 530.497 287.13C529.917 287.57 529.087 288.23 528.037 289.11C527.507 289.53 526.937 290.02 526.327 290.57C525.707 291.1 525.057 291.69 524.377 292.35C522.997 293.64 521.547 295.19 519.987 296.9C518.477 298.65 516.917 300.62 515.407 302.79C513.917 304.98 512.477 307.37 511.057 309.89C510.037 311.71 509.087 313.61 508.167 315.56C507.797 316.32 507.447 317.1 507.087 317.87C505.797 320.64 504.727 323.5 503.837 326.44C502.877 329.36 502.257 332.38 501.687 335.35C501.227 338.34 500.847 341.3 500.777 344.19C500.757 344.91 500.707 345.62 500.717 346.33C500.717 347.04 500.737 347.74 500.747 348.43C500.717 349.82 500.887 351.17 500.957 352.49C501.027 353.81 501.287 355.07 501.437 356.31C501.607 357.54 501.927 358.71 502.147 359.84C502.367 360.97 502.777 362.01 503.037 363.03C503.297 364.06 503.697 364.97 504.027 365.85C504.637 367.64 505.457 369.06 506.027 370.29C506.657 371.49 507.267 372.38 507.617 373.01C507.947 373.56 508.137 373.88 508.187 373.95C508.137 373.88 507.917 373.57 507.547 373.06L507.597 373.1ZM506.897 368.1L508.147 365.26L512.077 366.99L509.587 372.67C508.567 371.21 507.687 369.68 506.897 368.11V368.1ZM514.157 378.03C513.007 376.92 511.957 375.76 510.987 374.55L513.947 367.81L517.877 369.54L514.147 378.03H514.157ZM519.327 382.03L519.277 382.14C519.177 382.07 519.077 382 518.977 381.93C517.837 381.15 516.767 380.33 515.757 379.47L519.757 370.36L523.687 372.09L519.317 382.03H519.327ZM521.347 382.51L525.567 372.91L529.497 374.64L525.707 383.26L524.827 385.27C523.487 384.64 522.207 383.98 521.017 383.26L521.347 382.51ZM594.497 298.08C594.577 298.37 594.677 298.7 594.777 299.06C595.027 299.9 595.337 300.94 595.647 302.17C595.677 302.3 595.707 302.42 595.737 302.55C596.257 304.49 596.797 306.86 597.347 309.6C597.857 312.34 598.397 315.46 598.637 318.9C598.737 319.84 598.787 320.8 598.817 321.79C598.847 322.61 598.867 323.44 598.897 324.28C598.857 326.14 598.857 328.07 598.667 330.04C598.627 330.53 598.587 331.03 598.527 331.53C598.177 335.02 597.537 338.65 596.557 342.3C595.447 346.47 593.927 350.69 592.217 354.86C591.377 356.93 590.437 359.06 589.377 361.1C588.297 363.14 587.147 365.14 585.887 367.07C583.327 370.91 580.447 374.55 577.277 377.8C574.117 381.06 570.697 383.99 567.107 386.41C563.527 388.85 559.777 390.79 556.027 392.14C552.287 393.5 548.587 394.29 545.147 394.61C541.697 394.95 538.507 394.8 535.737 394.37C534.337 394.23 533.067 393.88 531.877 393.66C530.707 393.36 529.637 393.05 528.667 392.78C527.717 392.45 526.877 392.15 526.137 391.89C525.407 391.63 524.817 391.33 524.317 391.13C523.457 390.76 522.947 390.54 522.837 390.49C522.957 390.53 523.477 390.73 524.357 391.06C524.857 391.24 525.467 391.5 526.217 391.73C526.957 391.95 527.807 392.21 528.757 392.51C529.727 392.75 530.797 393.01 531.967 393.26C533.157 393.43 534.417 393.73 535.807 393.82C538.557 394.13 541.687 394.16 545.057 393.77C548.427 393.38 552.017 392.52 555.637 391.11C559.267 389.72 562.857 387.71 566.357 385.33C569.857 382.94 573.177 380.05 576.247 376.82C579.337 373.61 582.127 370.02 584.607 366.24C585.847 364.35 587.007 362.4 588.067 360.42C589.127 358.42 590.027 356.41 590.897 354.32C592.637 350.19 594.147 346.07 595.277 341.96C596.247 338.35 596.967 334.78 597.397 331.34C597.457 330.87 597.507 330.41 597.557 329.95C597.637 329.29 597.697 328.63 597.737 327.97C597.827 326.72 597.867 325.49 597.917 324.28C597.887 322.45 597.917 320.67 597.787 318.97C597.617 315.57 597.187 312.46 596.797 309.71C596.347 306.97 595.897 304.58 595.457 302.64C595.337 302.04 595.207 301.48 595.097 300.96C594.887 300.04 594.697 299.25 594.537 298.61C594.497 298.44 594.457 298.27 594.427 298.12C594.207 297.21 594.077 296.67 594.057 296.55C594.097 296.67 594.247 297.2 594.517 298.1L594.497 298.08ZM593.587 309.89C593.757 310.63 593.937 311.26 594.017 311.8C594.197 312.8 594.287 313.4 594.297 313.47C594.267 313.4 594.057 312.83 593.737 311.88C593.577 311.36 593.317 310.76 593.047 310.07C592.787 309.37 592.417 308.61 592.057 307.77C591.707 306.93 591.217 306.05 590.787 305.1C590.267 304.19 589.787 303.2 589.187 302.22C588.897 301.73 588.617 301.23 588.297 300.74C587.977 300.25 587.657 299.75 587.327 299.25C587.017 298.74 586.637 298.27 586.297 297.78C585.947 297.29 585.597 296.79 585.207 296.33L584.087 294.9C583.687 294.45 583.297 294 582.897 293.55C582.097 292.66 581.287 291.81 580.477 291.02C579.637 290.25 578.857 289.47 578.037 288.82C577.247 288.13 576.467 287.53 575.727 286.99C575.007 286.42 574.307 285.98 573.687 285.56C573.377 285.35 573.087 285.15 572.817 284.98C572.537 284.82 572.277 284.67 572.037 284.53C571.107 283.99 570.577 283.66 570.577 283.66C570.577 283.66 571.157 283.87 572.167 284.27C572.417 284.37 572.697 284.48 572.997 284.6C573.287 284.74 573.607 284.9 573.947 285.07C574.627 285.4 575.417 285.76 576.197 286.27C576.597 286.51 577.017 286.77 577.447 287.03C577.877 287.3 578.287 287.62 578.727 287.93C579.617 288.54 580.487 289.27 581.377 290.03C581.837 290.4 582.237 290.84 582.687 291.25C583.117 291.67 583.577 292.08 583.977 292.55C584.387 293.01 584.807 293.47 585.227 293.93L586.407 295.39C586.807 295.87 587.157 296.39 587.517 296.9C587.867 297.42 588.247 297.91 588.567 298.44C589.237 299.48 589.837 300.53 590.377 301.57C590.957 302.59 591.377 303.65 591.827 304.61C592.207 305.61 592.607 306.54 592.877 307.44C593.167 308.33 593.427 309.14 593.587 309.89ZM624.547 175.57C624.277 175.9 623.977 176.23 623.667 176.57C622.607 177.74 621.407 179.07 620.567 180.99L610.247 204.48L602.087 223.06L599.757 228.36C597.137 234.31 593.217 236.67 590.837 237.59C590.657 237.14 590.477 236.6 590.327 236L597.017 220.77L604.617 203.48L612.007 186.65L605.037 203.55L597.797 221.11L593.487 231.55L598.267 221.32L606.447 203.8L620.797 173.05L621.317 171.93C622.187 172.34 622.907 172.71 623.487 173.04C623.487 173.04 623.507 173.05 623.517 173.05C624.077 173.36 624.507 173.63 624.857 173.87C625.117 174.04 625.317 174.19 625.477 174.32C625.207 174.76 624.897 175.16 624.557 175.56L624.547 175.57ZM605.027 203.56L597.787 221.12L593.477 231.56L598.257 221.33L606.437 203.81L605.027 203.56ZM623.477 173.05C623.477 173.05 623.497 173.06 623.507 173.06C624.067 173.37 624.497 173.64 624.847 173.88L624.987 173.06L623.477 173.05ZM623.667 176.57C622.607 177.74 621.407 179.07 620.567 180.99L610.247 204.48L613.607 205.07C617.837 195.45 621.847 186.32 623.207 183.22L624.547 175.57C624.277 175.9 623.977 176.23 623.667 176.57ZM623.507 173.06C624.067 173.37 624.497 173.64 624.847 173.88L624.987 173.06H623.507Z" fill="white"/>
<path d="M703.956 110.53L692.954 172.963L663.099 342.4L662.938 342.376L662.88 342.895C662.781 343.788 662.661 344.673 662.541 345.574L660.744 355.753C659.27 362.642 657.269 369.442 654.76 376.053C647.984 393.92 637.77 409.941 624.988 423.102C616.889 431.44 607.755 438.631 597.806 444.407C580.198 454.635 560.654 460.04 541.267 460.04C528.497 460.04 515.988 457.751 504.095 453.232H504.094C492.65 448.894 482.149 442.623 472.854 434.598L471.958 433.815L471.234 433.172C467.634 429.937 464.255 426.442 461.119 422.728L461.118 422.727C458.47 419.6 455.99 416.32 453.691 412.889L452.717 411.408L452.211 410.621C447.018 402.47 442.809 393.559 439.712 384.095C433.936 366.448 432.142 346.992 434.523 327.832L434.527 327.801V327.781C434.528 327.78 434.528 327.778 434.528 327.776C434.529 327.772 434.531 327.767 434.532 327.762L434.539 327.732L434.543 327.702C435.541 319.716 437.253 311.777 439.655 303.999L501.53 314.913C501.167 315.773 500.817 316.646 500.488 317.525L500.468 317.581C497.344 324.786 495.03 334.007 494.627 343.619V343.881C494.305 352.146 495.411 360.701 498.645 368.541C501.592 375.69 506.318 382.229 513.342 387.366L514.029 387.859C516.061 389.285 518.274 390.598 520.688 391.779L520.688 391.78C521.332 392.092 522 392.405 522.679 392.699V392.698C544.699 402.375 564.022 393.663 577.352 380.605L577.577 380.719L577.792 380.247L577.855 380.106C584.493 373.462 589.62 365.745 592.82 358.712L593.125 358.031C597.269 348.6 599.786 340.29 600.743 331.876C601.035 329.337 601.176 326.779 601.187 324.192V324.19C601.187 321.059 600.985 317.868 600.583 314.56C600.577 314.491 600.569 314.423 600.561 314.358L600.53 314.158C599.826 308.543 598.541 302.584 596.698 295.985C594.198 287.012 593.62 275.392 593.827 264.696C594.031 254.164 594.997 244.571 595.617 239.365C598.242 237.611 601.137 234.714 603.245 229.911C603.854 228.524 604.635 226.76 605.516 224.739L605.515 224.738L614.064 205.281C618.294 195.661 622.305 186.531 623.665 183.431C623.848 183.015 623.973 182.725 624.059 182.544L624.062 182.537L624.064 182.531C624.676 181.138 625.598 180.138 626.614 179.013C627.623 177.895 628.704 176.671 629.494 174.882C629.74 174.326 629.689 173.772 629.469 173.261L629.475 172.58L629.059 172.573C628.355 171.636 627.093 170.737 625.728 169.947H625.727C624.363 169.154 622.823 168.435 621.501 167.844L621.498 167.842L620.792 167.537C619.103 166.82 617.141 166.077 615.426 165.699C614.45 165.484 613.511 165.378 612.732 165.487C611.945 165.598 611.235 165.945 610.899 166.708V166.709C609.871 169.047 609.892 171.151 609.661 173.009L609.657 173.039V173.05C609.54 174.016 609.349 174.948 608.938 175.891C608.173 177.631 602.834 189.779 597.576 201.759L550.575 193.474L554.159 173.177L554.167 173.134V173.112L563.76 118.757L565.206 110.53H703.956Z" fill="white" stroke="white"/>
<path d="M898.329 220.62L886.973 273.71H770.023L769.938 274.105L763.998 301.935L763.869 302.54H872.37L861.642 353.13H753.142L753.058 353.526L746.178 386.047L746.05 386.65H866.12L854.45 442.24H667.874L714.872 220.62H898.329Z" fill="white" stroke="white"/>
<path d="M1089.06 220.62L1056.86 372.954L1056.85 372.944L1056.66 373.847C1051.25 399.416 1041.18 418.055 1026.5 429.84C1011.82 441.628 991.821 447.55 966.467 447.55C943.185 447.55 925.129 442.404 912.218 432.178C899.321 421.963 892.867 407.785 892.867 389.58C892.867 379.905 894.603 366.527 898.096 349.43H958.67C955.418 364.708 953.787 374.78 953.787 379.57C953.787 384.657 955.112 388.562 957.848 391.189C960.581 393.813 964.635 395.08 969.917 395.08C971.824 395.08 973.521 394.918 975.021 394.599C976.546 394.276 977.954 393.67 979.254 392.807C980.509 391.973 981.556 391.237 982.406 390.599C983.331 389.908 984.165 388.723 984.91 387.132C985.639 385.573 986.235 384.528 986.717 383.965H986.718L986.72 383.961C987.034 383.587 987.317 383.031 987.584 382.337C987.854 381.634 988.119 380.752 988.382 379.701C988.772 378.141 989.045 377.01 989.205 376.318L989.328 375.765C989.427 375.249 989.745 373.748 990.266 371.242C990.527 369.991 990.723 369.023 990.853 368.342C990.919 368.001 990.968 367.73 991.002 367.529C991.025 367.392 991.041 367.261 991.05 367.162L1022.23 220.62H1089.06Z" fill="white" stroke="white"/>
<path d="M1253.39 220.62L1288.25 442.24H1221.74L1218.04 411.101L1217.99 410.66H1144.4L1144.26 410.921L1127.2 442.24H1058.02L1186.88 220.62H1253.39ZM1205.52 290.578C1199.9 304.108 1192.1 320.244 1182.1 338.995L1182.04 339.105V339.114L1169.28 362.763L1168.88 363.5H1213.11L1213.05 362.945L1208.67 323.235L1208.67 323.228L1208.45 321.346C1207.34 311.882 1206.68 301.687 1206.49 290.761L1205.52 290.578Z" fill="white" stroke="white"/>
<path d="M1418.92 220.62L1410.3 262.537C1407.8 274.401 1404.67 286.376 1400.93 298.452L1401.8 298.91C1408.02 291.022 1419.99 278.744 1437.71 262.074H1437.71L1481.66 220.62H1569.53L1463.93 311.35L1463.64 311.603L1463.81 311.951L1527.86 442.24H1451.75L1411.24 355.918L1410.96 355.317L1410.46 355.753L1386.07 377.014L1385.94 377.122L1385.91 377.285L1371.92 442.24H1305.09L1352.09 220.62H1418.92Z" fill="white" stroke="white"/>
<mask id="path-7-inside-1_773_1039" fill="white">
<path d="M874.409 480.813L873.02 487.312H858.634L850.557 525.74H842.669L850.746 487.312H836.044L837.432 480.813H874.409Z"/>
<path d="M894.599 515.644C893.716 519.304 891.823 522.08 888.983 523.973C886.144 525.866 882.799 526.813 878.887 526.813C874.407 526.813 870.937 525.551 868.413 523.027C865.889 520.503 864.69 516.969 864.69 512.489C864.69 506.747 866.393 501.951 869.864 498.102C873.271 494.253 877.562 492.297 882.736 492.297C886.964 492.297 890.308 493.559 892.769 496.02C895.167 498.544 896.429 501.951 896.429 506.242C896.429 507.693 896.24 509.397 895.987 511.353H871.757C871.631 512.552 871.631 513.183 871.631 513.246C871.631 515.833 872.325 517.852 873.713 519.304C875.101 520.755 876.994 521.449 879.392 521.449C883.304 521.449 885.954 519.556 887.469 515.644H894.599ZM872.577 506.431H889.614V505.548C889.614 503.024 888.983 501.068 887.784 499.68C886.522 498.355 884.755 497.66 882.484 497.66C880.086 497.66 878.004 498.481 876.237 499.995C874.47 501.51 873.271 503.655 872.577 506.431Z"/>
<path d="M911.93 493.18L910.858 498.102C913.886 494.316 917.736 492.36 922.405 492.36C925.308 492.36 927.579 493.117 929.346 494.632C931.113 496.146 931.996 498.102 931.996 500.563C931.996 502.014 931.744 503.844 931.239 506.116L927.137 525.74H919.818L923.982 506.242C924.235 504.98 924.424 503.718 924.424 502.456C924.424 501.131 923.982 500.121 923.099 499.364C922.216 498.67 921.017 498.291 919.502 498.291C916.6 498.291 914.265 499.301 912.561 501.194C910.858 503.087 909.722 505.548 909.091 508.514L905.431 525.74H898.238L905.179 493.18H911.93Z"/>
<path d="M948.164 493.18L947.091 498.102C950.12 494.316 953.969 492.36 958.638 492.36C961.541 492.36 963.812 493.117 965.579 494.632C967.346 496.146 968.229 498.102 968.229 500.563C968.229 502.014 967.977 503.844 967.472 506.116L963.371 525.74H956.051L960.216 506.242C960.468 504.98 960.657 503.718 960.657 502.456C960.657 501.131 960.216 500.121 959.332 499.364C958.449 498.67 957.25 498.291 955.736 498.291C952.833 498.291 950.498 499.301 948.795 501.194C947.091 503.087 945.955 505.548 945.324 508.514L941.664 525.74H934.471L941.412 493.18H948.164Z"/>
<path d="M984.965 493.18L978.087 525.74H970.893L977.771 493.18H984.965ZM987.615 480.623L986.1 487.691H978.97L980.485 480.623H987.615Z"/>
<path d="M1015.9 502.708H1009.08C1009.08 500.752 1008.51 499.364 1007.5 498.607C1006.43 497.85 1004.85 497.408 1002.77 497.408C1000.88 497.408 999.428 497.787 998.418 498.481C997.409 499.175 996.904 500.121 996.904 501.32C996.904 502.519 997.472 503.466 998.608 504.097C999.743 504.791 1001.7 505.548 1004.35 506.431C1004.98 506.621 1005.42 506.747 1005.8 506.873C1011.29 508.766 1014.07 511.732 1014.07 515.77C1014.07 519.43 1012.62 522.206 1009.84 523.973C1007 525.803 1003.66 526.686 999.806 526.686C995.453 526.686 992.108 525.803 989.71 523.91C987.313 522.017 986.177 519.367 986.177 515.959V515.328H992.992V515.518C992.992 519.493 995.453 521.449 1000.37 521.449C1002.33 521.449 1003.91 521.071 1005.11 520.25C1006.31 519.43 1006.94 518.294 1006.94 516.906C1006.94 515.644 1006.43 514.634 1005.49 514.003C1004.48 513.372 1002.46 512.552 999.365 511.416C999.239 511.416 999.112 511.353 999.049 511.29C997.787 510.848 996.904 510.533 996.336 510.28C995.705 510.028 994.948 509.649 993.938 509.082C992.929 508.577 992.234 508.009 991.73 507.441C991.225 506.936 990.846 506.179 990.468 505.296C990.089 504.412 989.9 503.339 989.9 502.204C989.9 499.175 991.099 496.777 993.56 495.01C995.957 493.243 999.239 492.297 1003.34 492.297C1007.25 492.297 1010.34 493.18 1012.55 494.884C1014.76 496.588 1015.9 498.986 1015.9 502.014V502.708Z"/>
<path d="M1077.88 510.091C1076.75 515.328 1074.35 519.43 1070.62 522.396C1066.9 525.361 1062.36 526.813 1057 526.813C1051.06 526.813 1046.46 525.109 1043.18 521.638C1039.83 518.168 1038.19 513.309 1038.19 507.125C1038.19 502.267 1039.14 497.787 1041.03 493.685C1042.92 489.584 1045.76 486.239 1049.55 483.652C1053.34 481.128 1057.69 479.803 1062.67 479.803C1067.85 479.803 1072.08 481.191 1075.23 483.968C1078.39 486.744 1079.96 490.467 1079.96 495.01V495.831H1072.33C1072.2 492.549 1071.26 490.152 1069.62 488.637C1067.91 487.123 1065.39 486.302 1062.04 486.302C1059.46 486.302 1057.12 486.997 1055.04 488.259C1052.89 489.521 1051.19 491.224 1049.93 493.243C1048.67 495.263 1047.66 497.471 1047.03 499.869C1046.33 502.267 1046.02 504.728 1046.02 507.125C1046.02 511.29 1046.96 514.571 1048.98 516.906C1051 519.241 1053.78 520.376 1057.37 520.376C1060.53 520.376 1063.24 519.493 1065.39 517.726C1067.53 515.959 1069.05 513.372 1069.93 510.091H1077.88Z"/>
<path d="M1097.42 480.813L1087.96 525.74H1080.76L1090.29 480.813H1097.42Z"/>
<path d="M1131.07 493.18L1124.19 525.74H1117.38L1118.51 520.881C1115.73 524.793 1112.07 526.686 1107.41 526.686C1104.44 526.686 1102.1 525.929 1100.34 524.415C1098.57 522.9 1097.75 520.818 1097.75 518.231C1097.75 516.906 1097.94 515.139 1098.45 512.868L1102.61 493.18H1109.87L1106.21 510.407C1105.51 513.499 1105.2 515.581 1105.2 516.717C1105.2 518.042 1105.64 519.051 1106.58 519.809C1107.47 520.566 1108.73 520.881 1110.37 520.881C1113.02 520.881 1115.23 519.872 1116.87 517.852C1118.51 515.833 1119.65 513.309 1120.28 510.407L1123.94 493.18H1131.07Z"/>
<path d="M1148.88 480.813L1145.47 497.029C1148.12 493.938 1151.46 492.36 1155.5 492.36C1159.29 492.36 1162.25 493.622 1164.46 496.02C1166.67 498.481 1167.81 501.825 1167.81 505.99C1167.81 511.416 1166.23 516.212 1163.14 520.376C1160.04 524.541 1155.94 526.623 1150.77 526.623C1145.15 526.623 1141.56 524.478 1140.04 520.187L1138.91 525.74H1132.15L1141.81 480.813H1148.88ZM1153.17 497.913C1149.63 497.913 1146.92 499.553 1145.03 502.708C1143.07 505.927 1142.12 509.397 1142.12 513.12C1142.12 515.581 1142.76 517.537 1144.14 518.925C1145.47 520.376 1147.3 521.071 1149.57 521.071C1152.6 521.071 1155.25 519.682 1157.39 516.78C1159.54 513.877 1160.61 510.407 1160.61 506.305C1160.61 503.781 1159.98 501.699 1158.72 500.184C1157.46 498.67 1155.63 497.913 1153.17 497.913Z"/>
</mask>
<path d="M874.409 480.813L873.02 487.312H858.634L850.557 525.74H842.669L850.746 487.312H836.044L837.432 480.813H874.409Z" fill="white"/>
<path d="M894.599 515.644C893.716 519.304 891.823 522.08 888.983 523.973C886.144 525.866 882.799 526.813 878.887 526.813C874.407 526.813 870.937 525.551 868.413 523.027C865.889 520.503 864.69 516.969 864.69 512.489C864.69 506.747 866.393 501.951 869.864 498.102C873.271 494.253 877.562 492.297 882.736 492.297C886.964 492.297 890.308 493.559 892.769 496.02C895.167 498.544 896.429 501.951 896.429 506.242C896.429 507.693 896.24 509.397 895.987 511.353H871.757C871.631 512.552 871.631 513.183 871.631 513.246C871.631 515.833 872.325 517.852 873.713 519.304C875.101 520.755 876.994 521.449 879.392 521.449C883.304 521.449 885.954 519.556 887.469 515.644H894.599ZM872.577 506.431H889.614V505.548C889.614 503.024 888.983 501.068 887.784 499.68C886.522 498.355 884.755 497.66 882.484 497.66C880.086 497.66 878.004 498.481 876.237 499.995C874.47 501.51 873.271 503.655 872.577 506.431Z" fill="white"/>
<path d="M911.93 493.18L910.858 498.102C913.886 494.316 917.736 492.36 922.405 492.36C925.308 492.36 927.579 493.117 929.346 494.632C931.113 496.146 931.996 498.102 931.996 500.563C931.996 502.014 931.744 503.844 931.239 506.116L927.137 525.74H919.818L923.982 506.242C924.235 504.98 924.424 503.718 924.424 502.456C924.424 501.131 923.982 500.121 923.099 499.364C922.216 498.67 921.017 498.291 919.502 498.291C916.6 498.291 914.265 499.301 912.561 501.194C910.858 503.087 909.722 505.548 909.091 508.514L905.431 525.74H898.238L905.179 493.18H911.93Z" fill="white"/>
<path d="M948.164 493.18L947.091 498.102C950.12 494.316 953.969 492.36 958.638 492.36C961.541 492.36 963.812 493.117 965.579 494.632C967.346 496.146 968.229 498.102 968.229 500.563C968.229 502.014 967.977 503.844 967.472 506.116L963.371 525.74H956.051L960.216 506.242C960.468 504.98 960.657 503.718 960.657 502.456C960.657 501.131 960.216 500.121 959.332 499.364C958.449 498.67 957.25 498.291 955.736 498.291C952.833 498.291 950.498 499.301 948.795 501.194C947.091 503.087 945.955 505.548 945.324 508.514L941.664 525.74H934.471L941.412 493.18H948.164Z" fill="white"/>
<path d="M984.965 493.18L978.087 525.74H970.893L977.771 493.18H984.965ZM987.615 480.623L986.1 487.691H978.97L980.485 480.623H987.615Z" fill="white"/>
<path d="M1015.9 502.708H1009.08C1009.08 500.752 1008.51 499.364 1007.5 498.607C1006.43 497.85 1004.85 497.408 1002.77 497.408C1000.88 497.408 999.428 497.787 998.418 498.481C997.409 499.175 996.904 500.121 996.904 501.32C996.904 502.519 997.472 503.466 998.608 504.097C999.743 504.791 1001.7 505.548 1004.35 506.431C1004.98 506.621 1005.42 506.747 1005.8 506.873C1011.29 508.766 1014.07 511.732 1014.07 515.77C1014.07 519.43 1012.62 522.206 1009.84 523.973C1007 525.803 1003.66 526.686 999.806 526.686C995.453 526.686 992.108 525.803 989.71 523.91C987.313 522.017 986.177 519.367 986.177 515.959V515.328H992.992V515.518C992.992 519.493 995.453 521.449 1000.37 521.449C1002.33 521.449 1003.91 521.071 1005.11 520.25C1006.31 519.43 1006.94 518.294 1006.94 516.906C1006.94 515.644 1006.43 514.634 1005.49 514.003C1004.48 513.372 1002.46 512.552 999.365 511.416C999.239 511.416 999.112 511.353 999.049 511.29C997.787 510.848 996.904 510.533 996.336 510.28C995.705 510.028 994.948 509.649 993.938 509.082C992.929 508.577 992.234 508.009 991.73 507.441C991.225 506.936 990.846 506.179 990.468 505.296C990.089 504.412 989.9 503.339 989.9 502.204C989.9 499.175 991.099 496.777 993.56 495.01C995.957 493.243 999.239 492.297 1003.34 492.297C1007.25 492.297 1010.34 493.18 1012.55 494.884C1014.76 496.588 1015.9 498.986 1015.9 502.014V502.708Z" fill="white"/>
<path d="M1077.88 510.091C1076.75 515.328 1074.35 519.43 1070.62 522.396C1066.9 525.361 1062.36 526.813 1057 526.813C1051.06 526.813 1046.46 525.109 1043.18 521.638C1039.83 518.168 1038.19 513.309 1038.19 507.125C1038.19 502.267 1039.14 497.787 1041.03 493.685C1042.92 489.584 1045.76 486.239 1049.55 483.652C1053.34 481.128 1057.69 479.803 1062.67 479.803C1067.85 479.803 1072.08 481.191 1075.23 483.968C1078.39 486.744 1079.96 490.467 1079.96 495.01V495.831H1072.33C1072.2 492.549 1071.26 490.152 1069.62 488.637C1067.91 487.123 1065.39 486.302 1062.04 486.302C1059.46 486.302 1057.12 486.997 1055.04 488.259C1052.89 489.521 1051.19 491.224 1049.93 493.243C1048.67 495.263 1047.66 497.471 1047.03 499.869C1046.33 502.267 1046.02 504.728 1046.02 507.125C1046.02 511.29 1046.96 514.571 1048.98 516.906C1051 519.241 1053.78 520.376 1057.37 520.376C1060.53 520.376 1063.24 519.493 1065.39 517.726C1067.53 515.959 1069.05 513.372 1069.93 510.091H1077.88Z" fill="white"/>
<path d="M1097.42 480.813L1087.96 525.74H1080.76L1090.29 480.813H1097.42Z" fill="white"/>
<path d="M1131.07 493.18L1124.19 525.74H1117.38L1118.51 520.881C1115.73 524.793 1112.07 526.686 1107.41 526.686C1104.44 526.686 1102.1 525.929 1100.34 524.415C1098.57 522.9 1097.75 520.818 1097.75 518.231C1097.75 516.906 1097.94 515.139 1098.45 512.868L1102.61 493.18H1109.87L1106.21 510.407C1105.51 513.499 1105.2 515.581 1105.2 516.717C1105.2 518.042 1105.64 519.051 1106.58 519.809C1107.47 520.566 1108.73 520.881 1110.37 520.881C1113.02 520.881 1115.23 519.872 1116.87 517.852C1118.51 515.833 1119.65 513.309 1120.28 510.407L1123.94 493.18H1131.07Z" fill="white"/>
<path d="M1148.88 480.813L1145.47 497.029C1148.12 493.938 1151.46 492.36 1155.5 492.36C1159.29 492.36 1162.25 493.622 1164.46 496.02C1166.67 498.481 1167.81 501.825 1167.81 505.99C1167.81 511.416 1166.23 516.212 1163.14 520.376C1160.04 524.541 1155.94 526.623 1150.77 526.623C1145.15 526.623 1141.56 524.478 1140.04 520.187L1138.91 525.74H1132.15L1141.81 480.813H1148.88ZM1153.17 497.913C1149.63 497.913 1146.92 499.553 1145.03 502.708C1143.07 505.927 1142.12 509.397 1142.12 513.12C1142.12 515.581 1142.76 517.537 1144.14 518.925C1145.47 520.376 1147.3 521.071 1149.57 521.071C1152.6 521.071 1155.25 519.682 1157.39 516.78C1159.54 513.877 1160.61 510.407 1160.61 506.305C1160.61 503.781 1159.98 501.699 1158.72 500.184C1157.46 498.67 1155.63 497.913 1153.17 497.913Z" fill="white"/>
<path d="M874.409 480.813L873.02 487.312H858.634L850.557 525.74H842.669L850.746 487.312H836.044L837.432 480.813H874.409Z" stroke="white" stroke-width="2" mask="url(#path-7-inside-1_773_1039)"/>
<path d="M894.599 515.644C893.716 519.304 891.823 522.08 888.983 523.973C886.144 525.866 882.799 526.813 878.887 526.813C874.407 526.813 870.937 525.551 868.413 523.027C865.889 520.503 864.69 516.969 864.69 512.489C864.69 506.747 866.393 501.951 869.864 498.102C873.271 494.253 877.562 492.297 882.736 492.297C886.964 492.297 890.308 493.559 892.769 496.02C895.167 498.544 896.429 501.951 896.429 506.242C896.429 507.693 896.24 509.397 895.987 511.353H871.757C871.631 512.552 871.631 513.183 871.631 513.246C871.631 515.833 872.325 517.852 873.713 519.304C875.101 520.755 876.994 521.449 879.392 521.449C883.304 521.449 885.954 519.556 887.469 515.644H894.599ZM872.577 506.431H889.614V505.548C889.614 503.024 888.983 501.068 887.784 499.68C886.522 498.355 884.755 497.66 882.484 497.66C880.086 497.66 878.004 498.481 876.237 499.995C874.47 501.51 873.271 503.655 872.577 506.431Z" stroke="white" stroke-width="2" mask="url(#path-7-inside-1_773_1039)"/>
<path d="M911.93 493.18L910.858 498.102C913.886 494.316 917.736 492.36 922.405 492.36C925.308 492.36 927.579 493.117 929.346 494.632C931.113 496.146 931.996 498.102 931.996 500.563C931.996 502.014 931.744 503.844 931.239 506.116L927.137 525.74H919.818L923.982 506.242C924.235 504.98 924.424 503.718 924.424 502.456C924.424 501.131 923.982 500.121 923.099 499.364C922.216 498.67 921.017 498.291 919.502 498.291C916.6 498.291 914.265 499.301 912.561 501.194C910.858 503.087 909.722 505.548 909.091 508.514L905.431 525.74H898.238L905.179 493.18H911.93Z" stroke="white" stroke-width="2" mask="url(#path-7-inside-1_773_1039)"/>
<path d="M948.164 493.18L947.091 498.102C950.12 494.316 953.969 492.36 958.638 492.36C961.541 492.36 963.812 493.117 965.579 494.632C967.346 496.146 968.229 498.102 968.229 500.563C968.229 502.014 967.977 503.844 967.472 506.116L963.371 525.74H956.051L960.216 506.242C960.468 504.98 960.657 503.718 960.657 502.456C960.657 501.131 960.216 500.121 959.332 499.364C958.449 498.67 957.25 498.291 955.736 498.291C952.833 498.291 950.498 499.301 948.795 501.194C947.091 503.087 945.955 505.548 945.324 508.514L941.664 525.74H934.471L941.412 493.18H948.164Z" stroke="white" stroke-width="2" mask="url(#path-7-inside-1_773_1039)"/>
<path d="M984.965 493.18L978.087 525.74H970.893L977.771 493.18H984.965ZM987.615 480.623L986.1 487.691H978.97L980.485 480.623H987.615Z" stroke="white" stroke-width="2" mask="url(#path-7-inside-1_773_1039)"/>
<path d="M1015.9 502.708H1009.08C1009.08 500.752 1008.51 499.364 1007.5 498.607C1006.43 497.85 1004.85 497.408 1002.77 497.408C1000.88 497.408 999.428 497.787 998.418 498.481C997.409 499.175 996.904 500.121 996.904 501.32C996.904 502.519 997.472 503.466 998.608 504.097C999.743 504.791 1001.7 505.548 1004.35 506.431C1004.98 506.621 1005.42 506.747 1005.8 506.873C1011.29 508.766 1014.07 511.732 1014.07 515.77C1014.07 519.43 1012.62 522.206 1009.84 523.973C1007 525.803 1003.66 526.686 999.806 526.686C995.453 526.686 992.108 525.803 989.71 523.91C987.313 522.017 986.177 519.367 986.177 515.959V515.328H992.992V515.518C992.992 519.493 995.453 521.449 1000.37 521.449C1002.33 521.449 1003.91 521.071 1005.11 520.25C1006.31 519.43 1006.94 518.294 1006.94 516.906C1006.94 515.644 1006.43 514.634 1005.49 514.003C1004.48 513.372 1002.46 512.552 999.365 511.416C999.239 511.416 999.112 511.353 999.049 511.29C997.787 510.848 996.904 510.533 996.336 510.28C995.705 510.028 994.948 509.649 993.938 509.082C992.929 508.577 992.234 508.009 991.73 507.441C991.225 506.936 990.846 506.179 990.468 505.296C990.089 504.412 989.9 503.339 989.9 502.204C989.9 499.175 991.099 496.777 993.56 495.01C995.957 493.243 999.239 492.297 1003.34 492.297C1007.25 492.297 1010.34 493.18 1012.55 494.884C1014.76 496.588 1015.9 498.986 1015.9 502.014V502.708Z" stroke="white" stroke-width="2" mask="url(#path-7-inside-1_773_1039)"/>
<path d="M1077.88 510.091C1076.75 515.328 1074.35 519.43 1070.62 522.396C1066.9 525.361 1062.36 526.813 1057 526.813C1051.06 526.813 1046.46 525.109 1043.18 521.638C1039.83 518.168 1038.19 513.309 1038.19 507.125C1038.19 502.267 1039.14 497.787 1041.03 493.685C1042.92 489.584 1045.76 486.239 1049.55 483.652C1053.34 481.128 1057.69 479.803 1062.67 479.803C1067.85 479.803 1072.08 481.191 1075.23 483.968C1078.39 486.744 1079.96 490.467 1079.96 495.01V495.831H1072.33C1072.2 492.549 1071.26 490.152 1069.62 488.637C1067.91 487.123 1065.39 486.302 1062.04 486.302C1059.46 486.302 1057.12 486.997 1055.04 488.259C1052.89 489.521 1051.19 491.224 1049.93 493.243C1048.67 495.263 1047.66 497.471 1047.03 499.869C1046.33 502.267 1046.02 504.728 1046.02 507.125C1046.02 511.29 1046.96 514.571 1048.98 516.906C1051 519.241 1053.78 520.376 1057.37 520.376C1060.53 520.376 1063.24 519.493 1065.39 517.726C1067.53 515.959 1069.05 513.372 1069.93 510.091H1077.88Z" stroke="white" stroke-width="2" mask="url(#path-7-inside-1_773_1039)"/>
<path d="M1097.42 480.813L1087.96 525.74H1080.76L1090.29 480.813H1097.42Z" stroke="white" stroke-width="2" mask="url(#path-7-inside-1_773_1039)"/>
<path d="M1131.07 493.18L1124.19 525.74H1117.38L1118.51 520.881C1115.73 524.793 1112.07 526.686 1107.41 526.686C1104.44 526.686 1102.1 525.929 1100.34 524.415C1098.57 522.9 1097.75 520.818 1097.75 518.231C1097.75 516.906 1097.94 515.139 1098.45 512.868L1102.61 493.18H1109.87L1106.21 510.407C1105.51 513.499 1105.2 515.581 1105.2 516.717C1105.2 518.042 1105.64 519.051 1106.58 519.809C1107.47 520.566 1108.73 520.881 1110.37 520.881C1113.02 520.881 1115.23 519.872 1116.87 517.852C1118.51 515.833 1119.65 513.309 1120.28 510.407L1123.94 493.18H1131.07Z" stroke="white" stroke-width="2" mask="url(#path-7-inside-1_773_1039)"/>
<path d="M1148.88 480.813L1145.47 497.029C1148.12 493.938 1151.46 492.36 1155.5 492.36C1159.29 492.36 1162.25 493.622 1164.46 496.02C1166.67 498.481 1167.81 501.825 1167.81 505.99C1167.81 511.416 1166.23 516.212 1163.14 520.376C1160.04 524.541 1155.94 526.623 1150.77 526.623C1145.15 526.623 1141.56 524.478 1140.04 520.187L1138.91 525.74H1132.15L1141.81 480.813H1148.88ZM1153.17 497.913C1149.63 497.913 1146.92 499.553 1145.03 502.708C1143.07 505.927 1142.12 509.397 1142.12 513.12C1142.12 515.581 1142.76 517.537 1144.14 518.925C1145.47 520.376 1147.3 521.071 1149.57 521.071C1152.6 521.071 1155.25 519.682 1157.39 516.78C1159.54 513.877 1160.61 510.407 1160.61 506.305C1160.61 503.781 1159.98 501.699 1158.72 500.184C1157.46 498.67 1155.63 497.913 1153.17 497.913Z" stroke="white" stroke-width="2" mask="url(#path-7-inside-1_773_1039)"/>
<path d="M1519.94 506.49V511.49H1220.94V506.49H1519.94Z" fill="white" stroke="white"/>
<path d="M782.937 506.49V511.49H483.937V506.49H782.937Z" fill="white" stroke="white"/>
</svg>
