<svg width="2004" height="704" viewBox="0 0 2004 704" fill="none" xmlns="http://www.w3.org/2000/svg">
<path d="M191.987 173.06L191.847 173.88C191.497 173.64 191.067 173.37 190.507 173.06C190.497 173.06 190.477 173.05 190.477 173.05L191.987 173.06ZM190.507 173.06H191.987M177.247 204.48L169.087 223.06L166.757 228.36C164.137 234.31 160.217 236.67 157.837 237.59C157.657 237.14 157.477 236.6 157.327 236L164.017 220.77L171.617 203.48L179.007 186.65L172.037 203.55L164.797 221.11L160.487 231.55L165.267 221.32L173.447 203.8L187.797 173.05L188.317 171.93C189.187 172.34 189.907 172.71 190.487 173.04C190.487 173.04 190.507 173.05 190.517 173.05C191.077 173.36 191.507 173.63 191.857 173.87C192.117 174.04 192.317 174.19 192.477 174.32C192.207 174.76 191.897 175.16 191.557 175.56L191.547 175.57C191.277 175.9 190.977 176.23 190.667 176.57C189.607 177.74 188.407 179.07 187.567 180.99L177.247 204.48ZM191.547 175.57L190.207 183.22C188.847 186.32 184.837 195.45 180.607 205.07L177.247 204.48M172.027 203.56L164.787 221.12L160.477 231.56L165.257 221.33L173.437 203.81L172.027 203.56ZM195.797 173.06C195.797 173.06 195.797 173.06 195.797 173.05C195.207 172.14 193.947 171.21 192.477 170.36C191.137 169.58 189.617 168.87 188.297 168.28C184.647 166.68 179.317 164.71 178.357 166.89C177.367 169.14 177.397 171.12 177.157 173.05C177.157 173.05 177.157 173.06 177.157 173.07C177.037 174.07 176.837 175.06 176.397 176.07C175.627 177.82 170.187 190.2 164.877 202.3C162.337 208.09 159.817 213.81 157.857 218.28C156.967 220.3 156.197 222.06 155.587 223.45C153.467 228.28 153.337 232.36 153.847 235.41C147.077 243.3 127.817 264.69 111.107 273.21C99.3269 279.21 90.7369 285.11 83.8669 292.42C78.1269 298.53 73.5969 305.62 69.4169 314.57C68.9569 315.55 68.5069 316.55 68.0569 317.57C68.0269 317.65 67.9869 317.72 67.9569 317.8C64.8569 324.95 62.5569 334.11 62.1569 343.66V343.92C61.8369 352.13 62.9369 360.61 66.1369 368.37C69.1469 375.67 74.0269 382.32 81.3469 387.47C83.3569 388.88 85.5469 390.18 87.9369 391.35C88.5769 391.66 89.2369 391.97 89.9069 392.26C111.817 401.89 131.037 393.13 144.287 380.02L144.367 380.06L144.467 379.84C151.307 373.01 156.537 365.03 159.697 357.85C163.827 348.45 166.327 340.19 167.277 331.84C167.567 329.32 167.707 326.78 167.717 324.21C167.717 321.1 167.517 317.93 167.117 314.64C167.107 314.51 167.087 314.38 167.067 314.26C166.367 308.67 165.087 302.73 163.247 296.14C158.207 278.05 160.937 249.42 162.177 239.1C164.777 237.41 167.697 234.56 169.817 229.73C170.427 228.34 171.207 226.58 172.087 224.56C174.437 219.2 177.597 212.03 180.637 205.1C184.867 195.48 188.877 186.35 190.237 183.25C190.417 182.84 190.547 182.54 190.637 182.35C191.937 179.39 194.557 178.12 196.067 174.7C196.297 174.18 196.187 173.64 195.837 173.1L195.797 173.06ZM150.817 246.3C151.167 245.97 151.647 245.63 152.267 245.46C152.577 245.37 152.917 245.32 153.267 245.35C153.447 245.37 153.637 245.41 153.827 245.44L154.257 245.58C154.487 245.69 154.587 245.76 154.757 245.85C154.897 245.95 155.037 246.06 155.177 246.17C155.437 246.41 155.627 246.7 155.777 246.99C156.067 247.57 156.147 248.16 156.127 248.63C156.107 249.59 155.797 250.15 155.797 250.15C155.797 250.15 155.747 249.52 155.527 248.7C155.407 248.29 155.237 247.84 154.967 247.45C154.837 247.25 154.657 247.09 154.487 246.93L154.197 246.72C154.097 246.67 153.937 246.6 153.907 246.57L153.487 246.42L153.177 246.36C152.937 246.35 152.707 246.32 152.467 246.36C151.997 246.42 151.547 246.6 151.167 246.79C150.407 247.18 149.907 247.56 149.907 247.56C149.907 247.56 150.117 246.96 150.817 246.3ZM125.667 272.43C135.777 264.98 145.497 255.23 151.877 248.36C152.407 247.79 153.037 248 153.217 248.08C153.397 248.16 153.977 248.48 153.917 249.26C153.167 258.6 152.557 272.35 153.917 284.84C153.997 285.59 153.697 286.27 153.097 286.72C152.877 286.88 152.637 287 152.387 287.06C152.127 287.13 151.857 287.15 151.597 287.12C151.417 287.1 151.237 287.05 151.067 286.97C150.877 286.88 150.687 286.76 150.517 286.61C148.907 285.19 147.237 283.89 145.497 282.75C143.547 281.46 141.517 280.36 139.437 279.44C137.327 278.51 135.107 277.76 132.807 277.19C130.817 276.69 128.767 276.34 126.657 276.12C126.427 276.1 126.217 276.04 126.027 275.96C125.867 275.89 125.717 275.8 125.587 275.69C125.377 275.52 125.207 275.3 125.087 275.06C124.967 274.83 124.887 274.57 124.857 274.29C124.777 273.55 125.077 272.86 125.687 272.41L125.667 272.43ZM129.217 378.98L125.287 377.25L127.337 372.58L131.267 374.31L129.217 378.98ZM130.777 381.89C130.497 382.08 130.217 382.25 129.937 382.43L130.277 381.67L130.787 381.89H130.777ZM71.2369 361.31C71.0669 360.72 70.8969 360.13 70.7469 359.53L72.2269 356.16L76.1569 357.89L74.1069 362.56L71.2369 361.3V361.31ZM73.2769 364.44L72.7569 365.62C72.5169 365.06 72.2969 364.49 72.0869 363.92L73.2769 364.44ZM69.5269 352.75C69.3169 350.85 69.2169 348.94 69.1969 347.03L73.2169 348.8L71.1669 353.47L69.5269 352.75ZM70.3469 355.34L70.0069 356.1C69.9469 355.77 69.8869 355.44 69.8369 355.11L70.3469 355.33V355.34ZM105.887 337.5L101.957 335.77L104.007 331.1L107.937 332.83L105.887 337.5ZM109.817 333.65L113.747 335.38L111.697 340.05L107.767 338.32L109.817 333.65ZM105.067 339.37L103.017 344.04L99.0869 342.31L101.137 337.64L105.067 339.37ZM106.937 340.2L110.867 341.93L108.817 346.6L104.887 344.87L106.937 340.2ZM112.747 342.75L116.677 344.48L114.627 349.15L110.697 347.42L112.747 342.75ZM113.567 340.88L115.617 336.21L119.547 337.94L117.497 342.61L113.567 340.88ZM116.437 334.33L118.487 329.66L122.417 331.39L120.367 336.06L116.437 334.33ZM121.417 338.75L125.347 340.48L123.297 345.15L119.367 343.42L121.417 338.75ZM122.247 336.88L124.297 332.21L128.227 333.94L126.177 338.61L122.247 336.88ZM125.117 330.34L127.167 325.67L131.097 327.4L129.047 332.07L125.117 330.34ZM127.997 323.8L130.047 319.13L133.977 320.86L131.927 325.53L127.997 323.8ZM126.117 322.98L122.187 321.25L124.237 316.58L128.167 318.31L126.117 322.98ZM123.707 324.15L125.297 324.85L123.247 329.52L119.317 327.79L121.117 323.69L121.367 323.12L123.717 324.15H123.707ZM119.047 323.33L117.447 326.97L113.517 325.24L114.697 322.56L115.567 320.57L119.497 322.3L119.047 323.33ZM116.617 328.84L114.567 333.51L110.637 331.78L112.687 327.11L116.617 328.84ZM108.767 330.96L104.837 329.23L106.887 324.56L110.817 326.29L108.767 330.96ZM102.957 328.41L99.0269 326.68L101.077 322.01L105.007 323.74L102.957 328.41ZM102.137 330.28L100.087 334.95L96.1569 333.22L98.2069 328.55L102.137 330.28ZM99.2669 336.82L97.2169 341.49L93.2869 339.76L95.3369 335.09L99.2669 336.82ZM96.3869 343.37L94.3369 348.04L90.4069 346.31L92.4569 341.64L96.3869 343.37ZM98.2569 344.19L102.187 345.92L100.137 350.59L96.2069 348.86L98.2569 344.19ZM104.067 346.74L107.997 348.47L105.947 353.14L102.017 351.41L104.067 346.74ZM106.997 355.83L110.927 357.56L108.877 362.23L104.947 360.5L106.997 355.83ZM107.817 353.96L109.867 349.29L113.797 351.02L111.747 355.69L107.817 353.96ZM115.667 351.84L119.597 353.57L117.547 358.24L113.617 356.51L115.667 351.84ZM116.497 349.97L118.547 345.3L122.477 347.03L120.427 351.7L116.497 349.97ZM124.347 347.85L128.277 349.58L126.227 354.25L122.297 352.52L124.347 347.85ZM125.177 345.98L127.227 341.31L131.157 343.04L129.107 347.71L125.177 345.98ZM128.047 339.43L130.097 334.76L134.027 336.49L131.977 341.16L128.047 339.43ZM130.927 332.89L132.977 328.22L136.907 329.95L134.857 334.62L130.927 332.89ZM133.797 326.35L133.967 325.96L135.847 321.68L139.777 323.41L138.317 326.73L137.727 328.08L133.797 326.35ZM136.667 319.81L138.717 315.14L142.647 316.87L140.597 321.54L136.667 319.81ZM134.797 318.98L130.867 317.25L132.917 312.58L136.847 314.31L134.797 318.98ZM128.997 316.43L125.067 314.7L127.117 310.03L131.047 311.76L128.997 316.43ZM123.187 313.88L119.257 312.15L121.307 307.48L125.237 309.21L123.187 313.88ZM122.367 315.75L120.317 320.42L116.387 318.69L118.437 314.02L122.367 315.75ZM114.517 317.88L110.587 316.15L112.637 311.48L116.567 313.21L114.517 317.88ZM113.687 319.75L112.617 322.2L111.637 324.43L107.707 322.7L108.267 321.44L109.767 318.03L113.697 319.76L113.687 319.75ZM106.187 321.06L105.827 321.87L102.517 320.41L101.897 320.14L103.947 315.47L107.877 317.2L106.177 321.06H106.187ZM100.027 319.32L96.0969 317.59L98.1469 312.92L102.077 314.65L100.027 319.32ZM99.2069 321.19L97.1569 325.86L93.2269 324.13L95.2769 319.46L99.2069 321.19ZM96.3369 327.73L94.2869 332.4L90.3569 330.67L92.4069 326L96.3369 327.73ZM93.4569 334.27L91.4069 338.94L87.4769 337.21L89.5269 332.54L93.4569 334.27ZM90.5869 340.82L88.5369 345.49L84.6069 343.76L86.6569 339.09L90.5869 340.82ZM87.7069 347.36L85.6569 352.03L81.7269 350.3L83.7769 345.63L87.7069 347.36ZM89.5769 348.18L93.5069 349.91L91.4569 354.58L87.5269 352.85L89.5769 348.18ZM95.3869 350.73L99.3169 352.46L97.2669 357.13L93.3369 355.4L95.3869 350.73ZM101.187 353.28L105.117 355.01L103.067 359.68L99.1369 357.95L101.187 353.28ZM104.117 362.37L108.047 364.1L105.997 368.77L102.067 367.04L104.117 362.37ZM109.927 364.92L113.857 366.65L111.807 371.32L107.877 369.59L109.927 364.92ZM110.747 363.05L112.797 358.38L116.727 360.11L114.677 364.78L110.747 363.05ZM118.597 360.93L122.527 362.66L120.477 367.33L116.547 365.6L118.597 360.93ZM119.427 359.06L121.477 354.39L125.407 356.12L123.357 360.79L119.427 359.06ZM127.277 356.94L131.207 358.67L129.157 363.34L125.227 361.61L127.277 356.94ZM128.107 355.07L130.157 350.4L134.087 352.13L132.037 356.8L128.107 355.07ZM130.977 348.53L133.027 343.86L136.957 345.59L134.907 350.26L130.977 348.53ZM133.857 341.98L135.907 337.31L139.837 339.04L137.787 343.71L133.857 341.98ZM136.727 335.44L138.777 330.77L142.707 332.5L140.657 337.17L136.727 335.44ZM139.597 328.9L140.387 327.09L141.647 324.22L145.577 325.95L144.737 327.85L143.517 330.62L139.587 328.89L139.597 328.9ZM142.477 322.36L144.527 317.69L148.457 319.42L146.407 324.09L142.477 322.36ZM145.347 315.81L147.397 311.14L151.327 312.87L149.277 317.54L145.347 315.81ZM143.477 314.99L139.547 313.26L141.597 308.59L145.527 310.32L143.477 314.99ZM137.677 312.44L133.747 310.71L135.797 306.04L139.727 307.77L137.677 312.44ZM131.877 309.89L127.947 308.16L129.997 303.49L133.927 305.22L131.877 309.89ZM126.067 307.34L122.137 305.61L124.187 300.94L128.117 302.67L126.067 307.34ZM120.257 304.79L116.327 303.06L118.377 298.39L122.307 300.12L120.257 304.79ZM119.437 306.66L117.387 311.33L113.457 309.6L115.507 304.93L119.437 306.66ZM111.587 308.78L107.657 307.05L109.707 302.38L113.637 304.11L111.587 308.78ZM110.757 310.66L108.707 315.33L104.777 313.6L106.827 308.93L110.757 310.66ZM102.907 312.78L98.9769 311.05L101.027 306.38L104.957 308.11L102.907 312.78ZM97.0969 310.23L93.1669 308.5L95.2169 303.83L99.1469 305.56L97.0969 310.23ZM96.2769 312.1L94.2269 316.77L90.2969 315.04L92.3469 310.37L96.2769 312.1ZM93.4069 318.64L93.3369 318.8L91.3469 323.32L87.4169 321.59L88.9769 318.03L89.4669 316.91L93.3969 318.64H93.4069ZM90.5269 325.18L88.4769 329.85L84.5469 328.12L86.5969 323.45L90.5269 325.18ZM87.6569 331.72L85.6069 336.39L81.6769 334.66L83.7269 329.99L87.6569 331.72ZM84.7769 338.27L82.7269 342.94L78.7969 341.21L80.8469 336.54L84.7769 338.27ZM81.9069 344.81L79.8569 349.48L75.9269 347.75L77.9769 343.08L81.9069 344.81ZM79.0269 351.35L76.9769 356.02L73.0469 354.29L75.0969 349.62L79.0269 351.35ZM80.8969 352.17L84.8269 353.9L82.7769 358.57L78.8469 356.84L80.8969 352.17ZM86.7069 354.72L90.6369 356.45L88.5869 361.12L84.6569 359.39L86.7069 354.72ZM92.5069 357.27L96.4369 359L94.3869 363.67L90.4569 361.94L92.5069 357.27ZM98.3169 359.82L102.247 361.55L100.197 366.22L96.2669 364.49L98.3169 359.82ZM101.247 368.92L105.177 370.65L103.127 375.32L99.1969 373.59L101.247 368.92ZM107.047 371.46L110.977 373.19L108.927 377.86L104.997 376.13L107.047 371.46ZM112.857 374.02L116.787 375.75L114.737 380.42L110.807 378.69L112.857 374.02ZM113.677 372.14L115.727 367.47L119.657 369.2L117.607 373.87L113.677 372.14ZM121.527 370.02L125.457 371.75L123.407 376.42L119.477 374.69L121.527 370.02ZM122.357 368.15L124.407 363.48L128.337 365.21L126.287 369.88L122.357 368.15ZM130.207 366.03L134.137 367.76L132.087 372.43L128.157 370.7L130.207 366.03ZM131.037 364.16L133.087 359.49L137.017 361.22L134.967 365.89L131.037 364.16ZM133.907 357.62L135.957 352.95L139.887 354.68L137.837 359.35L133.907 357.62ZM136.787 351.08L138.837 346.41L142.767 348.14L140.717 352.81L136.787 351.08ZM139.657 344.53L141.707 339.86L145.637 341.59L143.587 346.26L139.657 344.53ZM142.527 337.99L144.577 333.32L148.507 335.05L146.457 339.72L142.527 337.99ZM145.407 331.45L146.827 328.22L147.457 326.77L151.387 328.5L151.177 328.98L149.337 333.17L145.407 331.44V331.45ZM148.277 324.91L150.327 320.24L154.257 321.97L152.207 326.64L148.277 324.91ZM151.157 318.36L153.207 313.69L157.137 315.42L155.087 320.09L151.157 318.36ZM152.157 311L148.227 309.27L150.277 304.6L154.207 306.33L152.157 311ZM146.357 308.45L142.427 306.72L144.477 302.05L148.407 303.78L146.357 308.45ZM140.547 305.9L136.617 304.17L138.667 299.5L142.597 301.23L140.547 305.9ZM134.747 303.35L130.817 301.62L132.867 296.95L136.797 298.68L134.747 303.35ZM128.947 300.8L125.017 299.07L127.067 294.4L130.997 296.13L128.947 300.8ZM126.017 291.71L122.087 289.98L125.307 282.64C126.777 282.77 128.237 282.98 129.717 283.29L126.017 291.71ZM125.187 293.58L123.137 298.25L119.207 296.52L121.257 291.85L125.187 293.58ZM117.327 295.7L113.397 293.97L115.447 289.3L119.377 291.03L117.327 295.7ZM116.507 297.57L114.457 302.24L110.527 300.51L112.577 295.84L116.507 297.57ZM108.657 299.69L104.727 297.96L106.777 293.29L110.707 295.02L108.657 299.69ZM107.827 301.56L105.777 306.23L101.847 304.5L103.897 299.83L107.827 301.56ZM99.9769 303.68L96.0469 301.95L98.0969 297.28L102.027 299.01L99.9769 303.68ZM94.1669 301.13L88.0169 298.43C89.2269 297.07 90.4869 295.77 91.8169 294.53L96.2169 296.46L94.1669 301.13ZM93.3469 303L91.2969 307.67L83.4369 304.22C84.4569 302.76 85.5169 301.37 86.6169 300.05L93.3469 303ZM90.4769 309.55L88.4269 314.22L79.5869 310.34C80.4569 308.8 81.3469 307.34 82.2669 305.95L90.4769 309.56V309.55ZM87.5969 316.09L86.9069 317.66L85.5469 320.76L76.2969 316.69C76.4269 316.41 76.5669 316.13 76.6969 315.85C77.3269 314.56 77.9569 313.32 78.5969 312.12L87.5969 316.08V316.09ZM84.7269 322.63L82.6769 327.3L73.4369 323.24C73.7969 322.28 74.1769 321.34 74.5669 320.44C74.8469 319.79 75.1369 319.17 75.4269 318.54L84.7269 322.62V322.63ZM81.8469 329.17L79.7969 333.84L71.2769 330.1C71.7069 328.39 72.2069 326.75 72.7369 325.17L81.8369 329.17H81.8469ZM78.9769 335.72L76.9269 340.39L69.8669 337.29C70.1169 335.53 70.4269 333.81 70.8069 332.13L78.9769 335.72ZM76.0969 342.26L74.0469 346.93L69.2269 344.81C69.2769 342.99 69.3969 341.18 69.5969 339.4L76.1069 342.26H76.0969ZM78.0269 358.71L81.9569 360.44L79.9069 365.11L75.9769 363.38L78.0269 358.71ZM83.8269 361.26L87.7569 362.99L85.7069 367.66L81.7769 365.93L83.8269 361.26ZM89.6369 363.82L93.5669 365.55L91.5169 370.22L87.5869 368.49L89.6369 363.82ZM95.4369 366.37L99.3669 368.1L97.3169 372.77L93.3869 371.04L95.4369 366.37ZM98.3669 375.46L102.297 377.19L99.4069 383.77L97.7469 387.54C96.4069 387.14 95.0569 386.65 93.6969 386.09L94.8369 383.5L98.3669 375.46ZM101.627 383.8L104.167 378.01L108.097 379.74L106.367 383.69L104.097 388.86C102.667 388.69 101.217 388.43 99.7469 388.07L101.627 383.8ZM108.667 383.55L109.977 380.56L113.907 382.29L113.567 383.07L110.947 389.03C109.407 389.14 107.837 389.15 106.247 389.05L108.657 383.55H108.667ZM115.787 383.11L119.717 384.84L118.467 387.68C116.777 388.16 115.057 388.54 113.287 388.78L115.777 383.1L115.787 383.11ZM118.837 382.22L116.607 381.24L118.657 376.57L122.587 378.3L121.077 381.74L120.537 382.97L118.837 382.22ZM121.587 385.66L122.777 386.18C122.217 386.41 121.647 386.63 121.077 386.83L121.597 385.65L121.587 385.66ZM122.407 383.79L123.587 381.11L124.457 379.12L126.787 380.14L128.387 380.85L126.907 384.21C126.367 384.5 125.817 384.78 125.267 385.05L122.397 383.79H122.407ZM131.767 378.24L133.137 375.13L135.767 376.29L137.157 376.9C135.747 378.17 134.267 379.39 132.727 380.53L131.087 379.81L131.767 378.25V378.24ZM133.967 373.25L136.017 368.58L142.517 371.44C142.117 371.9 141.707 372.35 141.297 372.8C140.487 373.68 139.647 374.53 138.787 375.37L137.977 375.01L133.967 373.25ZM136.837 366.71L138.887 362.04L147.057 365.63C146.067 367.04 145.017 368.44 143.887 369.81L136.827 366.71H136.837ZM139.717 360.17L141.767 355.5L150.867 359.5C150.067 360.96 149.197 362.44 148.227 363.91L139.707 360.17H139.717ZM142.587 353.63L144.637 348.96L153.937 353.04C153.667 353.67 153.407 354.31 153.117 354.96C152.727 355.85 152.277 356.77 151.817 357.69L142.577 353.63H142.587ZM145.457 347.08L147.507 342.41L156.507 346.37C155.967 347.93 155.357 349.52 154.707 351.15L145.447 347.08H145.457ZM148.337 340.54L150.387 335.87L158.597 339.48C158.187 341.1 157.717 342.75 157.177 344.43L148.337 340.55V340.54ZM151.207 334L153.247 329.36V329.33L153.377 329.38L159.977 332.28C159.747 333.99 159.437 335.71 159.057 337.45L151.207 334ZM154.087 327.46L156.137 322.79L160.537 324.72C160.517 326.55 160.417 328.35 160.237 330.16L154.087 327.46ZM156.957 320.92L159.007 316.25L160.127 316.74C160.337 318.69 160.467 320.6 160.517 322.48L156.957 320.92ZM157.967 313.55L154.037 311.82L156.087 307.15L157.677 307.85C158.167 309.02 158.597 310.17 158.957 311.3L157.967 313.55ZM155.037 304.46L151.107 302.73L152.767 298.95C153.787 300.4 154.707 301.88 155.517 303.37L155.037 304.46ZM149.227 301.91L145.297 300.18L148.227 293.52C149.347 294.66 150.397 295.84 151.357 297.07L149.227 301.91ZM143.427 299.36L139.497 297.63L143.197 289.21C144.417 290.09 145.567 291.03 146.657 292.01L143.437 299.35L143.427 299.36ZM137.617 296.81L133.687 295.08L137.687 285.98C139.007 286.61 140.277 287.29 141.477 288.04L137.627 296.81H137.617ZM131.817 294.26L127.887 292.53L131.737 283.76C133.107 284.13 134.467 284.6 135.817 285.15L131.817 294.25V294.26ZM122.767 273.63C122.887 273.24 123.097 272.93 123.287 272.69C123.677 272.21 124.067 272.02 124.067 272.02C124.067 272.02 123.967 272.4 123.817 272.96C123.767 273.23 123.677 273.54 123.647 273.85C123.607 274.01 123.647 274.16 123.607 274.32C123.627 274.47 123.607 274.63 123.657 274.77C123.657 274.83 123.667 274.88 123.687 274.94C123.707 275.03 123.737 275.12 123.767 275.2C123.797 275.31 123.857 275.42 123.917 275.52C123.927 275.55 123.947 275.57 123.957 275.6C124.117 275.85 124.297 276.1 124.477 276.3C124.647 276.52 124.837 276.67 124.947 276.8C125.067 276.93 125.137 277.01 125.137 277.01C125.137 277.01 125.037 277.01 124.857 276.98C124.687 276.94 124.417 276.93 124.137 276.78C123.837 276.67 123.517 276.45 123.227 276.15C123.107 275.97 122.927 275.82 122.857 275.6C122.837 275.55 122.807 275.49 122.787 275.44C122.717 275.28 122.667 275.11 122.647 274.94C122.647 274.92 122.647 274.89 122.647 274.87C122.587 274.43 122.647 273.99 122.777 273.63H122.767ZM118.397 282.59C119.947 282.47 121.537 282.44 123.127 282.5L120.197 289.16L116.267 287.43L118.397 282.59ZM110.947 283.79C112.597 283.38 114.297 283.06 116.067 282.83L114.407 286.61L110.477 284.88L110.957 283.79H110.947ZM113.577 288.48L111.527 293.15L107.597 291.42L109.647 286.75L113.577 288.48ZM102.777 286.62C103.857 286.13 104.997 285.66 106.187 285.23L107.777 285.93L105.727 290.6L101.797 288.87L102.787 286.62H102.777ZM104.897 292.47L102.847 297.14L98.9169 295.41L100.967 290.74L104.897 292.47ZM97.0469 294.59L93.4869 293.03C94.9069 291.79 96.3969 290.6 97.9769 289.43L99.0969 289.92L97.0469 294.59ZM74.5969 373.1C74.1969 372.49 73.5069 371.67 72.8169 370.49C72.1769 369.29 71.2569 367.88 70.5369 366.11C69.7069 364.39 68.9969 362.35 68.3469 360.09C68.0769 358.95 67.7169 357.77 67.4969 356.52C67.3069 355.27 66.9969 353.99 66.8769 352.64C66.7469 351.3 66.5369 349.92 66.5169 348.51C66.4869 347.8 66.4669 347.09 66.4369 346.36C66.4269 345.64 66.4669 344.91 66.4769 344.17C66.5169 341.23 66.8669 338.2 67.3069 335.14C67.8569 332.1 68.4569 329.02 69.4069 326.02C70.3369 323.03 71.4969 320.07 72.8169 317.31C73.1269 316.65 73.4469 315.99 73.7569 315.33C74.7669 313.24 75.8169 311.2 76.9269 309.26C78.3669 306.7 79.9369 304.33 81.5269 302.16C83.1369 300 84.7869 298.06 86.3769 296.34C87.9969 294.65 89.5569 293.16 91.0169 291.94C91.7369 291.31 92.4269 290.76 93.0769 290.25C93.7169 289.73 94.3169 289.28 94.8669 288.88C95.9569 288.06 96.8569 287.48 97.4569 287.07C97.9469 286.74 98.2569 286.54 98.3469 286.47C98.2469 286.55 97.9669 286.77 97.4969 287.13C96.9169 287.57 96.0869 288.23 95.0369 289.11C94.5069 289.53 93.9369 290.02 93.3269 290.57C92.7069 291.1 92.0569 291.69 91.3769 292.35C89.9969 293.64 88.5469 295.19 86.9869 296.9C85.4769 298.65 83.9169 300.62 82.4069 302.79C80.9169 304.98 79.4769 307.37 78.0569 309.89C77.0369 311.71 76.0869 313.61 75.1669 315.56C74.7969 316.32 74.4469 317.1 74.0869 317.87C72.7969 320.64 71.7269 323.5 70.8369 326.44C69.8769 329.36 69.2569 332.38 68.6869 335.35C68.2269 338.34 67.8469 341.3 67.7769 344.19C67.7569 344.91 67.7069 345.62 67.7169 346.33C67.7169 347.04 67.7369 347.74 67.7469 348.43C67.7169 349.82 67.8869 351.17 67.9569 352.49C68.0269 353.81 68.2869 355.07 68.4369 356.31C68.6069 357.54 68.9269 358.71 69.1469 359.84C69.3669 360.97 69.7769 362.01 70.0369 363.03C70.2969 364.06 70.6969 364.97 71.0269 365.85C71.6369 367.64 72.4569 369.06 73.0269 370.29C73.6569 371.49 74.2669 372.38 74.6169 373.01C74.9469 373.56 75.1369 373.88 75.1869 373.95C75.1369 373.88 74.9169 373.57 74.5469 373.06L74.5969 373.1ZM73.8969 368.1L75.1469 365.26L79.0769 366.99L76.5869 372.67C75.5669 371.21 74.6869 369.68 73.8969 368.11V368.1ZM81.1569 378.03C80.0069 376.92 78.9569 375.76 77.9869 374.55L80.9469 367.81L84.8769 369.54L81.1469 378.03H81.1569ZM86.3269 382.03L86.2769 382.14C86.1769 382.07 86.0769 382 85.9769 381.93C84.8369 381.15 83.7669 380.33 82.7569 379.47L86.7569 370.36L90.6869 372.09L86.3169 382.03H86.3269ZM88.3469 382.51L92.5669 372.91L96.4969 374.64L92.7069 383.26L91.8269 385.27C90.4869 384.64 89.2069 383.98 88.0169 383.26L88.3469 382.51ZM161.497 298.08C161.577 298.37 161.677 298.7 161.777 299.06C162.027 299.9 162.337 300.94 162.647 302.17C162.677 302.3 162.707 302.42 162.737 302.55C163.257 304.49 163.797 306.86 164.347 309.6C164.857 312.34 165.397 315.46 165.637 318.9C165.737 319.84 165.787 320.8 165.817 321.79C165.847 322.61 165.867 323.44 165.897 324.28C165.857 326.14 165.857 328.07 165.667 330.04C165.627 330.53 165.587 331.03 165.527 331.53C165.177 335.02 164.537 338.65 163.557 342.3C162.447 346.47 160.927 350.69 159.217 354.86C158.377 356.93 157.437 359.06 156.377 361.1C155.297 363.14 154.147 365.14 152.887 367.07C150.327 370.91 147.447 374.55 144.277 377.8C141.117 381.06 137.697 383.99 134.107 386.41C130.527 388.85 126.777 390.79 123.027 392.14C119.287 393.5 115.587 394.29 112.147 394.61C108.697 394.95 105.507 394.8 102.737 394.37C101.337 394.23 100.067 393.88 98.8769 393.66C97.7069 393.36 96.6369 393.05 95.6669 392.78C94.7169 392.45 93.8769 392.15 93.1369 391.89C92.4069 391.63 91.8169 391.33 91.3169 391.13C90.4569 390.76 89.9469 390.54 89.8369 390.49C89.9569 390.53 90.4769 390.73 91.3569 391.06C91.8569 391.24 92.4669 391.5 93.2169 391.73C93.9569 391.95 94.8069 392.21 95.7569 392.51C96.7269 392.75 97.7969 393.01 98.9669 393.26C100.157 393.43 101.417 393.73 102.807 393.82C105.557 394.13 108.687 394.16 112.057 393.77C115.427 393.38 119.017 392.52 122.637 391.11C126.267 389.72 129.857 387.71 133.357 385.33C136.857 382.94 140.177 380.05 143.247 376.82C146.337 373.61 149.127 370.02 151.607 366.24C152.847 364.35 154.007 362.4 155.067 360.42C156.127 358.42 157.027 356.41 157.897 354.32C159.637 350.19 161.147 346.07 162.277 341.96C163.247 338.35 163.967 334.78 164.397 331.34C164.457 330.87 164.507 330.41 164.557 329.95C164.637 329.29 164.697 328.63 164.737 327.97C164.827 326.72 164.867 325.49 164.917 324.28C164.887 322.45 164.917 320.67 164.787 318.97C164.617 315.57 164.187 312.46 163.797 309.71C163.347 306.97 162.897 304.58 162.457 302.64C162.337 302.04 162.207 301.48 162.097 300.96C161.887 300.04 161.697 299.25 161.537 298.61C161.497 298.44 161.457 298.27 161.427 298.12C161.207 297.21 161.077 296.67 161.057 296.55C161.097 296.67 161.247 297.2 161.517 298.1L161.497 298.08ZM160.587 309.89C160.757 310.63 160.937 311.26 161.017 311.8C161.197 312.8 161.287 313.4 161.297 313.47C161.267 313.4 161.057 312.83 160.737 311.88C160.577 311.36 160.317 310.76 160.047 310.07C159.787 309.37 159.417 308.61 159.057 307.77C158.707 306.93 158.217 306.05 157.787 305.1C157.267 304.19 156.787 303.2 156.187 302.22C155.897 301.73 155.617 301.23 155.297 300.74C154.977 300.25 154.657 299.75 154.327 299.25C154.017 298.74 153.637 298.27 153.297 297.78C152.947 297.29 152.597 296.79 152.207 296.33L151.087 294.9C150.687 294.45 150.297 294 149.897 293.55C149.097 292.66 148.287 291.81 147.477 291.02C146.637 290.25 145.857 289.47 145.037 288.82C144.247 288.13 143.467 287.53 142.727 286.99C142.007 286.42 141.307 285.98 140.687 285.56C140.377 285.35 140.087 285.15 139.817 284.98C139.537 284.82 139.277 284.67 139.037 284.53C138.107 283.99 137.577 283.66 137.577 283.66C137.577 283.66 138.157 283.87 139.167 284.27C139.417 284.37 139.697 284.48 139.997 284.6C140.287 284.74 140.607 284.9 140.947 285.07C141.627 285.4 142.417 285.76 143.197 286.27C143.597 286.51 144.017 286.77 144.447 287.03C144.877 287.3 145.287 287.62 145.727 287.93C146.617 288.54 147.487 289.27 148.377 290.03C148.837 290.4 149.237 290.84 149.687 291.25C150.117 291.67 150.577 292.08 150.977 292.55C151.387 293.01 151.807 293.47 152.227 293.93L153.407 295.39C153.807 295.87 154.157 296.39 154.517 296.9C154.867 297.42 155.247 297.91 155.567 298.44C156.237 299.48 156.837 300.53 157.377 301.57C157.957 302.59 158.377 303.65 158.827 304.61C159.207 305.61 159.607 306.54 159.877 307.44C160.167 308.33 160.427 309.14 160.587 309.89Z" stroke="#03412C" stroke-width="1.75" stroke-miterlimit="10"/>
<path d="M271.557 110L260.447 173.05L230.507 342.97L230.377 342.95C230.277 343.85 230.157 344.74 230.037 345.64L228.237 355.84C226.757 362.76 224.747 369.59 222.227 376.23C215.427 394.16 205.177 410.24 192.347 423.45C184.217 431.82 175.047 439.04 165.057 444.84C147.377 455.11 127.747 460.54 108.267 460.54C95.4369 460.54 82.8669 458.24 70.9169 453.7C59.0469 449.2 48.1869 442.63 38.6269 434.19C34.7369 430.76 31.0969 427.03 27.7369 423.05C24.6969 419.46 21.8769 415.67 19.2969 411.68C13.8469 403.28 9.4469 394.06 6.2369 384.25C0.436896 366.53 -1.3631 347 1.02691 327.77C1.02691 327.73 1.03689 327.68 1.04689 327.64C2.06689 319.48 3.8269 311.37 6.3069 303.43L69.2369 314.53C68.7869 315.57 68.3569 316.63 67.9569 317.7C67.9569 317.73 67.9369 317.75 67.9269 317.78C64.8269 324.93 62.5269 334.09 62.1269 343.64V343.9C61.8069 352.11 62.9069 360.59 66.1069 368.35C69.1169 375.65 73.9969 382.3 81.3169 387.45C83.3269 388.86 85.5169 390.16 87.9069 391.33C88.5469 391.64 89.2069 391.95 89.8769 392.24C111.787 401.87 131.007 393.11 144.257 380L144.337 380.04L144.437 379.82C151.277 372.99 156.507 365.01 159.667 357.83C163.797 348.43 166.297 340.17 167.247 331.82C167.537 329.3 167.677 326.76 167.687 324.19C167.687 321.08 167.487 317.91 167.087 314.62C167.077 314.49 167.057 314.36 167.037 314.24C166.337 308.65 165.057 302.71 163.217 296.12C158.177 278.03 160.907 249.4 162.147 239.08C164.747 237.39 167.667 234.54 169.787 229.71C170.397 228.32 171.177 226.56 172.057 224.54C174.407 219.18 177.567 212.01 180.607 205.08C184.837 195.46 188.847 186.33 190.207 183.23C190.387 182.82 190.517 182.52 190.607 182.33C191.907 179.37 194.527 178.1 196.037 174.68C196.267 174.16 196.157 173.62 195.807 173.08H196.467L195.797 173.07C195.207 172.16 193.947 171.23 192.477 170.38C191.137 169.6 189.617 168.89 188.297 168.3C184.647 166.7 179.317 164.73 178.357 166.91C177.367 169.16 177.397 171.14 177.157 173.07C177.157 173.07 177.157 173.08 177.157 173.09C177.037 174.09 176.837 175.08 176.397 176.09C175.627 177.84 170.187 190.22 164.877 202.32L116.997 193.88L120.667 173.09V173.07L130.267 118.67L131.787 110.03H207.557H207.607H271.597L271.557 110Z" fill="#03412C"/>
<path d="M454.367 274.21H337.427L331.487 302.04H439.987L429.047 353.63H320.547L313.667 386.15H433.737L421.857 442.74H234.257L281.467 220.12H465.947L454.377 274.21H454.367Z" fill="#03412C"/>
<path d="M624.147 373.95C618.727 399.59 608.617 418.35 593.817 430.23C579.017 442.11 558.897 448.05 533.467 448.05C510.117 448.05 491.937 442.89 478.907 432.57C465.877 422.25 459.367 407.92 459.367 389.58C459.367 379.78 461.137 366.23 464.687 348.93H526.287C522.947 364.56 521.287 374.78 521.287 379.57C521.287 389.58 526.497 394.58 536.917 394.58C538.797 394.58 540.457 394.42 541.917 394.11C543.377 393.8 544.727 393.22 545.977 392.39C547.227 391.56 548.267 390.83 549.107 390.2C549.937 389.58 550.727 388.48 551.457 386.92C552.187 385.36 552.807 384.26 553.337 383.64C553.857 383.02 554.377 381.66 554.897 379.58C555.417 377.5 555.727 376.19 555.837 375.67C555.937 375.15 556.257 373.64 556.777 371.14C557.297 368.64 557.557 367.28 557.557 367.08L588.827 220.12H656.677L624.157 373.96L624.147 373.95Z" fill="#03412C"/>
<path d="M855.837 442.74H788.297L784.547 411.16H711.697L694.497 442.74H624.147L753.597 220.12H820.817L855.837 442.74ZM749.537 339.24L736.717 363H779.557L775.177 323.29C773.927 313.28 773.197 302.44 772.987 290.77C767.357 304.32 759.547 320.47 749.537 339.23V339.24Z" fill="#03412C"/>
<path d="M1031.26 311.73L1095.67 442.74H1018.44L977.787 356.13L953.397 377.39L939.327 442.74H871.477L918.687 220.12H986.537L977.787 262.64C975.287 274.52 972.157 286.51 968.407 298.6C974.657 290.68 986.647 278.38 1004.37 261.71L1048.46 220.12H1137.88L1031.26 311.73Z" fill="#03412C"/>
<path d="M441.409 480.813L440.02 487.312H425.634L417.557 525.74H409.669L417.746 487.312H403.044L404.432 480.813H441.409Z" fill="#03412C"/>
<path d="M461.599 515.644C460.716 519.304 458.823 522.08 455.983 523.973C453.144 525.866 449.799 526.813 445.887 526.813C441.407 526.813 437.937 525.551 435.413 523.027C432.889 520.503 431.69 516.969 431.69 512.489C431.69 506.747 433.393 501.951 436.864 498.102C440.271 494.253 444.562 492.297 449.736 492.297C453.964 492.297 457.308 493.559 459.769 496.02C462.167 498.544 463.429 501.951 463.429 506.242C463.429 507.693 463.24 509.397 462.987 511.353H438.757C438.631 512.552 438.631 513.183 438.631 513.246C438.631 515.833 439.325 517.852 440.713 519.304C442.101 520.755 443.994 521.449 446.392 521.449C450.304 521.449 452.954 519.556 454.469 515.644H461.599ZM439.577 506.431H456.614V505.548C456.614 503.024 455.983 501.068 454.784 499.68C453.522 498.355 451.755 497.66 449.484 497.66C447.086 497.66 445.004 498.481 443.237 499.995C441.47 501.51 440.271 503.655 439.577 506.431Z" fill="#03412C"/>
<path d="M478.93 493.18L477.858 498.102C480.886 494.316 484.736 492.36 489.405 492.36C492.308 492.36 494.579 493.117 496.346 494.632C498.113 496.146 498.996 498.102 498.996 500.563C498.996 502.014 498.744 503.844 498.239 506.116L494.137 525.74H486.818L490.982 506.242C491.235 504.98 491.424 503.718 491.424 502.456C491.424 501.131 490.982 500.121 490.099 499.364C489.216 498.67 488.017 498.291 486.502 498.291C483.6 498.291 481.265 499.301 479.561 501.194C477.858 503.087 476.722 505.548 476.091 508.514L472.431 525.74H465.238L472.179 493.18H478.93Z" fill="#03412C"/>
<path d="M515.164 493.18L514.091 498.102C517.12 494.316 520.969 492.36 525.638 492.36C528.541 492.36 530.812 493.117 532.579 494.632C534.346 496.146 535.229 498.102 535.229 500.563C535.229 502.014 534.977 503.844 534.472 506.116L530.371 525.74H523.051L527.216 506.242C527.468 504.98 527.657 503.718 527.657 502.456C527.657 501.131 527.216 500.121 526.332 499.364C525.449 498.67 524.25 498.291 522.736 498.291C519.833 498.291 517.498 499.301 515.795 501.194C514.091 503.087 512.955 505.548 512.324 508.514L508.664 525.74H501.471L508.412 493.18H515.164Z" fill="#03412C"/>
<path d="M551.965 493.18L545.087 525.74H537.893L544.771 493.18H551.965ZM554.615 480.623L553.1 487.691H545.97L547.485 480.623H554.615Z" fill="#03412C"/>
<path d="M582.897 502.708H576.082C576.082 500.752 575.514 499.364 574.505 498.607C573.432 497.85 571.854 497.408 569.772 497.408C567.879 497.408 566.428 497.787 565.418 498.481C564.409 499.175 563.904 500.121 563.904 501.32C563.904 502.519 564.472 503.466 565.608 504.097C566.743 504.791 568.699 505.548 571.35 506.431C571.981 506.621 572.422 506.747 572.801 506.873C578.291 508.766 581.067 511.732 581.067 515.77C581.067 519.43 579.616 522.206 576.839 523.973C574 525.803 570.656 526.686 566.806 526.686C562.453 526.686 559.108 525.803 556.71 523.91C554.313 522.017 553.177 519.367 553.177 515.959V515.328H559.992V515.518C559.992 519.493 562.453 521.449 567.374 521.449C569.33 521.449 570.908 521.071 572.107 520.25C573.306 519.43 573.937 518.294 573.937 516.906C573.937 515.644 573.432 514.634 572.485 514.003C571.476 513.372 569.457 512.552 566.365 511.416C566.239 511.416 566.112 511.353 566.049 511.29C564.787 510.848 563.904 510.533 563.336 510.28C562.705 510.028 561.948 509.649 560.938 509.082C559.929 508.577 559.234 508.009 558.73 507.441C558.225 506.936 557.846 506.179 557.468 505.296C557.089 504.412 556.9 503.339 556.9 502.204C556.9 499.175 558.099 496.777 560.56 495.01C562.957 493.243 566.239 492.297 570.34 492.297C574.252 492.297 577.344 493.18 579.553 494.884C581.761 496.588 582.897 498.986 582.897 502.014V502.708Z" fill="#03412C"/>
<path d="M644.881 510.091C643.746 515.328 641.348 519.43 637.625 522.396C633.902 525.361 629.359 526.813 623.995 526.813C618.064 526.813 613.458 525.109 610.176 521.638C606.832 518.168 605.191 513.309 605.191 507.125C605.191 502.267 606.138 497.787 608.031 493.685C609.924 489.584 612.763 486.239 616.549 483.652C620.335 481.128 624.689 479.803 629.674 479.803C634.848 479.803 639.076 481.191 642.231 483.968C645.386 486.744 646.964 490.467 646.964 495.01V495.831H639.329C639.202 492.549 638.256 490.152 636.615 488.637C634.912 487.123 632.388 486.302 629.043 486.302C626.456 486.302 624.121 486.997 622.039 488.259C619.894 489.521 618.19 491.224 616.928 493.243C615.666 495.263 614.656 497.471 614.025 499.869C613.331 502.267 613.016 504.728 613.016 507.125C613.016 511.29 613.962 514.571 615.982 516.906C618.001 519.241 620.777 520.376 624.374 520.376C627.529 520.376 630.242 519.493 632.388 517.726C634.533 515.959 636.047 513.372 636.931 510.091H644.881Z" fill="#03412C"/>
<path d="M664.422 480.813L654.957 525.74H647.764L657.292 480.813H664.422Z" fill="#03412C"/>
<path d="M698.068 493.18L691.19 525.74H684.375L685.511 520.881C682.734 524.793 679.075 526.686 674.405 526.686C671.44 526.686 669.105 525.929 667.338 524.415C665.571 522.9 664.751 520.818 664.751 518.231C664.751 516.906 664.94 515.139 665.445 512.868L669.61 493.18H676.866L673.206 510.407C672.512 513.499 672.197 515.581 672.197 516.717C672.197 518.042 672.638 519.051 673.585 519.809C674.468 520.566 675.73 520.881 677.371 520.881C680.021 520.881 682.23 519.872 683.87 517.852C685.511 515.833 686.647 513.309 687.278 510.407L690.937 493.18H698.068Z" fill="#03412C"/>
<path d="M715.876 480.813L712.468 497.029C715.119 493.938 718.463 492.36 722.501 492.36C726.287 492.36 729.253 493.622 731.461 496.02C733.67 498.481 734.806 501.825 734.806 505.99C734.806 511.416 733.228 516.212 730.136 520.376C727.044 524.541 722.943 526.623 717.769 526.623C712.153 526.623 708.556 524.478 707.042 520.187L705.906 525.74H699.154L708.809 480.813H715.876ZM720.167 497.913C716.633 497.913 713.92 499.553 712.027 502.708C710.071 505.927 709.124 509.397 709.124 513.12C709.124 515.581 709.755 517.537 711.143 518.925C712.468 520.376 714.298 521.071 716.57 521.071C719.599 521.071 722.249 519.682 724.394 516.78C726.54 513.877 727.612 510.407 727.612 506.305C727.612 503.781 726.981 501.699 725.719 500.184C724.457 498.67 722.627 497.913 720.167 497.913Z" fill="#03412C"/>
<path d="M1087.44 505.99H787.437V511.99H1087.44V505.99Z" fill="#03412C"/>
<path d="M350.437 505.99H50.437V511.99H350.437V505.99Z" fill="#03412C"/>
</svg>
