<svg width="2004" height="704" viewBox="0 0 2004 704" fill="none" xmlns="http://www.w3.org/2000/svg">
<path d="M419.477 173.05C419.477 173.05 419.497 173.06 419.507 173.06C420.067 173.37 420.497 173.64 420.847 173.88L420.987 173.06L419.477 173.05ZM401.027 203.56L393.787 221.12L389.477 231.56L394.257 221.33L402.437 203.81L401.027 203.56ZM424.797 173.06C424.797 173.06 424.797 173.06 424.797 173.05C424.207 172.14 422.947 171.21 421.477 170.36C420.137 169.58 418.617 168.87 417.297 168.28C413.647 166.68 408.317 164.71 407.357 166.89C406.367 169.14 406.397 171.12 406.157 173.05C406.157 173.05 406.157 173.06 406.157 173.07C406.037 174.07 405.837 175.06 405.397 176.07C404.627 177.82 399.187 190.2 393.877 202.3C391.337 208.09 388.817 213.81 386.857 218.28C385.967 220.3 385.197 222.06 384.587 223.45C382.467 228.28 382.337 232.36 382.847 235.41C376.077 243.3 356.817 264.69 340.107 273.21C328.327 279.21 319.737 285.11 312.867 292.42C307.127 298.53 302.597 305.62 298.417 314.57C297.957 315.55 297.507 316.55 297.057 317.57C297.027 317.65 296.987 317.72 296.957 317.8C293.857 324.95 291.557 334.11 291.157 343.66V343.92C290.837 352.13 291.937 360.61 295.137 368.37C298.147 375.67 303.027 382.32 310.347 387.47C312.357 388.88 314.547 390.18 316.937 391.35C317.577 391.66 318.237 391.97 318.907 392.26C340.817 401.89 360.037 393.13 373.287 380.02L373.367 380.06L373.467 379.84C380.307 373.01 385.537 365.03 388.697 357.85C392.827 348.45 395.327 340.19 396.277 331.84C396.567 329.32 396.707 326.78 396.717 324.21C396.717 321.1 396.517 317.93 396.117 314.64C396.107 314.51 396.087 314.38 396.067 314.26C395.367 308.67 394.087 302.73 392.247 296.14C387.207 278.05 389.937 249.42 391.177 239.1C393.777 237.41 396.697 234.56 398.817 229.73C399.427 228.34 400.207 226.58 401.087 224.56C403.437 219.2 406.597 212.03 409.637 205.1C413.867 195.48 417.877 186.35 419.237 183.25C419.417 182.84 419.547 182.54 419.637 182.35C420.937 179.39 423.557 178.12 425.067 174.7C425.297 174.18 425.187 173.64 424.837 173.1L424.797 173.06ZM379.817 246.3C380.167 245.97 380.647 245.63 381.267 245.46C381.577 245.37 381.917 245.32 382.267 245.35C382.447 245.37 382.637 245.41 382.827 245.44L383.257 245.58C383.487 245.69 383.587 245.76 383.757 245.85C383.897 245.95 384.037 246.06 384.177 246.17C384.437 246.41 384.627 246.7 384.777 246.99C385.067 247.57 385.147 248.16 385.127 248.63C385.107 249.59 384.797 250.15 384.797 250.15C384.797 250.15 384.747 249.52 384.527 248.7C384.407 248.29 384.237 247.84 383.967 247.45C383.837 247.25 383.657 247.09 383.487 246.93L383.197 246.72C383.097 246.67 382.937 246.6 382.907 246.57L382.487 246.42L382.177 246.36C381.937 246.35 381.707 246.32 381.467 246.36C380.997 246.42 380.547 246.6 380.167 246.79C379.407 247.18 378.907 247.56 378.907 247.56C378.907 247.56 379.117 246.96 379.817 246.3ZM354.667 272.43C364.777 264.98 374.497 255.23 380.877 248.36C381.407 247.79 382.037 248 382.217 248.08C382.397 248.16 382.977 248.48 382.917 249.26C382.167 258.6 381.557 272.35 382.917 284.84C382.997 285.59 382.697 286.27 382.097 286.72C381.877 286.88 381.637 287 381.387 287.06C381.127 287.13 380.857 287.15 380.597 287.12C380.417 287.1 380.237 287.05 380.067 286.97C379.877 286.88 379.687 286.76 379.517 286.61C377.907 285.19 376.237 283.89 374.497 282.75C372.547 281.46 370.517 280.36 368.437 279.44C366.327 278.51 364.107 277.76 361.807 277.19C359.817 276.69 357.767 276.34 355.657 276.12C355.427 276.1 355.217 276.04 355.027 275.96C354.867 275.89 354.717 275.8 354.587 275.69C354.377 275.52 354.207 275.3 354.087 275.06C353.967 274.83 353.887 274.57 353.857 274.29C353.777 273.55 354.077 272.86 354.687 272.41L354.667 272.43ZM358.217 378.98L354.287 377.25L356.337 372.58L360.267 374.31L358.217 378.98ZM359.777 381.89C359.497 382.08 359.217 382.25 358.937 382.43L359.277 381.67L359.787 381.89H359.777ZM300.237 361.31C300.067 360.72 299.897 360.13 299.747 359.53L301.227 356.16L305.157 357.89L303.107 362.56L300.237 361.3V361.31ZM302.277 364.44L301.757 365.62C301.517 365.06 301.297 364.49 301.087 363.92L302.277 364.44ZM298.527 352.75C298.317 350.85 298.217 348.94 298.197 347.03L302.217 348.8L300.167 353.47L298.527 352.75ZM299.347 355.34L299.007 356.1C298.947 355.77 298.887 355.44 298.837 355.11L299.347 355.33V355.34ZM334.887 337.5L330.957 335.77L333.007 331.1L336.937 332.83L334.887 337.5ZM338.817 333.65L342.747 335.38L340.697 340.05L336.767 338.32L338.817 333.65ZM334.067 339.37L332.017 344.04L328.087 342.31L330.137 337.64L334.067 339.37ZM335.937 340.2L339.867 341.93L337.817 346.6L333.887 344.87L335.937 340.2ZM341.747 342.75L345.677 344.48L343.627 349.15L339.697 347.42L341.747 342.75ZM342.567 340.88L344.617 336.21L348.547 337.94L346.497 342.61L342.567 340.88ZM345.437 334.33L347.487 329.66L351.417 331.39L349.367 336.06L345.437 334.33ZM350.417 338.75L354.347 340.48L352.297 345.15L348.367 343.42L350.417 338.75ZM351.247 336.88L353.297 332.21L357.227 333.94L355.177 338.61L351.247 336.88ZM354.117 330.34L356.167 325.67L360.097 327.4L358.047 332.07L354.117 330.34ZM356.997 323.8L359.047 319.13L362.977 320.86L360.927 325.53L356.997 323.8ZM355.117 322.98L351.187 321.25L353.237 316.58L357.167 318.31L355.117 322.98ZM352.707 324.15L354.297 324.85L352.247 329.52L348.317 327.79L350.117 323.69L350.367 323.12L352.717 324.15H352.707ZM348.047 323.33L346.447 326.97L342.517 325.24L343.697 322.56L344.567 320.57L348.497 322.3L348.047 323.33ZM345.617 328.84L343.567 333.51L339.637 331.78L341.687 327.11L345.617 328.84ZM337.767 330.96L333.837 329.23L335.887 324.56L339.817 326.29L337.767 330.96ZM331.957 328.41L328.027 326.68L330.077 322.01L334.007 323.74L331.957 328.41ZM331.137 330.28L329.087 334.95L325.157 333.22L327.207 328.55L331.137 330.28ZM328.267 336.82L326.217 341.49L322.287 339.76L324.337 335.09L328.267 336.82ZM325.387 343.37L323.337 348.04L319.407 346.31L321.457 341.64L325.387 343.37ZM327.257 344.19L331.187 345.92L329.137 350.59L325.207 348.86L327.257 344.19ZM333.067 346.74L336.997 348.47L334.947 353.14L331.017 351.41L333.067 346.74ZM335.997 355.83L339.927 357.56L337.877 362.23L333.947 360.5L335.997 355.83ZM336.817 353.96L338.867 349.29L342.797 351.02L340.747 355.69L336.817 353.96ZM344.667 351.84L348.597 353.57L346.547 358.24L342.617 356.51L344.667 351.84ZM345.497 349.97L347.547 345.3L351.477 347.03L349.427 351.7L345.497 349.97ZM353.347 347.85L357.277 349.58L355.227 354.25L351.297 352.52L353.347 347.85ZM354.177 345.98L356.227 341.31L360.157 343.04L358.107 347.71L354.177 345.98ZM357.047 339.43L359.097 334.76L363.027 336.49L360.977 341.16L357.047 339.43ZM359.927 332.89L361.977 328.22L365.907 329.95L363.857 334.62L359.927 332.89ZM362.797 326.35L362.967 325.96L364.847 321.68L368.777 323.41L367.317 326.73L366.727 328.08L362.797 326.35ZM365.667 319.81L367.717 315.14L371.647 316.87L369.597 321.54L365.667 319.81ZM363.797 318.98L359.867 317.25L361.917 312.58L365.847 314.31L363.797 318.98ZM357.997 316.43L354.067 314.7L356.117 310.03L360.047 311.76L357.997 316.43ZM352.187 313.88L348.257 312.15L350.307 307.48L354.237 309.21L352.187 313.88ZM351.367 315.75L349.317 320.42L345.387 318.69L347.437 314.02L351.367 315.75ZM343.517 317.88L339.587 316.15L341.637 311.48L345.567 313.21L343.517 317.88ZM342.687 319.75L341.617 322.2L340.637 324.43L336.707 322.7L337.267 321.44L338.767 318.03L342.697 319.76L342.687 319.75ZM335.187 321.06L334.827 321.87L331.517 320.41L330.897 320.14L332.947 315.47L336.877 317.2L335.177 321.06H335.187ZM329.027 319.32L325.097 317.59L327.147 312.92L331.077 314.65L329.027 319.32ZM328.207 321.19L326.157 325.86L322.227 324.13L324.277 319.46L328.207 321.19ZM325.337 327.73L323.287 332.4L319.357 330.67L321.407 326L325.337 327.73ZM322.457 334.27L320.407 338.94L316.477 337.21L318.527 332.54L322.457 334.27ZM319.587 340.82L317.537 345.49L313.607 343.76L315.657 339.09L319.587 340.82ZM316.707 347.36L314.657 352.03L310.727 350.3L312.777 345.63L316.707 347.36ZM318.577 348.18L322.507 349.91L320.457 354.58L316.527 352.85L318.577 348.18ZM324.387 350.73L328.317 352.46L326.267 357.13L322.337 355.4L324.387 350.73ZM330.187 353.28L334.117 355.01L332.067 359.68L328.137 357.95L330.187 353.28ZM333.117 362.37L337.047 364.1L334.997 368.77L331.067 367.04L333.117 362.37ZM338.927 364.92L342.857 366.65L340.807 371.32L336.877 369.59L338.927 364.92ZM339.747 363.05L341.797 358.38L345.727 360.11L343.677 364.78L339.747 363.05ZM347.597 360.93L351.527 362.66L349.477 367.33L345.547 365.6L347.597 360.93ZM348.427 359.06L350.477 354.39L354.407 356.12L352.357 360.79L348.427 359.06ZM356.277 356.94L360.207 358.67L358.157 363.34L354.227 361.61L356.277 356.94ZM357.107 355.07L359.157 350.4L363.087 352.13L361.037 356.8L357.107 355.07ZM359.977 348.53L362.027 343.86L365.957 345.59L363.907 350.26L359.977 348.53ZM362.857 341.98L364.907 337.31L368.837 339.04L366.787 343.71L362.857 341.98ZM365.727 335.44L367.777 330.77L371.707 332.5L369.657 337.17L365.727 335.44ZM368.597 328.9L369.387 327.09L370.647 324.22L374.577 325.95L373.737 327.85L372.517 330.62L368.587 328.89L368.597 328.9ZM371.477 322.36L373.527 317.69L377.457 319.42L375.407 324.09L371.477 322.36ZM374.347 315.81L376.397 311.14L380.327 312.87L378.277 317.54L374.347 315.81ZM372.477 314.99L368.547 313.26L370.597 308.59L374.527 310.32L372.477 314.99ZM366.677 312.44L362.747 310.71L364.797 306.04L368.727 307.77L366.677 312.44ZM360.877 309.89L356.947 308.16L358.997 303.49L362.927 305.22L360.877 309.89ZM355.067 307.34L351.137 305.61L353.187 300.94L357.117 302.67L355.067 307.34ZM349.257 304.79L345.327 303.06L347.377 298.39L351.307 300.12L349.257 304.79ZM348.437 306.66L346.387 311.33L342.457 309.6L344.507 304.93L348.437 306.66ZM340.587 308.78L336.657 307.05L338.707 302.38L342.637 304.11L340.587 308.78ZM339.757 310.66L337.707 315.33L333.777 313.6L335.827 308.93L339.757 310.66ZM331.907 312.78L327.977 311.05L330.027 306.38L333.957 308.11L331.907 312.78ZM326.097 310.23L322.167 308.5L324.217 303.83L328.147 305.56L326.097 310.23ZM325.277 312.1L323.227 316.77L319.297 315.04L321.347 310.37L325.277 312.1ZM322.407 318.64L322.337 318.8L320.347 323.32L316.417 321.59L317.977 318.03L318.467 316.91L322.397 318.64H322.407ZM319.527 325.18L317.477 329.85L313.547 328.12L315.597 323.45L319.527 325.18ZM316.657 331.72L314.607 336.39L310.677 334.66L312.727 329.99L316.657 331.72ZM313.777 338.27L311.727 342.94L307.797 341.21L309.847 336.54L313.777 338.27ZM310.907 344.81L308.857 349.48L304.927 347.75L306.977 343.08L310.907 344.81ZM308.027 351.35L305.977 356.02L302.047 354.29L304.097 349.62L308.027 351.35ZM309.897 352.17L313.827 353.9L311.777 358.57L307.847 356.84L309.897 352.17ZM315.707 354.72L319.637 356.45L317.587 361.12L313.657 359.39L315.707 354.72ZM321.507 357.27L325.437 359L323.387 363.67L319.457 361.94L321.507 357.27ZM327.317 359.82L331.247 361.55L329.197 366.22L325.267 364.49L327.317 359.82ZM330.247 368.92L334.177 370.65L332.127 375.32L328.197 373.59L330.247 368.92ZM336.047 371.46L339.977 373.19L337.927 377.86L333.997 376.13L336.047 371.46ZM341.857 374.02L345.787 375.75L343.737 380.42L339.807 378.69L341.857 374.02ZM342.677 372.14L344.727 367.47L348.657 369.2L346.607 373.87L342.677 372.14ZM350.527 370.02L354.457 371.75L352.407 376.42L348.477 374.69L350.527 370.02ZM351.357 368.15L353.407 363.48L357.337 365.21L355.287 369.88L351.357 368.15ZM359.207 366.03L363.137 367.76L361.087 372.43L357.157 370.7L359.207 366.03ZM360.037 364.16L362.087 359.49L366.017 361.22L363.967 365.89L360.037 364.16ZM362.907 357.62L364.957 352.95L368.887 354.68L366.837 359.35L362.907 357.62ZM365.787 351.08L367.837 346.41L371.767 348.14L369.717 352.81L365.787 351.08ZM368.657 344.53L370.707 339.86L374.637 341.59L372.587 346.26L368.657 344.53ZM371.527 337.99L373.577 333.32L377.507 335.05L375.457 339.72L371.527 337.99ZM374.407 331.45L375.827 328.22L376.457 326.77L380.387 328.5L380.177 328.98L378.337 333.17L374.407 331.44V331.45ZM377.277 324.91L379.327 320.24L383.257 321.97L381.207 326.64L377.277 324.91ZM380.157 318.36L382.207 313.69L386.137 315.42L384.087 320.09L380.157 318.36ZM381.157 311L377.227 309.27L379.277 304.6L383.207 306.33L381.157 311ZM375.357 308.45L371.427 306.72L373.477 302.05L377.407 303.78L375.357 308.45ZM369.547 305.9L365.617 304.17L367.667 299.5L371.597 301.23L369.547 305.9ZM363.747 303.35L359.817 301.62L361.867 296.95L365.797 298.68L363.747 303.35ZM357.947 300.8L354.017 299.07L356.067 294.4L359.997 296.13L357.947 300.8ZM355.017 291.71L351.087 289.98L354.307 282.64C355.777 282.77 357.237 282.98 358.717 283.29L355.017 291.71ZM354.187 293.58L352.137 298.25L348.207 296.52L350.257 291.85L354.187 293.58ZM346.327 295.7L342.397 293.97L344.447 289.3L348.377 291.03L346.327 295.7ZM345.507 297.57L343.457 302.24L339.527 300.51L341.577 295.84L345.507 297.57ZM337.657 299.69L333.727 297.96L335.777 293.29L339.707 295.02L337.657 299.69ZM336.827 301.56L334.777 306.23L330.847 304.5L332.897 299.83L336.827 301.56ZM328.977 303.68L325.047 301.95L327.097 297.28L331.027 299.01L328.977 303.68ZM323.167 301.13L317.017 298.43C318.227 297.07 319.487 295.77 320.817 294.53L325.217 296.46L323.167 301.13ZM322.347 303L320.297 307.67L312.437 304.22C313.457 302.76 314.517 301.37 315.617 300.05L322.347 303ZM319.477 309.55L317.427 314.22L308.587 310.34C309.457 308.8 310.347 307.34 311.267 305.95L319.477 309.56V309.55ZM316.597 316.09L315.907 317.66L314.547 320.76L305.297 316.69C305.427 316.41 305.567 316.13 305.697 315.85C306.327 314.56 306.957 313.32 307.597 312.12L316.597 316.08V316.09ZM313.727 322.63L311.677 327.3L302.437 323.24C302.797 322.28 303.177 321.34 303.567 320.44C303.847 319.79 304.137 319.17 304.427 318.54L313.727 322.62V322.63ZM310.847 329.17L308.797 333.84L300.277 330.1C300.707 328.39 301.207 326.75 301.737 325.17L310.837 329.17H310.847ZM307.977 335.72L305.927 340.39L298.867 337.29C299.117 335.53 299.427 333.81 299.807 332.13L307.977 335.72ZM305.097 342.26L303.047 346.93L298.227 344.81C298.277 342.99 298.397 341.18 298.597 339.4L305.107 342.26H305.097ZM307.027 358.71L310.957 360.44L308.907 365.11L304.977 363.38L307.027 358.71ZM312.827 361.26L316.757 362.99L314.707 367.66L310.777 365.93L312.827 361.26ZM318.637 363.82L322.567 365.55L320.517 370.22L316.587 368.49L318.637 363.82ZM324.437 366.37L328.367 368.1L326.317 372.77L322.387 371.04L324.437 366.37ZM327.367 375.46L331.297 377.19L328.407 383.77L326.747 387.54C325.407 387.14 324.057 386.65 322.697 386.09L323.837 383.5L327.367 375.46ZM330.627 383.8L333.167 378.01L337.097 379.74L335.367 383.69L333.097 388.86C331.667 388.69 330.217 388.43 328.747 388.07L330.627 383.8ZM337.667 383.55L338.977 380.56L342.907 382.29L342.567 383.07L339.947 389.03C338.407 389.14 336.837 389.15 335.247 389.05L337.657 383.55H337.667ZM344.787 383.11L348.717 384.84L347.467 387.68C345.777 388.16 344.057 388.54 342.287 388.78L344.777 383.1L344.787 383.11ZM347.837 382.22L345.607 381.24L347.657 376.57L351.587 378.3L350.077 381.74L349.537 382.97L347.837 382.22ZM350.587 385.66L351.777 386.18C351.217 386.41 350.647 386.63 350.077 386.83L350.597 385.65L350.587 385.66ZM351.407 383.79L352.587 381.11L353.457 379.12L355.787 380.14L357.387 380.85L355.907 384.21C355.367 384.5 354.817 384.78 354.267 385.05L351.397 383.79H351.407ZM360.767 378.24L362.137 375.13L364.767 376.29L366.157 376.9C364.747 378.17 363.267 379.39 361.727 380.53L360.087 379.81L360.767 378.25V378.24ZM362.967 373.25L365.017 368.58L371.517 371.44C371.117 371.9 370.707 372.35 370.297 372.8C369.487 373.68 368.647 374.53 367.787 375.37L366.977 375.01L362.967 373.25ZM365.837 366.71L367.887 362.04L376.057 365.63C375.067 367.04 374.017 368.44 372.887 369.81L365.827 366.71H365.837ZM368.717 360.17L370.767 355.5L379.867 359.5C379.067 360.96 378.197 362.44 377.227 363.91L368.707 360.17H368.717ZM371.587 353.63L373.637 348.96L382.937 353.04C382.667 353.67 382.407 354.31 382.117 354.96C381.727 355.85 381.277 356.77 380.817 357.69L371.577 353.63H371.587ZM374.457 347.08L376.507 342.41L385.507 346.37C384.967 347.93 384.357 349.52 383.707 351.15L374.447 347.08H374.457ZM377.337 340.54L379.387 335.87L387.597 339.48C387.187 341.1 386.717 342.75 386.177 344.43L377.337 340.55V340.54ZM380.207 334L382.247 329.36V329.33L382.377 329.38L388.977 332.28C388.747 333.99 388.437 335.71 388.057 337.45L380.207 334ZM383.087 327.46L385.137 322.79L389.537 324.72C389.517 326.55 389.417 328.35 389.237 330.16L383.087 327.46ZM385.957 320.92L388.007 316.25L389.127 316.74C389.337 318.69 389.467 320.6 389.517 322.48L385.957 320.92ZM386.967 313.55L383.037 311.82L385.087 307.15L386.677 307.85C387.167 309.02 387.597 310.17 387.957 311.3L386.967 313.55ZM384.037 304.46L380.107 302.73L381.767 298.95C382.787 300.4 383.707 301.88 384.517 303.37L384.037 304.46ZM378.227 301.91L374.297 300.18L377.227 293.52C378.347 294.66 379.397 295.84 380.357 297.07L378.227 301.91ZM372.427 299.36L368.497 297.63L372.197 289.21C373.417 290.09 374.567 291.03 375.657 292.01L372.437 299.35L372.427 299.36ZM366.617 296.81L362.687 295.08L366.687 285.98C368.007 286.61 369.277 287.29 370.477 288.04L366.627 296.81H366.617ZM360.817 294.26L356.887 292.53L360.737 283.76C362.107 284.13 363.467 284.6 364.817 285.15L360.817 294.25V294.26ZM351.767 273.63C351.887 273.24 352.097 272.93 352.287 272.69C352.677 272.21 353.067 272.02 353.067 272.02C353.067 272.02 352.967 272.4 352.817 272.96C352.767 273.23 352.677 273.54 352.647 273.85C352.607 274.01 352.647 274.16 352.607 274.32C352.627 274.47 352.607 274.63 352.657 274.77C352.657 274.83 352.667 274.88 352.687 274.94C352.707 275.03 352.737 275.12 352.767 275.2C352.797 275.31 352.857 275.42 352.917 275.52C352.927 275.55 352.947 275.57 352.957 275.6C353.117 275.85 353.297 276.1 353.477 276.3C353.647 276.52 353.837 276.67 353.947 276.8C354.067 276.93 354.137 277.01 354.137 277.01C354.137 277.01 354.037 277.01 353.857 276.98C353.687 276.94 353.417 276.93 353.137 276.78C352.837 276.67 352.517 276.45 352.227 276.15C352.107 275.97 351.927 275.82 351.857 275.6C351.837 275.55 351.807 275.49 351.787 275.44C351.717 275.28 351.667 275.11 351.647 274.94C351.647 274.92 351.647 274.89 351.647 274.87C351.587 274.43 351.647 273.99 351.777 273.63H351.767ZM347.397 282.59C348.947 282.47 350.537 282.44 352.127 282.5L349.197 289.16L345.267 287.43L347.397 282.59ZM339.947 283.79C341.597 283.38 343.297 283.06 345.067 282.83L343.407 286.61L339.477 284.88L339.957 283.79H339.947ZM342.577 288.48L340.527 293.15L336.597 291.42L338.647 286.75L342.577 288.48ZM331.777 286.62C332.857 286.13 333.997 285.66 335.187 285.23L336.777 285.93L334.727 290.6L330.797 288.87L331.787 286.62H331.777ZM333.897 292.47L331.847 297.14L327.917 295.41L329.967 290.74L333.897 292.47ZM326.047 294.59L322.487 293.03C323.907 291.79 325.397 290.6 326.977 289.43L328.097 289.92L326.047 294.59ZM303.597 373.1C303.197 372.49 302.507 371.67 301.817 370.49C301.177 369.29 300.257 367.88 299.537 366.11C298.707 364.39 297.997 362.35 297.347 360.09C297.077 358.95 296.717 357.77 296.497 356.52C296.307 355.27 295.997 353.99 295.877 352.64C295.747 351.3 295.537 349.92 295.517 348.51C295.487 347.8 295.467 347.09 295.437 346.36C295.427 345.64 295.467 344.91 295.477 344.17C295.517 341.23 295.867 338.2 296.307 335.14C296.857 332.1 297.457 329.02 298.407 326.02C299.337 323.03 300.497 320.07 301.817 317.31C302.127 316.65 302.447 315.99 302.757 315.33C303.767 313.24 304.817 311.2 305.927 309.26C307.367 306.7 308.937 304.33 310.527 302.16C312.137 300 313.787 298.06 315.377 296.34C316.997 294.65 318.557 293.16 320.017 291.94C320.737 291.31 321.427 290.76 322.077 290.25C322.717 289.73 323.317 289.28 323.867 288.88C324.957 288.06 325.857 287.48 326.457 287.07C326.947 286.74 327.257 286.54 327.347 286.47C327.247 286.55 326.967 286.77 326.497 287.13C325.917 287.57 325.087 288.23 324.037 289.11C323.507 289.53 322.937 290.02 322.327 290.57C321.707 291.1 321.057 291.69 320.377 292.35C318.997 293.64 317.547 295.19 315.987 296.9C314.477 298.65 312.917 300.62 311.407 302.79C309.917 304.98 308.477 307.37 307.057 309.89C306.037 311.71 305.087 313.61 304.167 315.56C303.797 316.32 303.447 317.1 303.087 317.87C301.797 320.64 300.727 323.5 299.837 326.44C298.877 329.36 298.257 332.38 297.687 335.35C297.227 338.34 296.847 341.3 296.777 344.19C296.757 344.91 296.707 345.62 296.717 346.33C296.717 347.04 296.737 347.74 296.747 348.43C296.717 349.82 296.887 351.17 296.957 352.49C297.027 353.81 297.287 355.07 297.437 356.31C297.607 357.54 297.927 358.71 298.147 359.84C298.367 360.97 298.777 362.01 299.037 363.03C299.297 364.06 299.697 364.97 300.027 365.85C300.637 367.64 301.457 369.06 302.027 370.29C302.657 371.49 303.267 372.38 303.617 373.01C303.947 373.56 304.137 373.88 304.187 373.95C304.137 373.88 303.917 373.57 303.547 373.06L303.597 373.1ZM302.897 368.1L304.147 365.26L308.077 366.99L305.587 372.67C304.567 371.21 303.687 369.68 302.897 368.11V368.1ZM310.157 378.03C309.007 376.92 307.957 375.76 306.987 374.55L309.947 367.81L313.877 369.54L310.147 378.03H310.157ZM315.327 382.03L315.277 382.14C315.177 382.07 315.077 382 314.977 381.93C313.837 381.15 312.767 380.33 311.757 379.47L315.757 370.36L319.687 372.09L315.317 382.03H315.327ZM317.347 382.51L321.567 372.91L325.497 374.64L321.707 383.26L320.827 385.27C319.487 384.64 318.207 383.98 317.017 383.26L317.347 382.51ZM390.497 298.08C390.577 298.37 390.677 298.7 390.777 299.06C391.027 299.9 391.337 300.94 391.647 302.17C391.677 302.3 391.707 302.42 391.737 302.55C392.257 304.49 392.797 306.86 393.347 309.6C393.857 312.34 394.397 315.46 394.637 318.9C394.737 319.84 394.787 320.8 394.817 321.79C394.847 322.61 394.867 323.44 394.897 324.28C394.857 326.14 394.857 328.07 394.667 330.04C394.627 330.53 394.587 331.03 394.527 331.53C394.177 335.02 393.537 338.65 392.557 342.3C391.447 346.47 389.927 350.69 388.217 354.86C387.377 356.93 386.437 359.06 385.377 361.1C384.297 363.14 383.147 365.14 381.887 367.07C379.327 370.91 376.447 374.55 373.277 377.8C370.117 381.06 366.697 383.99 363.107 386.41C359.527 388.85 355.777 390.79 352.027 392.14C348.287 393.5 344.587 394.29 341.147 394.61C337.697 394.95 334.507 394.8 331.737 394.37C330.337 394.23 329.067 393.88 327.877 393.66C326.707 393.36 325.637 393.05 324.667 392.78C323.717 392.45 322.877 392.15 322.137 391.89C321.407 391.63 320.817 391.33 320.317 391.13C319.457 390.76 318.947 390.54 318.837 390.49C318.957 390.53 319.477 390.73 320.357 391.06C320.857 391.24 321.467 391.5 322.217 391.73C322.957 391.95 323.807 392.21 324.757 392.51C325.727 392.75 326.797 393.01 327.967 393.26C329.157 393.43 330.417 393.73 331.807 393.82C334.557 394.13 337.687 394.16 341.057 393.77C344.427 393.38 348.017 392.52 351.637 391.11C355.267 389.72 358.857 387.71 362.357 385.33C365.857 382.94 369.177 380.05 372.247 376.82C375.337 373.61 378.127 370.02 380.607 366.24C381.847 364.35 383.007 362.4 384.067 360.42C385.127 358.42 386.027 356.41 386.897 354.32C388.637 350.19 390.147 346.07 391.277 341.96C392.247 338.35 392.967 334.78 393.397 331.34C393.457 330.87 393.507 330.41 393.557 329.95C393.637 329.29 393.697 328.63 393.737 327.97C393.827 326.72 393.867 325.49 393.917 324.28C393.887 322.45 393.917 320.67 393.787 318.97C393.617 315.57 393.187 312.46 392.797 309.71C392.347 306.97 391.897 304.58 391.457 302.64C391.337 302.04 391.207 301.48 391.097 300.96C390.887 300.04 390.697 299.25 390.537 298.61C390.497 298.44 390.457 298.27 390.427 298.12C390.207 297.21 390.077 296.67 390.057 296.55C390.097 296.67 390.247 297.2 390.517 298.1L390.497 298.08ZM389.587 309.89C389.757 310.63 389.937 311.26 390.017 311.8C390.197 312.8 390.287 313.4 390.297 313.47C390.267 313.4 390.057 312.83 389.737 311.88C389.577 311.36 389.317 310.76 389.047 310.07C388.787 309.37 388.417 308.61 388.057 307.77C387.707 306.93 387.217 306.05 386.787 305.1C386.267 304.19 385.787 303.2 385.187 302.22C384.897 301.73 384.617 301.23 384.297 300.74C383.977 300.25 383.657 299.75 383.327 299.25C383.017 298.74 382.637 298.27 382.297 297.78C381.947 297.29 381.597 296.79 381.207 296.33L380.087 294.9C379.687 294.45 379.297 294 378.897 293.55C378.097 292.66 377.287 291.81 376.477 291.02C375.637 290.25 374.857 289.47 374.037 288.82C373.247 288.13 372.467 287.53 371.727 286.99C371.007 286.42 370.307 285.98 369.687 285.56C369.377 285.35 369.087 285.15 368.817 284.98C368.537 284.82 368.277 284.67 368.037 284.53C367.107 283.99 366.577 283.66 366.577 283.66C366.577 283.66 367.157 283.87 368.167 284.27C368.417 284.37 368.697 284.48 368.997 284.6C369.287 284.74 369.607 284.9 369.947 285.07C370.627 285.4 371.417 285.76 372.197 286.27C372.597 286.51 373.017 286.77 373.447 287.03C373.877 287.3 374.287 287.62 374.727 287.93C375.617 288.54 376.487 289.27 377.377 290.03C377.837 290.4 378.237 290.84 378.687 291.25C379.117 291.67 379.577 292.08 379.977 292.55C380.387 293.01 380.807 293.47 381.227 293.93L382.407 295.39C382.807 295.87 383.157 296.39 383.517 296.9C383.867 297.42 384.247 297.91 384.567 298.44C385.237 299.48 385.837 300.53 386.377 301.57C386.957 302.59 387.377 303.65 387.827 304.61C388.207 305.61 388.607 306.54 388.877 307.44C389.167 308.33 389.427 309.14 389.587 309.89ZM420.547 175.57C420.277 175.9 419.977 176.23 419.667 176.57C418.607 177.74 417.407 179.07 416.567 180.99L406.247 204.48L398.087 223.06L395.757 228.36C393.137 234.31 389.217 236.67 386.837 237.59C386.657 237.14 386.477 236.6 386.327 236L393.017 220.77L400.617 203.48L408.007 186.65L401.037 203.55L393.797 221.11L389.487 231.55L394.267 221.32L402.447 203.8L416.797 173.05L417.317 171.93C418.187 172.34 418.907 172.71 419.487 173.04C419.487 173.04 419.507 173.05 419.517 173.05C420.077 173.36 420.507 173.63 420.857 173.87C421.117 174.04 421.317 174.19 421.477 174.32C421.207 174.76 420.897 175.16 420.557 175.56L420.547 175.57ZM401.027 203.56L393.787 221.12L389.477 231.56L394.257 221.33L402.437 203.81L401.027 203.56ZM419.477 173.05C419.477 173.05 419.497 173.06 419.507 173.06C420.067 173.37 420.497 173.64 420.847 173.88L420.987 173.06L419.477 173.05ZM419.667 176.57C418.607 177.74 417.407 179.07 416.567 180.99L406.247 204.48L409.607 205.07C413.837 195.45 417.847 186.32 419.207 183.22L420.547 175.57C420.277 175.9 419.977 176.23 419.667 176.57ZM419.507 173.06C420.067 173.37 420.497 173.64 420.847 173.88L420.987 173.06H419.507Z" fill="white"/>
<path d="M499.956 110.53L488.954 172.963L459.099 342.4L458.938 342.376L458.88 342.895C458.781 343.788 458.661 344.673 458.541 345.574L456.744 355.753C455.27 362.642 453.269 369.442 450.76 376.053C443.984 393.92 433.77 409.941 420.988 423.102C412.889 431.44 403.755 438.631 393.806 444.407C376.198 454.635 356.654 460.04 337.267 460.04C324.497 460.04 311.988 457.751 300.095 453.232H300.094C288.65 448.894 278.149 442.623 268.854 434.598L267.958 433.815L267.234 433.172C263.634 429.937 260.255 426.442 257.119 422.728L257.118 422.727C254.47 419.6 251.99 416.32 249.691 412.889L248.717 411.408L248.211 410.621C243.018 402.47 238.809 393.559 235.712 384.095C229.936 366.448 228.142 346.992 230.523 327.832L230.527 327.801V327.781C230.528 327.78 230.528 327.778 230.528 327.776C230.529 327.772 230.531 327.767 230.532 327.762L230.539 327.732L230.543 327.702C231.541 319.716 233.253 311.777 235.655 303.999L297.53 314.913C297.167 315.773 296.817 316.646 296.488 317.525L296.468 317.581C293.344 324.786 291.03 334.007 290.627 343.619V343.881C290.305 352.146 291.411 360.701 294.645 368.541C297.592 375.69 302.318 382.229 309.342 387.366L310.029 387.859C312.061 389.285 314.274 390.598 316.688 391.779L316.688 391.78C317.332 392.092 318 392.405 318.679 392.699V392.698C340.699 402.375 360.022 393.663 373.352 380.605L373.577 380.719L373.792 380.247L373.855 380.106C380.493 373.462 385.62 365.745 388.82 358.712L389.125 358.031C393.269 348.6 395.786 340.29 396.743 331.876C397.035 329.337 397.176 326.779 397.187 324.192V324.19C397.187 321.059 396.985 317.868 396.583 314.56C396.577 314.491 396.569 314.423 396.561 314.358L396.53 314.158C395.826 308.543 394.541 302.584 392.698 295.985C390.198 287.012 389.62 275.392 389.827 264.696C390.031 254.164 390.997 244.571 391.617 239.365C394.242 237.611 397.137 234.714 399.245 229.911C399.854 228.524 400.635 226.76 401.516 224.739L401.515 224.738L410.064 205.281C414.294 195.661 418.305 186.531 419.665 183.431C419.848 183.015 419.973 182.725 420.059 182.544L420.062 182.537L420.064 182.531C420.676 181.138 421.598 180.138 422.614 179.013C423.623 177.895 424.704 176.671 425.494 174.882C425.74 174.326 425.689 173.772 425.469 173.261L425.475 172.58L425.059 172.573C424.355 171.636 423.093 170.737 421.728 169.947H421.727C420.363 169.154 418.823 168.435 417.501 167.844L417.498 167.842L416.792 167.537C415.103 166.82 413.141 166.077 411.426 165.699C410.45 165.484 409.511 165.378 408.732 165.487C407.945 165.598 407.235 165.945 406.899 166.708V166.709C405.871 169.047 405.892 171.151 405.661 173.009L405.657 173.039V173.05C405.54 174.016 405.349 174.948 404.938 175.891C404.173 177.631 398.834 189.779 393.576 201.759L346.575 193.474L350.159 173.177L350.167 173.134V173.112L359.76 118.757L361.206 110.53H499.956Z" fill="white" stroke="white"/>
<path d="M694.329 220.62L682.973 273.71H566.023L565.938 274.105L559.998 301.935L559.869 302.54H668.37L657.642 353.13H549.142L549.058 353.526L542.178 386.047L542.05 386.65H662.12L650.45 442.24H463.874L510.872 220.62H694.329Z" fill="white" stroke="white"/>
<path d="M885.06 220.62L852.858 372.954L852.848 372.944L852.658 373.847C847.253 399.416 837.185 418.055 822.504 429.84C807.819 441.628 787.821 447.55 762.467 447.55C739.185 447.55 721.129 442.404 708.218 432.178C695.321 421.963 688.867 407.785 688.867 389.58C688.867 379.905 690.603 366.527 694.096 349.43H754.67C751.418 364.708 749.787 374.78 749.787 379.57C749.787 384.657 751.112 388.562 753.848 391.189C756.581 393.813 760.635 395.08 765.917 395.08C767.824 395.08 769.521 394.918 771.021 394.599C772.546 394.276 773.954 393.67 775.254 392.807C776.509 391.973 777.556 391.237 778.406 390.599C779.331 389.908 780.165 388.723 780.91 387.132C781.639 385.573 782.235 384.528 782.717 383.965H782.718L782.72 383.961C783.034 383.587 783.317 383.031 783.584 382.337C783.854 381.634 784.119 380.752 784.382 379.701C784.772 378.141 785.045 377.01 785.205 376.318L785.328 375.765C785.427 375.249 785.745 373.748 786.266 371.242C786.527 369.991 786.723 369.023 786.853 368.342C786.919 368.001 786.968 367.73 787.002 367.529C787.025 367.392 787.041 367.261 787.05 367.162L818.232 220.62H885.06Z" fill="white" stroke="white"/>
<path d="M1049.39 220.62L1084.25 442.24H1017.74L1014.04 411.101L1013.99 410.66H940.4L940.258 410.921L923.2 442.24H854.016L982.884 220.62H1049.39ZM1001.52 290.578C995.903 304.108 988.102 320.244 978.096 338.995L978.037 339.105V339.114L965.277 362.763L964.879 363.5H1009.11L1009.05 362.945L1004.67 323.235L1004.67 323.228L1004.45 321.346C1003.34 311.882 1002.68 301.687 1002.49 290.761L1001.52 290.578Z" fill="white" stroke="white"/>
<path d="M1214.92 220.62L1206.3 262.537C1203.8 274.401 1200.67 286.376 1196.93 298.452L1197.8 298.91C1204.02 291.022 1215.99 278.744 1233.71 262.074H1233.71L1277.66 220.62H1365.53L1259.93 311.35L1259.64 311.603L1259.81 311.951L1323.86 442.24H1247.75L1207.24 355.918L1206.96 355.317L1206.46 355.753L1182.07 377.014L1181.94 377.122L1181.91 377.285L1167.92 442.24H1101.09L1148.09 220.62H1214.92Z" fill="white" stroke="white"/>
<mask id="path-7-inside-1_773_1039" fill="white">
<path d="M670.409 480.813L669.02 487.312H654.634L646.557 525.74H638.669L646.746 487.312H632.044L633.432 480.813H670.409Z"/>
<path d="M690.599 515.644C689.716 519.304 687.823 522.08 684.983 523.973C682.144 525.866 678.799 526.813 674.887 526.813C670.407 526.813 666.937 525.551 664.413 523.027C661.889 520.503 660.69 516.969 660.69 512.489C660.69 506.747 662.393 501.951 665.864 498.102C669.271 494.253 673.562 492.297 678.736 492.297C682.964 492.297 686.308 493.559 688.769 496.02C691.167 498.544 692.429 501.951 692.429 506.242C692.429 507.693 692.24 509.397 691.987 511.353H667.757C667.631 512.552 667.631 513.183 667.631 513.246C667.631 515.833 668.325 517.852 669.713 519.304C671.101 520.755 672.994 521.449 675.392 521.449C679.304 521.449 681.954 519.556 683.469 515.644H690.599ZM668.577 506.431H685.614V505.548C685.614 503.024 684.983 501.068 683.784 499.68C682.522 498.355 680.755 497.66 678.484 497.66C676.086 497.66 674.004 498.481 672.237 499.995C670.47 501.51 669.271 503.655 668.577 506.431Z"/>
<path d="M707.93 493.18L706.858 498.102C709.886 494.316 713.736 492.36 718.405 492.36C721.308 492.36 723.579 493.117 725.346 494.632C727.113 496.146 727.996 498.102 727.996 500.563C727.996 502.014 727.744 503.844 727.239 506.116L723.137 525.74H715.818L719.982 506.242C720.235 504.98 720.424 503.718 720.424 502.456C720.424 501.131 719.982 500.121 719.099 499.364C718.216 498.67 717.017 498.291 715.502 498.291C712.6 498.291 710.265 499.301 708.561 501.194C706.858 503.087 705.722 505.548 705.091 508.514L701.431 525.74H694.238L701.179 493.18H707.93Z"/>
<path d="M744.164 493.18L743.091 498.102C746.12 494.316 749.969 492.36 754.638 492.36C757.541 492.36 759.812 493.117 761.579 494.632C763.346 496.146 764.229 498.102 764.229 500.563C764.229 502.014 763.977 503.844 763.472 506.116L759.371 525.74H752.051L756.216 506.242C756.468 504.98 756.657 503.718 756.657 502.456C756.657 501.131 756.216 500.121 755.332 499.364C754.449 498.67 753.25 498.291 751.736 498.291C748.833 498.291 746.498 499.301 744.795 501.194C743.091 503.087 741.955 505.548 741.324 508.514L737.664 525.74H730.471L737.412 493.18H744.164Z"/>
<path d="M780.965 493.18L774.087 525.74H766.893L773.771 493.18H780.965ZM783.615 480.623L782.1 487.691H774.97L776.485 480.623H783.615Z"/>
<path d="M811.897 502.708H805.082C805.082 500.752 804.514 499.364 803.505 498.607C802.432 497.85 800.854 497.408 798.772 497.408C796.879 497.408 795.428 497.787 794.418 498.481C793.409 499.175 792.904 500.121 792.904 501.32C792.904 502.519 793.472 503.466 794.608 504.097C795.743 504.791 797.699 505.548 800.35 506.431C800.981 506.621 801.422 506.747 801.801 506.873C807.291 508.766 810.067 511.732 810.067 515.77C810.067 519.43 808.616 522.206 805.839 523.973C803 525.803 799.656 526.686 795.806 526.686C791.453 526.686 788.108 525.803 785.71 523.91C783.313 522.017 782.177 519.367 782.177 515.959V515.328H788.992V515.518C788.992 519.493 791.453 521.449 796.374 521.449C798.33 521.449 799.908 521.071 801.107 520.25C802.306 519.43 802.937 518.294 802.937 516.906C802.937 515.644 802.432 514.634 801.485 514.003C800.476 513.372 798.457 512.552 795.365 511.416C795.239 511.416 795.112 511.353 795.049 511.29C793.787 510.848 792.904 510.533 792.336 510.28C791.705 510.028 790.948 509.649 789.938 509.082C788.929 508.577 788.234 508.009 787.73 507.441C787.225 506.936 786.846 506.179 786.468 505.296C786.089 504.412 785.9 503.339 785.9 502.204C785.9 499.175 787.099 496.777 789.56 495.01C791.957 493.243 795.239 492.297 799.34 492.297C803.252 492.297 806.344 493.18 808.553 494.884C810.761 496.588 811.897 498.986 811.897 502.014V502.708Z"/>
<path d="M873.881 510.091C872.746 515.328 870.348 519.43 866.625 522.396C862.902 525.361 858.359 526.813 852.995 526.813C847.064 526.813 842.458 525.109 839.176 521.638C835.832 518.168 834.191 513.309 834.191 507.125C834.191 502.267 835.138 497.787 837.031 493.685C838.924 489.584 841.763 486.239 845.549 483.652C849.335 481.128 853.689 479.803 858.674 479.803C863.848 479.803 868.076 481.191 871.231 483.968C874.386 486.744 875.964 490.467 875.964 495.01V495.831H868.329C868.202 492.549 867.256 490.152 865.615 488.637C863.912 487.123 861.388 486.302 858.043 486.302C855.456 486.302 853.121 486.997 851.039 488.259C848.894 489.521 847.19 491.224 845.928 493.243C844.666 495.263 843.656 497.471 843.025 499.869C842.331 502.267 842.016 504.728 842.016 507.125C842.016 511.29 842.962 514.571 844.982 516.906C847.001 519.241 849.777 520.376 853.374 520.376C856.529 520.376 859.242 519.493 861.388 517.726C863.533 515.959 865.047 513.372 865.931 510.091H873.881Z"/>
<path d="M893.422 480.813L883.957 525.74H876.764L886.292 480.813H893.422Z"/>
<path d="M927.068 493.18L920.19 525.74H913.375L914.511 520.881C911.734 524.793 908.075 526.686 903.405 526.686C900.44 526.686 898.105 525.929 896.338 524.415C894.571 522.9 893.751 520.818 893.751 518.231C893.751 516.906 893.94 515.139 894.445 512.868L898.61 493.18H905.866L902.206 510.407C901.512 513.499 901.197 515.581 901.197 516.717C901.197 518.042 901.638 519.051 902.585 519.809C903.468 520.566 904.73 520.881 906.371 520.881C909.021 520.881 911.23 519.872 912.87 517.852C914.511 515.833 915.647 513.309 916.278 510.407L919.937 493.18H927.068Z"/>
<path d="M944.876 480.813L941.468 497.029C944.119 493.938 947.463 492.36 951.501 492.36C955.287 492.36 958.253 493.622 960.461 496.02C962.67 498.481 963.806 501.825 963.806 505.99C963.806 511.416 962.228 516.212 959.136 520.376C956.044 524.541 951.943 526.623 946.769 526.623C941.153 526.623 937.556 524.478 936.042 520.187L934.906 525.74H928.154L937.809 480.813H944.876ZM949.167 497.913C945.633 497.913 942.92 499.553 941.027 502.708C939.071 505.927 938.124 509.397 938.124 513.12C938.124 515.581 938.755 517.537 940.143 518.925C941.468 520.376 943.298 521.071 945.57 521.071C948.599 521.071 951.249 519.682 953.394 516.78C955.54 513.877 956.612 510.407 956.612 506.305C956.612 503.781 955.981 501.699 954.719 500.184C953.457 498.67 951.627 497.913 949.167 497.913Z"/>
</mask>
<path d="M670.409 480.813L669.02 487.312H654.634L646.557 525.74H638.669L646.746 487.312H632.044L633.432 480.813H670.409Z" fill="white"/>
<path d="M690.599 515.644C689.716 519.304 687.823 522.08 684.983 523.973C682.144 525.866 678.799 526.813 674.887 526.813C670.407 526.813 666.937 525.551 664.413 523.027C661.889 520.503 660.69 516.969 660.69 512.489C660.69 506.747 662.393 501.951 665.864 498.102C669.271 494.253 673.562 492.297 678.736 492.297C682.964 492.297 686.308 493.559 688.769 496.02C691.167 498.544 692.429 501.951 692.429 506.242C692.429 507.693 692.24 509.397 691.987 511.353H667.757C667.631 512.552 667.631 513.183 667.631 513.246C667.631 515.833 668.325 517.852 669.713 519.304C671.101 520.755 672.994 521.449 675.392 521.449C679.304 521.449 681.954 519.556 683.469 515.644H690.599ZM668.577 506.431H685.614V505.548C685.614 503.024 684.983 501.068 683.784 499.68C682.522 498.355 680.755 497.66 678.484 497.66C676.086 497.66 674.004 498.481 672.237 499.995C670.47 501.51 669.271 503.655 668.577 506.431Z" fill="white"/>
<path d="M707.93 493.18L706.858 498.102C709.886 494.316 713.736 492.36 718.405 492.36C721.308 492.36 723.579 493.117 725.346 494.632C727.113 496.146 727.996 498.102 727.996 500.563C727.996 502.014 727.744 503.844 727.239 506.116L723.137 525.74H715.818L719.982 506.242C720.235 504.98 720.424 503.718 720.424 502.456C720.424 501.131 719.982 500.121 719.099 499.364C718.216 498.67 717.017 498.291 715.502 498.291C712.6 498.291 710.265 499.301 708.561 501.194C706.858 503.087 705.722 505.548 705.091 508.514L701.431 525.74H694.238L701.179 493.18H707.93Z" fill="white"/>
<path d="M744.164 493.18L743.091 498.102C746.12 494.316 749.969 492.36 754.638 492.36C757.541 492.36 759.812 493.117 761.579 494.632C763.346 496.146 764.229 498.102 764.229 500.563C764.229 502.014 763.977 503.844 763.472 506.116L759.371 525.74H752.051L756.216 506.242C756.468 504.98 756.657 503.718 756.657 502.456C756.657 501.131 756.216 500.121 755.332 499.364C754.449 498.67 753.25 498.291 751.736 498.291C748.833 498.291 746.498 499.301 744.795 501.194C743.091 503.087 741.955 505.548 741.324 508.514L737.664 525.74H730.471L737.412 493.18H744.164Z" fill="white"/>
<path d="M780.965 493.18L774.087 525.74H766.893L773.771 493.18H780.965ZM783.615 480.623L782.1 487.691H774.97L776.485 480.623H783.615Z" fill="white"/>
<path d="M811.897 502.708H805.082C805.082 500.752 804.514 499.364 803.505 498.607C802.432 497.85 800.854 497.408 798.772 497.408C796.879 497.408 795.428 497.787 794.418 498.481C793.409 499.175 792.904 500.121 792.904 501.32C792.904 502.519 793.472 503.466 794.608 504.097C795.743 504.791 797.699 505.548 800.35 506.431C800.981 506.621 801.422 506.747 801.801 506.873C807.291 508.766 810.067 511.732 810.067 515.77C810.067 519.43 808.616 522.206 805.839 523.973C803 525.803 799.656 526.686 795.806 526.686C791.453 526.686 788.108 525.803 785.71 523.91C783.313 522.017 782.177 519.367 782.177 515.959V515.328H788.992V515.518C788.992 519.493 791.453 521.449 796.374 521.449C798.33 521.449 799.908 521.071 801.107 520.25C802.306 519.43 802.937 518.294 802.937 516.906C802.937 515.644 802.432 514.634 801.485 514.003C800.476 513.372 798.457 512.552 795.365 511.416C795.239 511.416 795.112 511.353 795.049 511.29C793.787 510.848 792.904 510.533 792.336 510.28C791.705 510.028 790.948 509.649 789.938 509.082C788.929 508.577 788.234 508.009 787.73 507.441C787.225 506.936 786.846 506.179 786.468 505.296C786.089 504.412 785.9 503.339 785.9 502.204C785.9 499.175 787.099 496.777 789.56 495.01C791.957 493.243 795.239 492.297 799.34 492.297C803.252 492.297 806.344 493.18 808.553 494.884C810.761 496.588 811.897 498.986 811.897 502.014V502.708Z" fill="white"/>
<path d="M873.881 510.091C872.746 515.328 870.348 519.43 866.625 522.396C862.902 525.361 858.359 526.813 852.995 526.813C847.064 526.813 842.458 525.109 839.176 521.638C835.832 518.168 834.191 513.309 834.191 507.125C834.191 502.267 835.138 497.787 837.031 493.685C838.924 489.584 841.763 486.239 845.549 483.652C849.335 481.128 853.689 479.803 858.674 479.803C863.848 479.803 868.076 481.191 871.231 483.968C874.386 486.744 875.964 490.467 875.964 495.01V495.831H868.329C868.202 492.549 867.256 490.152 865.615 488.637C863.912 487.123 861.388 486.302 858.043 486.302C855.456 486.302 853.121 486.997 851.039 488.259C848.894 489.521 847.19 491.224 845.928 493.243C844.666 495.263 843.656 497.471 843.025 499.869C842.331 502.267 842.016 504.728 842.016 507.125C842.016 511.29 842.962 514.571 844.982 516.906C847.001 519.241 849.777 520.376 853.374 520.376C856.529 520.376 859.242 519.493 861.388 517.726C863.533 515.959 865.047 513.372 865.931 510.091H873.881Z" fill="white"/>
<path d="M893.422 480.813L883.957 525.74H876.764L886.292 480.813H893.422Z" fill="white"/>
<path d="M927.068 493.18L920.19 525.74H913.375L914.511 520.881C911.734 524.793 908.075 526.686 903.405 526.686C900.44 526.686 898.105 525.929 896.338 524.415C894.571 522.9 893.751 520.818 893.751 518.231C893.751 516.906 893.94 515.139 894.445 512.868L898.61 493.18H905.866L902.206 510.407C901.512 513.499 901.197 515.581 901.197 516.717C901.197 518.042 901.638 519.051 902.585 519.809C903.468 520.566 904.73 520.881 906.371 520.881C909.021 520.881 911.23 519.872 912.87 517.852C914.511 515.833 915.647 513.309 916.278 510.407L919.937 493.18H927.068Z" fill="white"/>
<path d="M944.876 480.813L941.468 497.029C944.119 493.938 947.463 492.36 951.501 492.36C955.287 492.36 958.253 493.622 960.461 496.02C962.67 498.481 963.806 501.825 963.806 505.99C963.806 511.416 962.228 516.212 959.136 520.376C956.044 524.541 951.943 526.623 946.769 526.623C941.153 526.623 937.556 524.478 936.042 520.187L934.906 525.74H928.154L937.809 480.813H944.876ZM949.167 497.913C945.633 497.913 942.92 499.553 941.027 502.708C939.071 505.927 938.124 509.397 938.124 513.12C938.124 515.581 938.755 517.537 940.143 518.925C941.468 520.376 943.298 521.071 945.57 521.071C948.599 521.071 951.249 519.682 953.394 516.78C955.54 513.877 956.612 510.407 956.612 506.305C956.612 503.781 955.981 501.699 954.719 500.184C953.457 498.67 951.627 497.913 949.167 497.913Z" fill="white"/>
<path d="M670.409 480.813L669.02 487.312H654.634L646.557 525.74H638.669L646.746 487.312H632.044L633.432 480.813H670.409Z" stroke="white" stroke-width="2" mask="url(#path-7-inside-1_773_1039)"/>
<path d="M690.599 515.644C689.716 519.304 687.823 522.08 684.983 523.973C682.144 525.866 678.799 526.813 674.887 526.813C670.407 526.813 666.937 525.551 664.413 523.027C661.889 520.503 660.69 516.969 660.69 512.489C660.69 506.747 662.393 501.951 665.864 498.102C669.271 494.253 673.562 492.297 678.736 492.297C682.964 492.297 686.308 493.559 688.769 496.02C691.167 498.544 692.429 501.951 692.429 506.242C692.429 507.693 692.24 509.397 691.987 511.353H667.757C667.631 512.552 667.631 513.183 667.631 513.246C667.631 515.833 668.325 517.852 669.713 519.304C671.101 520.755 672.994 521.449 675.392 521.449C679.304 521.449 681.954 519.556 683.469 515.644H690.599ZM668.577 506.431H685.614V505.548C685.614 503.024 684.983 501.068 683.784 499.68C682.522 498.355 680.755 497.66 678.484 497.66C676.086 497.66 674.004 498.481 672.237 499.995C670.47 501.51 669.271 503.655 668.577 506.431Z" stroke="white" stroke-width="2" mask="url(#path-7-inside-1_773_1039)"/>
<path d="M707.93 493.18L706.858 498.102C709.886 494.316 713.736 492.36 718.405 492.36C721.308 492.36 723.579 493.117 725.346 494.632C727.113 496.146 727.996 498.102 727.996 500.563C727.996 502.014 727.744 503.844 727.239 506.116L723.137 525.74H715.818L719.982 506.242C720.235 504.98 720.424 503.718 720.424 502.456C720.424 501.131 719.982 500.121 719.099 499.364C718.216 498.67 717.017 498.291 715.502 498.291C712.6 498.291 710.265 499.301 708.561 501.194C706.858 503.087 705.722 505.548 705.091 508.514L701.431 525.74H694.238L701.179 493.18H707.93Z" stroke="white" stroke-width="2" mask="url(#path-7-inside-1_773_1039)"/>
<path d="M744.164 493.18L743.091 498.102C746.12 494.316 749.969 492.36 754.638 492.36C757.541 492.36 759.812 493.117 761.579 494.632C763.346 496.146 764.229 498.102 764.229 500.563C764.229 502.014 763.977 503.844 763.472 506.116L759.371 525.74H752.051L756.216 506.242C756.468 504.98 756.657 503.718 756.657 502.456C756.657 501.131 756.216 500.121 755.332 499.364C754.449 498.67 753.25 498.291 751.736 498.291C748.833 498.291 746.498 499.301 744.795 501.194C743.091 503.087 741.955 505.548 741.324 508.514L737.664 525.74H730.471L737.412 493.18H744.164Z" stroke="white" stroke-width="2" mask="url(#path-7-inside-1_773_1039)"/>
<path d="M780.965 493.18L774.087 525.74H766.893L773.771 493.18H780.965ZM783.615 480.623L782.1 487.691H774.97L776.485 480.623H783.615Z" stroke="white" stroke-width="2" mask="url(#path-7-inside-1_773_1039)"/>
<path d="M811.897 502.708H805.082C805.082 500.752 804.514 499.364 803.505 498.607C802.432 497.85 800.854 497.408 798.772 497.408C796.879 497.408 795.428 497.787 794.418 498.481C793.409 499.175 792.904 500.121 792.904 501.32C792.904 502.519 793.472 503.466 794.608 504.097C795.743 504.791 797.699 505.548 800.35 506.431C800.981 506.621 801.422 506.747 801.801 506.873C807.291 508.766 810.067 511.732 810.067 515.77C810.067 519.43 808.616 522.206 805.839 523.973C803 525.803 799.656 526.686 795.806 526.686C791.453 526.686 788.108 525.803 785.71 523.91C783.313 522.017 782.177 519.367 782.177 515.959V515.328H788.992V515.518C788.992 519.493 791.453 521.449 796.374 521.449C798.33 521.449 799.908 521.071 801.107 520.25C802.306 519.43 802.937 518.294 802.937 516.906C802.937 515.644 802.432 514.634 801.485 514.003C800.476 513.372 798.457 512.552 795.365 511.416C795.239 511.416 795.112 511.353 795.049 511.29C793.787 510.848 792.904 510.533 792.336 510.28C791.705 510.028 790.948 509.649 789.938 509.082C788.929 508.577 788.234 508.009 787.73 507.441C787.225 506.936 786.846 506.179 786.468 505.296C786.089 504.412 785.9 503.339 785.9 502.204C785.9 499.175 787.099 496.777 789.56 495.01C791.957 493.243 795.239 492.297 799.34 492.297C803.252 492.297 806.344 493.18 808.553 494.884C810.761 496.588 811.897 498.986 811.897 502.014V502.708Z" stroke="white" stroke-width="2" mask="url(#path-7-inside-1_773_1039)"/>
<path d="M873.881 510.091C872.746 515.328 870.348 519.43 866.625 522.396C862.902 525.361 858.359 526.813 852.995 526.813C847.064 526.813 842.458 525.109 839.176 521.638C835.832 518.168 834.191 513.309 834.191 507.125C834.191 502.267 835.138 497.787 837.031 493.685C838.924 489.584 841.763 486.239 845.549 483.652C849.335 481.128 853.689 479.803 858.674 479.803C863.848 479.803 868.076 481.191 871.231 483.968C874.386 486.744 875.964 490.467 875.964 495.01V495.831H868.329C868.202 492.549 867.256 490.152 865.615 488.637C863.912 487.123 861.388 486.302 858.043 486.302C855.456 486.302 853.121 486.997 851.039 488.259C848.894 489.521 847.19 491.224 845.928 493.243C844.666 495.263 843.656 497.471 843.025 499.869C842.331 502.267 842.016 504.728 842.016 507.125C842.016 511.29 842.962 514.571 844.982 516.906C847.001 519.241 849.777 520.376 853.374 520.376C856.529 520.376 859.242 519.493 861.388 517.726C863.533 515.959 865.047 513.372 865.931 510.091H873.881Z" stroke="white" stroke-width="2" mask="url(#path-7-inside-1_773_1039)"/>
<path d="M893.422 480.813L883.957 525.74H876.764L886.292 480.813H893.422Z" stroke="white" stroke-width="2" mask="url(#path-7-inside-1_773_1039)"/>
<path d="M927.068 493.18L920.19 525.74H913.375L914.511 520.881C911.734 524.793 908.075 526.686 903.405 526.686C900.44 526.686 898.105 525.929 896.338 524.415C894.571 522.9 893.751 520.818 893.751 518.231C893.751 516.906 893.94 515.139 894.445 512.868L898.61 493.18H905.866L902.206 510.407C901.512 513.499 901.197 515.581 901.197 516.717C901.197 518.042 901.638 519.051 902.585 519.809C903.468 520.566 904.73 520.881 906.371 520.881C909.021 520.881 911.23 519.872 912.87 517.852C914.511 515.833 915.647 513.309 916.278 510.407L919.937 493.18H927.068Z" stroke="white" stroke-width="2" mask="url(#path-7-inside-1_773_1039)"/>
<path d="M944.876 480.813L941.468 497.029C944.119 493.938 947.463 492.36 951.501 492.36C955.287 492.36 958.253 493.622 960.461 496.02C962.67 498.481 963.806 501.825 963.806 505.99C963.806 511.416 962.228 516.212 959.136 520.376C956.044 524.541 951.943 526.623 946.769 526.623C941.153 526.623 937.556 524.478 936.042 520.187L934.906 525.74H928.154L937.809 480.813H944.876ZM949.167 497.913C945.633 497.913 942.92 499.553 941.027 502.708C939.071 505.927 938.124 509.397 938.124 513.12C938.124 515.581 938.755 517.537 940.143 518.925C941.468 520.376 943.298 521.071 945.57 521.071C948.599 521.071 951.249 519.682 953.394 516.78C955.54 513.877 956.612 510.407 956.612 506.305C956.612 503.781 955.981 501.699 954.719 500.184C953.457 498.67 951.627 497.913 949.167 497.913Z" stroke="white" stroke-width="2" mask="url(#path-7-inside-1_773_1039)"/>
<path d="M1315.94 506.49V511.49H1016.94V506.49H1315.94Z" fill="white" stroke="white"/>
<path d="M578.937 506.49V511.49H279.937V506.49H578.937Z" fill="white" stroke="white"/>
</svg>
